<svg width="146" height="27" viewBox="0 0 146 27" fill="none" xmlns="http://www.w3.org/2000/svg">
<path d="M31 8.50928H6V10.1105H31V8.50928Z" fill="#060606"/>
<path d="M31 13.3274H6V14.9287H31V13.3274Z" fill="#060606"/>
<path d="M31 18.1377H6V19.739H31V18.1377Z" fill="#060606"/>
<path d="M82 8.50888V19.7178H84V8.50888H82Z" fill="#060606"/>
<path d="M89.0176 8.50888V19.7178H91.0176V8.50888H89.0176Z" fill="#060606"/>
<path d="M96.0254 8.50888V19.7178H98.0254V8.50888H96.0254Z" fill="#060606"/>
<path d="M117 8.50888V19.7178H119V8.50888H117Z" fill="#060606"/>
<path d="M123.018 8.50888V19.7178H125.018V8.50888H123.018Z" fill="#060606"/>
<path d="M129.025 8.50888V19.7178H131.025V8.50888H129.025Z" fill="#060606"/>
<path d="M136.025 8.50888V19.7178H138.025V8.50888H136.025Z" fill="#060606"/>
<path d="M52 10.1101V19.7178H54V10.1101H52Z" fill="#060606"/>
<path d="M59.0176 10.1101V19.7178H61.0176V10.1101H59.0176Z" fill="#060606"/>
<rect x="0.5" y="0.5" width="36" height="26" stroke="#D9D9D9"/>
<rect x="42.5" y="0.5" width="28" height="26" stroke="#D9D9D9"/>
<rect x="75.5" y="0.5" width="29" height="26" stroke="#D9D9D9"/>
<rect x="110.5" y="0.5" width="35" height="26" stroke="#D9D9D9"/>
</svg>
