<svg width="221" height="20" viewBox="0 0 221 20" fill="none" xmlns="http://www.w3.org/2000/svg">
<g clip-path="url(#clip0_117_506)">
<path d="M16.2239 19.2908C16.3064 19.8845 15.9433 20.1649 15.3986 19.8845L10.8928 17.625C10.3482 17.3446 9.45693 17.3446 8.91228 17.625L4.38998 19.8515C3.84533 20.1154 3.48222 19.8515 3.56475 19.2413L4.32396 14.2604C4.42299 13.6666 4.14241 12.809 3.72979 12.3802L0.247297 8.7847C-0.181826 8.35589 -0.0332837 7.91057 0.560886 7.81161L5.52881 7.00346C6.12298 6.9045 6.84919 6.39321 7.12977 5.84894L9.47344 1.39582C9.75402 0.851546 10.2162 0.868039 10.4967 1.39582L12.8074 5.86543C13.088 6.40971 13.7977 6.92099 14.3918 7.03644L19.3598 7.89408C19.9539 7.99304 20.1025 8.43835 19.6734 8.86717L16.1248 12.4462C15.6957 12.875 15.4151 13.7161 15.5142 14.3099L16.2404 19.2908H16.2239Z" fill="url(#paint0_radial_117_506)"/>
<path style="mix-blend-mode:multiply" opacity="0.5" d="M9.98509 1.2474C10.0841 1.2474 10.1831 1.34635 10.2657 1.51128L12.5763 5.9809C12.8899 6.59115 13.6656 7.15191 14.3423 7.28385L19.3103 8.14149C19.4918 8.17448 19.6238 8.24045 19.6569 8.33941C19.6899 8.42187 19.6238 8.57031 19.4918 8.70226L15.9433 12.2812C15.4647 12.7595 15.1511 13.6832 15.2501 14.3594L15.9763 19.3403C15.9928 19.5052 15.9763 19.6372 15.9268 19.7031C15.9268 19.7031 15.8773 19.7526 15.7947 19.7526C15.7122 19.7526 15.6132 19.7196 15.5142 19.6701L11.0084 17.4106C10.7113 17.2622 10.3152 17.1797 9.90256 17.1797C9.48994 17.1797 9.11033 17.2622 8.81325 17.4106L4.29095 19.6372C4.19193 19.6866 4.0929 19.7196 4.01037 19.7196C3.91135 19.7196 3.87834 19.6866 3.87834 19.6701C3.82882 19.6042 3.79581 19.4722 3.82882 19.3073L4.58804 14.3264C4.68707 13.6502 4.40649 12.7266 3.92785 12.2483L0.412344 8.6033C0.280306 8.47135 0.214287 8.32292 0.247297 8.24045C0.280306 8.15799 0.412344 8.07552 0.593896 8.04253L5.56182 7.23437C6.23851 7.11892 7.01423 6.55816 7.34433 5.94792L9.7045 1.51128C9.78703 1.34635 9.90256 1.2474 10.0016 1.2474M9.98509 1C9.80353 1 9.62198 1.13194 9.47344 1.39583L7.12977 5.84896C6.84919 6.37674 6.12298 6.90451 5.52881 7.00347L0.560886 7.81163C-0.0332837 7.91059 -0.181826 8.33941 0.247297 8.78472L3.7628 12.3967C4.19193 12.8255 4.456 13.6832 4.35697 14.2769L3.59776 19.2578C3.53174 19.7031 3.71329 19.967 4.02688 19.967C4.14241 19.967 4.27445 19.934 4.40649 19.8681L8.92878 17.6415C9.19286 17.5095 9.55596 17.4436 9.90256 17.4436C10.2492 17.4436 10.6288 17.5095 10.8928 17.658L15.3986 19.9175C15.5472 19.9835 15.6792 20.0165 15.7947 20.0165C16.1083 20.0165 16.2899 19.7526 16.2239 19.3238L15.4977 14.3429C15.4151 13.7491 15.6957 12.8915 16.1083 12.4792L19.6569 8.90017C20.086 8.47135 19.9374 8.02604 19.3433 7.92708L14.3753 7.06944C13.7812 6.97049 13.055 6.44271 12.7909 5.89844L10.4967 1.41233C10.3647 1.13194 10.1666 1 9.98509 1Z" fill="url(#paint1_radial_117_506)"/>
<path d="M42.252 19.2908C42.3345 19.8845 41.9714 20.1649 41.4268 19.8845L36.921 17.625C36.3763 17.3446 35.4851 17.3446 34.9404 17.625L30.4181 19.8516C29.8735 20.1154 29.5104 19.8516 29.5929 19.2413L30.3521 14.2604C30.4511 13.6667 30.1705 12.809 29.7579 12.3802L26.2424 8.76823C25.8133 8.33941 25.9618 7.89409 26.556 7.79514L31.5239 6.98698C32.1181 6.88802 32.8443 6.37673 33.1249 5.83246L35.4686 1.37934C35.7491 0.835066 36.2113 0.851559 36.4918 1.37934L38.8025 5.84895C39.0831 6.39323 39.7928 6.90451 40.387 7.01996L45.3549 7.8776C45.9491 7.97656 46.0976 8.42187 45.6685 8.85069L42.12 12.4297C41.6908 12.8585 41.4103 13.6996 41.5093 14.2934L42.2355 19.2743L42.252 19.2908Z" fill="url(#paint2_radial_117_506)"/>
<path style="mix-blend-mode:multiply" opacity="0.5" d="M36.0134 1.2474C36.1124 1.2474 36.2115 1.34635 36.3105 1.51128L38.6212 5.9809C38.9347 6.59115 39.7105 7.15191 40.3872 7.28385L45.3551 8.14149C45.5366 8.17448 45.6687 8.24045 45.7017 8.33941C45.7347 8.42187 45.6687 8.57031 45.5366 8.70226L41.9881 12.2812C41.5095 12.7595 41.1959 13.6832 41.2949 14.3594L42.0211 19.3403C42.0376 19.5052 42.0211 19.6372 41.9716 19.7031C41.9716 19.7031 41.9221 19.7526 41.8396 19.7526C41.7571 19.7526 41.658 19.7196 41.559 19.6701L37.0532 17.4106C36.7561 17.2622 36.36 17.1797 35.9474 17.1797C35.5348 17.1797 35.1552 17.2622 34.8581 17.4106L30.3358 19.6372C30.2367 19.6866 30.1377 19.7196 30.0552 19.7196C29.9562 19.7196 29.9232 19.6866 29.9067 19.6701C29.8571 19.6042 29.8241 19.4722 29.8571 19.3073L30.6164 14.3264C30.7154 13.6502 30.4183 12.7266 29.9397 12.2483L26.4242 8.63628C26.2921 8.50434 26.2261 8.3559 26.2591 8.27344C26.2921 8.19097 26.4242 8.10851 26.6057 8.07552L31.5736 7.26736C32.2503 7.15191 33.026 6.59115 33.3561 5.9809L35.6998 1.52778C35.7823 1.36285 35.8979 1.26389 35.9969 1.26389M36.0134 1C35.8319 1 35.6503 1.13194 35.5018 1.39583L33.1581 5.84896C32.8775 6.37674 32.1513 6.90451 31.5571 7.00347L26.5892 7.81163C25.995 7.91059 25.8465 8.33941 26.2756 8.78472L29.7911 12.3967C30.2202 12.8255 30.4843 13.6832 30.3853 14.2769L29.6261 19.2578C29.5601 19.7031 29.7416 19.967 30.0552 19.967C30.1707 19.967 30.3028 19.934 30.4348 19.8681L34.9571 17.6415C35.2212 17.5095 35.5843 17.4436 35.9309 17.4436C36.2775 17.4436 36.6571 17.5095 36.9212 17.658L41.427 19.9175C41.5755 19.9835 41.7075 20.0165 41.8231 20.0165C42.1367 20.0165 42.3182 19.7526 42.2522 19.3238L41.526 14.3429C41.4435 13.7491 41.724 12.8915 42.1367 12.4792L45.6852 8.90017C46.1143 8.47135 45.9658 8.02604 45.3716 7.92708L40.4037 7.06944C39.8095 6.97049 39.0998 6.44271 38.8192 5.89844L36.5085 1.42882C36.36 1.16493 36.1785 1.01649 35.9969 1.01649L36.0134 1Z" fill="url(#paint3_radial_117_506)"/>
<path d="M68.2628 19.2908C68.3454 19.8845 67.9823 20.1649 67.4376 19.8845L62.9318 17.625C62.3872 17.3446 61.4959 17.3446 60.9677 17.625L56.4455 19.8516C55.9008 20.1154 55.5377 19.8516 55.6202 19.2413L56.3794 14.2604C56.4785 13.6667 56.1979 12.809 55.7853 12.3802L52.2698 8.76823C51.8406 8.33941 51.9892 7.89409 52.5833 7.79514L57.5513 6.98698C58.1454 6.88802 58.8716 6.37673 59.1522 5.83246L61.4959 1.37934C61.7765 0.835066 62.2386 0.851559 62.5192 1.37934L64.8299 5.84895C65.1104 6.39323 65.8201 6.90451 66.4143 7.01996L71.3822 7.8776C71.9764 7.97656 72.1249 8.42187 71.6958 8.85069L68.1473 12.4297C67.7182 12.8585 67.4376 13.6996 67.5366 14.2934L68.2628 19.2743V19.2908Z" fill="url(#paint4_radial_117_506)"/>
<path style="mix-blend-mode:multiply" opacity="0.5" d="M62.0241 1.2474C62.1232 1.2474 62.2222 1.34635 62.3212 1.51128L64.6319 5.9809C64.9455 6.59115 65.7212 7.15191 66.3979 7.28385L71.3658 8.14149C71.5474 8.17448 71.6794 8.24045 71.7124 8.33941C71.7454 8.42187 71.6794 8.57031 71.5474 8.70226L67.9989 12.2812C67.5202 12.7595 67.2066 13.6832 67.3057 14.3594L68.0319 19.3403C68.0484 19.5052 68.0319 19.6372 67.9824 19.7031C67.9824 19.7031 67.9328 19.7526 67.8503 19.7526C67.7678 19.7526 67.6688 19.7196 67.5697 19.6701L63.0639 17.4106C62.7669 17.2622 62.3707 17.1797 61.9581 17.1797C61.5455 17.1797 61.1659 17.2622 60.8688 17.4106L56.3465 19.6372C56.2475 19.6866 56.1485 19.7196 56.0659 19.7196C55.9669 19.7196 55.9339 19.6866 55.9174 19.6701C55.8679 19.6042 55.8349 19.4722 55.8679 19.3073L56.6271 14.3264C56.7261 13.6502 56.429 12.7266 55.9504 12.2483L52.4349 8.63628C52.3029 8.50434 52.2368 8.3559 52.2699 8.27344C52.3029 8.19097 52.4349 8.10851 52.6165 8.07552L57.5844 7.26736C58.2611 7.15191 59.0368 6.59115 59.3669 5.9809L61.7106 1.52778C61.7931 1.36285 61.9086 1.26389 62.0076 1.26389M62.0241 1C61.8426 1 61.661 1.13194 61.5125 1.39583L59.1688 5.84896C58.8882 6.37674 58.162 6.90451 57.5679 7.00347L52.5999 7.81163C52.0058 7.91059 51.8572 8.33941 52.2864 8.78472L55.8019 12.3967C56.231 12.8255 56.4951 13.6832 56.396 14.2769L55.6368 19.2578C55.5708 19.7031 55.7524 19.967 56.0659 19.967C56.1815 19.967 56.3135 19.934 56.4456 19.8681L60.9678 17.6415C61.2319 17.5095 61.595 17.4436 61.9416 17.4436C62.2882 17.4436 62.6678 17.5095 62.9319 17.658L67.4377 19.9175C67.5862 19.9835 67.7183 20.0165 67.8338 20.0165C68.1474 20.0165 68.329 19.7526 68.2629 19.3238L67.5367 14.3429C67.4542 13.7491 67.7348 12.8915 68.1474 12.4792L71.6959 8.90017C72.125 8.47135 71.9765 8.02604 71.3823 7.92708L66.4144 7.06944C65.8202 6.97049 65.094 6.44271 64.8299 5.89844L62.5193 1.42882C62.3873 1.16493 62.1892 1.01649 62.0076 1.01649L62.0241 1Z" fill="url(#paint5_radial_117_506)"/>
<path d="M94.2911 19.2908C94.3736 19.8845 94.0105 20.1649 93.4658 19.8845L88.96 17.625C88.4154 17.3446 87.5241 17.3446 86.9795 17.625L82.4572 19.8516C81.9125 20.1154 81.5494 19.8516 81.6319 19.2413L82.3912 14.2604C82.4902 13.6667 82.2096 12.809 81.797 12.3802L78.2815 8.76823C77.8524 8.33941 78.0009 7.89409 78.5951 7.79514L83.563 6.98698C84.1572 6.88802 84.8834 6.37673 85.1639 5.83246L87.5076 1.37934C87.7882 0.835066 88.2503 0.851559 88.5309 1.37934L90.8416 5.84895C91.1222 6.39323 91.8319 6.90451 92.426 7.01996L97.3939 7.8776C97.9881 7.97656 98.1367 8.42187 97.7075 8.85069L94.159 12.4297C93.7299 12.8585 93.4493 13.6996 93.5483 14.2934L94.2746 19.2743L94.2911 19.2908Z" fill="url(#paint6_radial_117_506)"/>
<path style="mix-blend-mode:multiply" opacity="0.5" d="M88.0525 1.2474C88.1515 1.2474 88.2505 1.34635 88.3495 1.51128L90.6602 5.9809C90.9738 6.59115 91.7495 7.15191 92.4262 7.28385L97.3941 8.14149C97.5757 8.17448 97.7077 8.24045 97.7407 8.33941C97.7738 8.42187 97.7077 8.57031 97.5757 8.70226L94.0272 12.2812C93.5485 12.7595 93.2349 13.6832 93.334 14.3594L94.0602 19.3403C94.0767 19.5052 94.0602 19.6372 94.0107 19.7031C94.0107 19.7031 93.9612 19.7526 93.8786 19.7526C93.7961 19.7526 93.6971 19.7196 93.5981 19.6701L89.0923 17.4106C88.7952 17.2622 88.3991 17.1797 87.9865 17.1797C87.5738 17.1797 87.1942 17.2622 86.8971 17.4106L82.3748 19.6372C82.2758 19.6866 82.1768 19.7196 82.0943 19.7196C81.9952 19.7196 81.9622 19.6866 81.9457 19.6701C81.8962 19.6042 81.8632 19.4722 81.8962 19.3073L82.6554 14.3264C82.7545 13.6502 82.4739 12.7266 81.9952 12.2483L78.4797 8.63628C78.3477 8.50434 78.2817 8.3559 78.3147 8.27344C78.3477 8.19097 78.4797 8.10851 78.6613 8.07552L83.6292 7.26736C84.3059 7.15191 85.0816 6.59115 85.4117 5.9809L87.7554 1.52778C87.8379 1.36285 87.9534 1.26389 88.0525 1.26389M88.0525 1C87.8709 1 87.6894 1.13194 87.5408 1.39583L85.1971 5.84896C84.9166 6.37674 84.1904 6.90451 83.5962 7.00347L78.6283 7.81163C78.0341 7.91059 77.8856 8.33941 78.3147 8.78472L81.8302 12.3967C82.2593 12.8255 82.5234 13.6832 82.4244 14.2769L81.6651 19.2578C81.5991 19.7031 81.7807 19.967 82.0943 19.967C82.2098 19.967 82.3418 19.934 82.4739 19.8681L86.9962 17.6415C87.2602 17.5095 87.6233 17.4436 87.9699 17.4436C88.3165 17.4436 88.6962 17.5095 88.9602 17.658L93.466 19.9175C93.6146 19.9835 93.7466 20.0165 93.8621 20.0165C94.1757 20.0165 94.3573 19.7526 94.2913 19.3238L93.565 14.3429C93.4825 13.7491 93.7631 12.8915 94.1757 12.4792L97.7242 8.90017C98.1534 8.47135 98.0048 8.02604 97.4106 7.92708L92.4427 7.06944C91.8486 6.97049 91.1223 6.44271 90.8583 5.89844L88.5476 1.42882C88.4156 1.16493 88.2175 1.01649 88.036 1.01649L88.0525 1Z" fill="url(#paint7_radial_117_506)"/>
<path d="M120.303 19.2908C120.385 19.8845 120.022 20.1649 119.478 19.8845L114.972 17.625C114.427 17.3446 113.536 17.3446 113.008 17.625L108.485 19.8516C107.941 20.1154 107.578 19.8516 107.66 19.2413L108.419 14.2604C108.519 13.6667 108.238 12.809 107.825 12.3802L104.31 8.76823C103.881 8.33941 104.029 7.89409 104.623 7.79514L109.591 6.98698C110.185 6.88802 110.912 6.37673 111.192 5.83246L113.536 1.37934C113.817 0.835066 114.279 0.851559 114.559 1.37934L116.87 5.84895C117.15 6.39323 117.86 6.90451 118.454 7.01996L123.422 7.8776C124.016 7.97656 124.165 8.42187 123.736 8.85069L120.187 12.4297C119.758 12.8585 119.478 13.6996 119.577 14.2934L120.303 19.2743V19.2908Z" fill="url(#paint8_radial_117_506)"/>
<path style="mix-blend-mode:multiply" opacity="0.5" d="M114.064 1.2474C114.163 1.2474 114.262 1.34635 114.361 1.51128L116.672 5.9809C116.986 6.59115 117.761 7.15191 118.438 7.28385L123.406 8.14149C123.587 8.17448 123.719 8.24045 123.752 8.33941C123.785 8.42187 123.719 8.57031 123.587 8.70226L120.039 12.2812C119.56 12.7595 119.247 13.6832 119.346 14.3594L120.072 19.3403C120.088 19.5052 120.072 19.6372 120.022 19.7031C120.022 19.7031 119.973 19.7526 119.89 19.7526C119.808 19.7526 119.709 19.7196 119.61 19.6701L115.104 17.4106C114.807 17.2622 114.411 17.1797 113.998 17.1797C113.586 17.1797 113.206 17.2622 112.909 17.4106L108.387 19.6372C108.288 19.6866 108.189 19.7196 108.106 19.7196C108.007 19.7196 107.974 19.6866 107.974 19.6701C107.908 19.6042 107.891 19.4722 107.924 19.3073L108.684 14.3264C108.783 13.6502 108.502 12.7266 108.023 12.2483L104.508 8.63628C104.376 8.50434 104.31 8.3559 104.343 8.27344C104.376 8.19097 104.508 8.10851 104.69 8.07552L109.657 7.26736C110.334 7.15191 111.11 6.59115 111.44 5.9809L113.784 1.52778C113.866 1.36285 113.982 1.26389 114.081 1.26389M114.064 1C113.883 1 113.701 1.13194 113.553 1.39583L111.209 5.84896C110.928 6.37674 110.202 6.90451 109.608 7.00347L104.64 7.81163C104.046 7.91059 103.897 8.33941 104.326 8.78472L107.842 12.3967C108.271 12.8255 108.535 13.6832 108.436 14.2769L107.677 19.2578C107.611 19.7031 107.792 19.967 108.106 19.967C108.222 19.967 108.354 19.934 108.486 19.8681L113.008 17.6415C113.272 17.5095 113.635 17.4436 113.982 17.4436C114.328 17.4436 114.708 17.5095 114.972 17.658L119.478 19.9175C119.626 19.9835 119.758 20.0165 119.874 20.0165C120.187 20.0165 120.369 19.7526 120.303 19.3238L119.577 14.3429C119.494 13.7491 119.775 12.8915 120.187 12.4792L123.736 8.90017C124.165 8.47135 124.017 8.02604 123.422 7.92708L118.454 7.06944C117.86 6.97049 117.134 6.44271 116.87 5.89844L114.559 1.42882C114.427 1.16493 114.229 1.01649 114.048 1.01649L114.064 1Z" fill="url(#paint9_radial_117_506)"/>
<path d="M123.753 8.86715C124.182 8.43833 124.033 7.99301 123.439 7.89406L118.471 7.03642C117.877 6.93746 117.151 6.40968 116.887 5.86541L114.576 1.39579C114.444 1.1319 114.263 1.04944 114.081 1.04944V17.427C114.411 17.427 114.725 17.493 114.972 17.625L119.478 19.8845C120.023 20.1484 120.386 19.8845 120.303 19.2908L119.577 14.3099C119.495 13.7161 119.775 12.8585 120.188 12.4461L123.736 8.86715H123.753Z" fill="url(#paint10_radial_117_506)"/>
<path style="mix-blend-mode:multiply" opacity="0.5" d="M123.753 8.86719C124.182 8.43837 124.033 7.99305 123.439 7.8941L118.471 7.03646C117.877 6.9375 117.151 6.40972 116.887 5.86545L114.576 1.39583C114.444 1.13194 114.263 1 114.081 1V1.2474C114.164 1.2474 114.263 1.34635 114.345 1.51128L116.656 5.9809C116.969 6.59115 117.745 7.15191 118.422 7.28385L123.39 8.14149C123.571 8.17448 123.703 8.24045 123.736 8.33941C123.769 8.42187 123.703 8.57031 123.571 8.70226L120.023 12.2812C119.544 12.7595 119.231 13.6832 119.33 14.3594L120.056 19.3403C120.072 19.5052 120.056 19.6372 120.006 19.7031C120.006 19.7031 119.957 19.7526 119.874 19.7526C119.792 19.7526 119.693 19.7196 119.594 19.6701L115.088 17.4106C114.807 17.2786 114.461 17.1962 114.081 17.1962V17.4436C114.411 17.4436 114.725 17.5095 114.972 17.6415L119.478 19.901C119.627 19.967 119.759 20 119.874 20C120.188 20 120.369 19.7361 120.303 19.3073L119.577 14.3264C119.495 13.7326 119.775 12.875 120.188 12.4627L123.736 8.88368L123.753 8.86719Z" fill="url(#paint11_radial_117_506)"/>
</g>
<path d="M147.219 4.60938V4.64062C147.193 4.75 147.169 4.88542 147.148 5.04688C147.128 5.20833 147.109 5.40885 147.094 5.64844C147.083 5.88802 147.073 6.17448 147.062 6.50781C147.057 6.83594 147.055 7.22135 147.055 7.66406V12.4766C147.529 12.4661 147.914 12.4505 148.211 12.4297C148.513 12.4089 148.753 12.3776 148.93 12.3359H148.961V13.4531H148.93C148.753 13.4219 148.513 13.3932 148.211 13.3672C147.914 13.3411 147.529 13.3229 147.055 13.3125C147.06 13.6927 147.068 14.026 147.078 14.3125C147.089 14.599 147.104 14.849 147.125 15.0625C147.146 15.2708 147.169 15.4505 147.195 15.6016C147.221 15.7474 147.25 15.8698 147.281 15.9688V16H145.406V15.9688C145.438 15.8698 145.466 15.7474 145.492 15.6016C145.518 15.4505 145.539 15.2708 145.555 15.0625C145.576 14.849 145.591 14.599 145.602 14.3125C145.617 14.026 145.628 13.6927 145.633 13.3125H140.273V12.9609L147.055 4.60938H147.219ZM145.633 12.4766V7.57031L141.68 12.4766H145.633ZM149.969 15.3125C149.969 15.1979 149.99 15.0911 150.031 14.9922C150.078 14.888 150.138 14.7995 150.211 14.7266C150.289 14.6484 150.378 14.5885 150.477 14.5469C150.581 14.5 150.69 14.4766 150.805 14.4766C150.924 14.4766 151.034 14.5 151.133 14.5469C151.237 14.5885 151.326 14.6484 151.398 14.7266C151.477 14.7995 151.536 14.888 151.578 14.9922C151.625 15.0911 151.648 15.1979 151.648 15.3125C151.648 15.5521 151.568 15.7526 151.406 15.9141C151.245 16.0755 151.044 16.1562 150.805 16.1562C150.69 16.1562 150.581 16.1328 150.477 16.0859C150.378 16.0443 150.289 15.987 150.211 15.9141C150.138 15.8359 150.078 15.7474 150.031 15.6484C149.99 15.5443 149.969 15.4323 149.969 15.3125ZM152.695 17.3594C153.445 17.1719 154.133 16.9375 154.758 16.6562C155.388 16.375 155.932 16.0443 156.391 15.6641C156.849 15.2786 157.206 14.8411 157.461 14.3516C157.716 13.862 157.844 13.3177 157.844 12.7188C157.844 12.125 157.724 11.6198 157.484 11.2031C157.245 10.7865 156.917 10.4453 156.5 10.1797C156.089 9.91406 155.602 9.71875 155.039 9.59375C154.482 9.46875 153.885 9.40104 153.25 9.39062L154.258 4.79688H155.75C156.193 4.79688 156.578 4.79688 156.906 4.79688C157.24 4.79167 157.526 4.78906 157.766 4.78906C158.005 4.78385 158.206 4.77865 158.367 4.77344C158.529 4.76823 158.664 4.76042 158.773 4.75H158.805V6.44531H158.773C158.664 6.41406 158.529 6.38542 158.367 6.35938C158.206 6.33333 158.005 6.3099 157.766 6.28906C157.526 6.26823 157.24 6.2526 156.906 6.24219C156.578 6.23177 156.193 6.22656 155.75 6.22656H154.594L154.18 7.98438C154.602 7.99479 155.018 8.03646 155.43 8.10938C155.841 8.17708 156.234 8.28385 156.609 8.42969C156.984 8.57031 157.331 8.75 157.648 8.96875C157.971 9.18229 158.25 9.4375 158.484 9.73438C158.719 10.026 158.901 10.362 159.031 10.7422C159.167 11.1172 159.234 11.5365 159.234 12C159.234 12.599 159.143 13.1406 158.961 13.625C158.779 14.1094 158.531 14.5469 158.219 14.9375C157.906 15.3281 157.542 15.6745 157.125 15.9766C156.708 16.2786 156.263 16.5443 155.789 16.7734C155.32 17.0026 154.836 17.2005 154.336 17.3672C153.836 17.5339 153.346 17.6745 152.867 17.7891L152.695 17.3594ZM167.469 12.9453C167.469 13.388 167.474 13.776 167.484 14.1094C167.5 14.4375 167.516 14.7214 167.531 14.9609C167.552 15.2005 167.576 15.401 167.602 15.5625C167.633 15.724 167.664 15.8594 167.695 15.9688V16H165.82V15.9688C165.852 15.8594 165.88 15.724 165.906 15.5625C165.938 15.401 165.961 15.2005 165.977 14.9609C165.997 14.7214 166.013 14.4375 166.023 14.1094C166.039 13.7812 166.047 13.3932 166.047 12.9453V7.85938C166.047 7.41667 166.039 7.03125 166.023 6.70312C166.013 6.36979 165.997 6.08333 165.977 5.84375C165.961 5.60417 165.938 5.40365 165.906 5.24219C165.88 5.07552 165.852 4.9375 165.82 4.82812V4.79688L166.148 4.82812C166.247 4.83854 166.357 4.84635 166.477 4.85156C166.602 4.85156 166.729 4.85156 166.859 4.85156C167.062 4.85156 167.336 4.82812 167.68 4.78125C168.029 4.72917 168.471 4.70312 169.008 4.70312C169.508 4.70312 169.969 4.77083 170.391 4.90625C170.818 5.04167 171.188 5.23958 171.5 5.5C171.812 5.76042 172.055 6.08073 172.227 6.46094C172.404 6.83594 172.492 7.26302 172.492 7.74219C172.492 8.11719 172.443 8.46615 172.344 8.78906C172.25 9.10677 172.115 9.39583 171.938 9.65625C171.766 9.91667 171.557 10.1484 171.312 10.3516C171.068 10.5495 170.794 10.7161 170.492 10.8516L173.234 14.7031C173.37 14.8958 173.495 15.0625 173.609 15.2031C173.729 15.3438 173.841 15.4661 173.945 15.5703C174.055 15.6693 174.159 15.7526 174.258 15.8203C174.357 15.8828 174.458 15.9323 174.562 15.9688V16H172.305C172.289 15.901 172.237 15.7708 172.148 15.6094C172.065 15.4427 171.966 15.2786 171.852 15.1172L169.086 11.2188C168.966 11.2292 168.846 11.2396 168.727 11.25C168.607 11.2552 168.484 11.2578 168.359 11.2578C168.214 11.2578 168.065 11.2526 167.914 11.2422C167.768 11.2318 167.62 11.2135 167.469 11.1875V12.9453ZM167.469 10.5781C167.609 10.6094 167.753 10.6328 167.898 10.6484C168.044 10.6589 168.185 10.6641 168.32 10.6641C168.711 10.6641 169.068 10.6068 169.391 10.4922C169.714 10.3724 169.987 10.1927 170.211 9.95312C170.44 9.71354 170.617 9.41667 170.742 9.0625C170.867 8.70312 170.93 8.28385 170.93 7.80469C170.93 7.41406 170.885 7.0599 170.797 6.74219C170.708 6.42448 170.576 6.15625 170.398 5.9375C170.227 5.71354 170.008 5.54167 169.742 5.42188C169.477 5.29688 169.167 5.23438 168.812 5.23438C168.453 5.23438 168.167 5.2526 167.953 5.28906C167.74 5.32552 167.578 5.36458 167.469 5.40625V10.5781ZM178.859 16.1406C178.281 16.1406 177.74 16.0495 177.234 15.8672C176.729 15.6849 176.289 15.4193 175.914 15.0703C175.539 14.7161 175.242 14.2812 175.023 13.7656C174.81 13.2448 174.703 12.651 174.703 11.9844C174.703 11.3958 174.802 10.8516 175 10.3516C175.198 9.84635 175.471 9.40885 175.82 9.03906C176.169 8.66927 176.576 8.38021 177.039 8.17188C177.508 7.96354 178.013 7.85938 178.555 7.85938C179.091 7.85938 179.589 7.95312 180.047 8.14062C180.505 8.32292 180.901 8.59115 181.234 8.94531C181.573 9.29427 181.839 9.72917 182.031 10.25C182.229 10.7656 182.336 11.3542 182.352 12.0156C181.763 12.0052 181.174 11.9974 180.586 11.9922C179.997 11.987 179.385 11.9844 178.75 11.9844C178.297 11.9844 177.854 11.987 177.422 11.9922C176.995 11.9974 176.609 12.0052 176.266 12.0156C176.297 12.5573 176.38 13.0469 176.516 13.4844C176.656 13.9219 176.846 14.2969 177.086 14.6094C177.331 14.9167 177.625 15.1536 177.969 15.3203C178.318 15.487 178.711 15.5703 179.148 15.5703C179.451 15.5703 179.734 15.5365 180 15.4688C180.271 15.3958 180.516 15.2969 180.734 15.1719C180.953 15.0469 181.148 14.901 181.32 14.7344C181.492 14.5625 181.638 14.3776 181.758 14.1797L181.852 14.2266L181.273 15.6172C180.992 15.763 180.656 15.888 180.266 15.9922C179.875 16.0911 179.406 16.1406 178.859 16.1406ZM177.82 11.375C178.341 11.375 178.862 11.375 179.383 11.375C179.909 11.3698 180.385 11.3594 180.812 11.3438C180.766 10.8906 180.677 10.4844 180.547 10.125C180.417 9.76562 180.25 9.46094 180.047 9.21094C179.844 8.96094 179.604 8.76823 179.328 8.63281C179.052 8.4974 178.747 8.42969 178.414 8.42969C178.112 8.42969 177.833 8.4974 177.578 8.63281C177.328 8.76302 177.109 8.95312 176.922 9.20312C176.734 9.45312 176.583 9.76042 176.469 10.125C176.354 10.4844 176.286 10.8958 176.266 11.3594C176.5 11.3698 176.747 11.375 177.008 11.375C177.268 11.375 177.539 11.375 177.82 11.375ZM184.766 8V8.03125C184.755 8.05729 184.747 8.09635 184.742 8.14844C184.737 8.20052 184.734 8.2474 184.734 8.28906C184.734 8.45052 184.758 8.63021 184.805 8.82812C184.852 9.02083 184.935 9.26302 185.055 9.55469L186.922 14L188.812 9.61719C188.891 9.42448 188.974 9.21354 189.062 8.98438C189.151 8.75521 189.195 8.52344 189.195 8.28906C189.195 8.22135 189.19 8.16667 189.18 8.125C189.169 8.07812 189.159 8.04688 189.148 8.03125V8H190.555V8.03125C190.461 8.13021 190.341 8.30729 190.195 8.5625C190.055 8.8125 189.904 9.1276 189.742 9.50781L186.859 16.1094H186.398L183.727 9.89062C183.633 9.66146 183.531 9.44271 183.422 9.23438C183.318 9.02083 183.216 8.83073 183.117 8.66406C183.023 8.4974 182.94 8.35938 182.867 8.25C182.794 8.13542 182.745 8.0625 182.719 8.03125V8H184.766ZM191.703 11.0547C191.703 10.612 191.695 10.2266 191.68 9.89844C191.669 9.5651 191.654 9.27865 191.633 9.03906C191.617 8.79948 191.594 8.59896 191.562 8.4375C191.536 8.27604 191.508 8.14062 191.477 8.03125V8H193.281V8.03125C193.25 8.14062 193.221 8.27604 193.195 8.4375C193.169 8.59896 193.146 8.79948 193.125 9.03906C193.104 9.27865 193.089 9.5651 193.078 9.89844C193.068 10.2266 193.062 10.612 193.062 11.0547V12.9453C193.062 13.388 193.068 13.776 193.078 14.1094C193.089 14.4375 193.104 14.7214 193.125 14.9609C193.146 15.2005 193.169 15.401 193.195 15.5625C193.221 15.724 193.25 15.8594 193.281 15.9688V16H191.477V15.9688C191.508 15.8594 191.536 15.724 191.562 15.5625C191.594 15.401 191.617 15.2005 191.633 14.9609C191.654 14.7214 191.669 14.4375 191.68 14.1094C191.695 13.776 191.703 13.388 191.703 12.9453V11.0547ZM191.539 5.63281C191.539 5.51823 191.56 5.41146 191.602 5.3125C191.648 5.20833 191.708 5.11979 191.781 5.04688C191.854 4.96875 191.94 4.90885 192.039 4.86719C192.143 4.82031 192.255 4.79688 192.375 4.79688C192.495 4.79688 192.604 4.82031 192.703 4.86719C192.807 4.90885 192.896 4.96875 192.969 5.04688C193.047 5.11979 193.107 5.20833 193.148 5.3125C193.195 5.41146 193.219 5.51823 193.219 5.63281C193.219 5.8724 193.138 6.07292 192.977 6.23438C192.815 6.39583 192.615 6.47656 192.375 6.47656C192.255 6.47656 192.143 6.45573 192.039 6.41406C191.94 6.36719 191.854 6.30729 191.781 6.23438C191.708 6.15625 191.648 6.06771 191.602 5.96875C191.56 5.86458 191.539 5.7526 191.539 5.63281ZM199.016 16.1406C198.438 16.1406 197.896 16.0495 197.391 15.8672C196.885 15.6849 196.445 15.4193 196.07 15.0703C195.695 14.7161 195.398 14.2812 195.18 13.7656C194.966 13.2448 194.859 12.651 194.859 11.9844C194.859 11.3958 194.958 10.8516 195.156 10.3516C195.354 9.84635 195.628 9.40885 195.977 9.03906C196.326 8.66927 196.732 8.38021 197.195 8.17188C197.664 7.96354 198.169 7.85938 198.711 7.85938C199.247 7.85938 199.745 7.95312 200.203 8.14062C200.661 8.32292 201.057 8.59115 201.391 8.94531C201.729 9.29427 201.995 9.72917 202.188 10.25C202.385 10.7656 202.492 11.3542 202.508 12.0156C201.919 12.0052 201.331 11.9974 200.742 11.9922C200.154 11.987 199.542 11.9844 198.906 11.9844C198.453 11.9844 198.01 11.987 197.578 11.9922C197.151 11.9974 196.766 12.0052 196.422 12.0156C196.453 12.5573 196.536 13.0469 196.672 13.4844C196.812 13.9219 197.003 14.2969 197.242 14.6094C197.487 14.9167 197.781 15.1536 198.125 15.3203C198.474 15.487 198.867 15.5703 199.305 15.5703C199.607 15.5703 199.891 15.5365 200.156 15.4688C200.427 15.3958 200.672 15.2969 200.891 15.1719C201.109 15.0469 201.305 14.901 201.477 14.7344C201.648 14.5625 201.794 14.3776 201.914 14.1797L202.008 14.2266L201.43 15.6172C201.148 15.763 200.812 15.888 200.422 15.9922C200.031 16.0911 199.562 16.1406 199.016 16.1406ZM197.977 11.375C198.497 11.375 199.018 11.375 199.539 11.375C200.065 11.3698 200.542 11.3594 200.969 11.3438C200.922 10.8906 200.833 10.4844 200.703 10.125C200.573 9.76562 200.406 9.46094 200.203 9.21094C200 8.96094 199.76 8.76823 199.484 8.63281C199.208 8.4974 198.904 8.42969 198.57 8.42969C198.268 8.42969 197.99 8.4974 197.734 8.63281C197.484 8.76302 197.266 8.95312 197.078 9.20312C196.891 9.45312 196.74 9.76042 196.625 10.125C196.51 10.4844 196.443 10.8958 196.422 11.3594C196.656 11.3698 196.904 11.375 197.164 11.375C197.424 11.375 197.695 11.375 197.977 11.375ZM209.461 8.71875L211.547 13.9688L213.289 9.61719C213.326 9.52344 213.367 9.41927 213.414 9.30469C213.461 9.1849 213.503 9.0651 213.539 8.94531C213.576 8.82031 213.607 8.70312 213.633 8.59375C213.659 8.47917 213.672 8.3776 213.672 8.28906C213.672 8.22135 213.667 8.16667 213.656 8.125C213.646 8.07812 213.635 8.04688 213.625 8.03125V8H215.031V8.03125C214.938 8.13021 214.823 8.29427 214.688 8.52344C214.557 8.7474 214.401 9.07552 214.219 9.50781L211.445 16.1094H211L208.984 11.2188L206.969 16.1094H206.523L203.961 9.89062C203.867 9.66146 203.766 9.44271 203.656 9.23438C203.552 9.02083 203.451 8.83073 203.352 8.66406C203.258 8.4974 203.174 8.35938 203.102 8.25C203.029 8.13542 202.979 8.0625 202.953 8.03125V8H205.031V8.03125C205.021 8.05729 205.013 8.09635 205.008 8.14844C205.003 8.20052 205 8.2474 205 8.28906C205 8.45052 205.023 8.63021 205.07 8.82812C205.122 9.02083 205.206 9.26302 205.32 9.55469L207.062 13.9688L209.164 8.71875H209.461ZM219.734 9.57031L219.625 9.58594C219.589 9.46615 219.529 9.33854 219.445 9.20312C219.367 9.06771 219.263 8.94271 219.133 8.82812C219.008 8.71354 218.854 8.61979 218.672 8.54688C218.495 8.46875 218.289 8.42969 218.055 8.42969C217.893 8.42969 217.74 8.45312 217.594 8.5C217.453 8.54688 217.328 8.61719 217.219 8.71094C217.115 8.79948 217.031 8.91146 216.969 9.04688C216.906 9.18229 216.875 9.34115 216.875 9.52344C216.875 9.77865 216.953 10.0234 217.109 10.2578C217.271 10.487 217.471 10.7161 217.711 10.9453C217.951 11.1693 218.208 11.3958 218.484 11.625C218.766 11.8542 219.026 12.0938 219.266 12.3438C219.505 12.5938 219.703 12.862 219.859 13.1484C220.021 13.4297 220.102 13.7344 220.102 14.0625C220.102 14.3281 220.055 14.5885 219.961 14.8438C219.867 15.0938 219.721 15.3177 219.523 15.5156C219.331 15.7135 219.081 15.875 218.773 16C218.471 16.1198 218.109 16.1797 217.688 16.1797C217.438 16.1797 217.203 16.1562 216.984 16.1094C216.771 16.0625 216.573 16.0052 216.391 15.9375C216.214 15.8646 216.052 15.7865 215.906 15.7031C215.766 15.6146 215.641 15.5312 215.531 15.4531L215.609 13.9688H215.734C215.786 14.2135 215.865 14.4375 215.969 14.6406C216.073 14.8438 216.201 15.0182 216.352 15.1641C216.508 15.3047 216.685 15.4167 216.883 15.5C217.081 15.5781 217.297 15.6172 217.531 15.6172C217.917 15.6172 218.221 15.5104 218.445 15.2969C218.674 15.0833 218.789 14.8047 218.789 14.4609C218.789 14.1849 218.711 13.9323 218.555 13.7031C218.404 13.4688 218.211 13.2448 217.977 13.0312C217.742 12.8177 217.49 12.6042 217.219 12.3906C216.953 12.1771 216.703 11.9505 216.469 11.7109C216.234 11.4661 216.039 11.2005 215.883 10.9141C215.732 10.6224 215.656 10.2917 215.656 9.92188C215.656 9.61979 215.711 9.34375 215.82 9.09375C215.935 8.83854 216.091 8.6224 216.289 8.44531C216.492 8.26302 216.732 8.1224 217.008 8.02344C217.284 7.92448 217.586 7.875 217.914 7.875C218.346 7.875 218.706 7.92188 218.992 8.01562C219.284 8.10417 219.505 8.1901 219.656 8.27344L219.734 9.57031Z" fill="black"/>
<defs>
<radialGradient id="paint0_radial_117_506" cx="0" cy="0" r="1" gradientUnits="userSpaceOnUse" gradientTransform="translate(3.38319 20.2309) scale(20.829 20.8142)">
<stop offset="0.35" stop-color="#FFC200"/>
<stop offset="0.51" stop-color="#FFBC06"/>
<stop offset="0.72" stop-color="#FFAE18"/>
<stop offset="0.98" stop-color="#FF9736"/>
<stop offset="1" stop-color="#FF953A"/>
</radialGradient>
<radialGradient id="paint1_radial_117_506" cx="0" cy="0" r="1" gradientUnits="userSpaceOnUse" gradientTransform="translate(1.79874 25.3932) scale(30.1211 30.0998)">
<stop offset="0.35" stop-color="#FFC200"/>
<stop offset="0.51" stop-color="#FFBC06"/>
<stop offset="0.72" stop-color="#FFAE18"/>
<stop offset="0.98" stop-color="#FF9736"/>
<stop offset="1" stop-color="#FF953A"/>
</radialGradient>
<radialGradient id="paint2_radial_117_506" cx="0" cy="0" r="1" gradientUnits="userSpaceOnUse" gradientTransform="translate(29.3948 1.82465) scale(20.829 20.8142)">
<stop offset="0.35" stop-color="#FFC200"/>
<stop offset="0.51" stop-color="#FFBC06"/>
<stop offset="0.72" stop-color="#FFAE18"/>
<stop offset="0.98" stop-color="#FF9736"/>
<stop offset="1" stop-color="#FF953A"/>
</radialGradient>
<radialGradient id="paint3_radial_117_506" cx="0" cy="0" r="1" gradientUnits="userSpaceOnUse" gradientTransform="translate(27.8106 25.3932) scale(30.1211 30.0998)">
<stop offset="0.35" stop-color="#FFC200"/>
<stop offset="0.51" stop-color="#FFBC06"/>
<stop offset="0.72" stop-color="#FFAE18"/>
<stop offset="0.98" stop-color="#FF9736"/>
<stop offset="1" stop-color="#FF953A"/>
</radialGradient>
<radialGradient id="paint4_radial_117_506" cx="0" cy="0" r="1" gradientUnits="userSpaceOnUse" gradientTransform="translate(55.4222 1.82465) scale(20.829 20.8142)">
<stop offset="0.35" stop-color="#FFC200"/>
<stop offset="0.51" stop-color="#FFBC06"/>
<stop offset="0.72" stop-color="#FFAE18"/>
<stop offset="0.98" stop-color="#FF9736"/>
<stop offset="1" stop-color="#FF953A"/>
</radialGradient>
<radialGradient id="paint5_radial_117_506" cx="0" cy="0" r="1" gradientUnits="userSpaceOnUse" gradientTransform="translate(53.8378 25.3932) scale(30.1211 30.0998)">
<stop offset="0.35" stop-color="#FFC200"/>
<stop offset="0.51" stop-color="#FFBC06"/>
<stop offset="0.72" stop-color="#FFAE18"/>
<stop offset="0.98" stop-color="#FF9736"/>
<stop offset="1" stop-color="#FF953A"/>
</radialGradient>
<radialGradient id="paint6_radial_117_506" cx="0" cy="0" r="1" gradientUnits="userSpaceOnUse" gradientTransform="translate(81.4339 1.82465) scale(20.829 20.8142)">
<stop offset="0.35" stop-color="#FFC200"/>
<stop offset="0.51" stop-color="#FFBC06"/>
<stop offset="0.72" stop-color="#FFAE18"/>
<stop offset="0.98" stop-color="#FF9736"/>
<stop offset="1" stop-color="#FF953A"/>
</radialGradient>
<radialGradient id="paint7_radial_117_506" cx="0" cy="0" r="1" gradientUnits="userSpaceOnUse" gradientTransform="translate(79.8496 25.3932) scale(30.1211 30.0998)">
<stop offset="0.35" stop-color="#FFC200"/>
<stop offset="0.51" stop-color="#FFBC06"/>
<stop offset="0.72" stop-color="#FFAE18"/>
<stop offset="0.98" stop-color="#FF9736"/>
<stop offset="1" stop-color="#FF953A"/>
</radialGradient>
<radialGradient id="paint8_radial_117_506" cx="0" cy="0" r="1" gradientUnits="userSpaceOnUse" gradientTransform="translate(107.462 1.82465) scale(20.829 20.8142)">
<stop offset="0.35" stop-color="#FFC200"/>
<stop offset="0.51" stop-color="#FFBC06"/>
<stop offset="0.72" stop-color="#FFAE18"/>
<stop offset="0.98" stop-color="#FF9736"/>
<stop offset="1" stop-color="#FF953A"/>
</radialGradient>
<radialGradient id="paint9_radial_117_506" cx="0" cy="0" r="1" gradientUnits="userSpaceOnUse" gradientTransform="translate(105.878 25.3932) scale(30.1211 30.0998)">
<stop offset="0.35" stop-color="#FFC200"/>
<stop offset="0.51" stop-color="#FFBC06"/>
<stop offset="0.72" stop-color="#FFAE18"/>
<stop offset="0.98" stop-color="#FF9736"/>
<stop offset="1" stop-color="#FF953A"/>
</radialGradient>
<radialGradient id="paint10_radial_117_506" cx="0" cy="0" r="1" gradientUnits="userSpaceOnUse" gradientTransform="translate(107.463 20.2309) scale(20.829 20.8142)">
<stop offset="0.35" stop-color="#DBDBDB"/>
<stop offset="0.55" stop-color="#D4D4D4"/>
<stop offset="0.82" stop-color="#C2C2C2"/>
<stop offset="0.99" stop-color="#B3B3B3"/>
</radialGradient>
<radialGradient id="paint11_radial_117_506" cx="0" cy="0" r="1" gradientUnits="userSpaceOnUse" gradientTransform="translate(105.878 25.3932) scale(30.1211 30.0998)">
<stop offset="0.35" stop-color="#DBDBDB"/>
<stop offset="0.55" stop-color="#D4D4D4"/>
<stop offset="0.82" stop-color="#C2C2C2"/>
<stop offset="0.99" stop-color="#B3B3B3"/>
</radialGradient>
<clipPath id="clip0_117_506">
<rect width="124" height="19" fill="white" transform="translate(0 1)"/>
</clipPath>
</defs>
</svg>
