<svg width="1920" height="143" viewBox="0 0 1920 143" fill="none" xmlns="http://www.w3.org/2000/svg">
<rect width="1920" height="143" fill="#0E343D"/>
<path d="M1138.01 74.6459C1136.88 74.32 1135.39 74.3739 1133.55 74.8089C1131.71 75.2439 1129.79 75.9054 1127.78 76.7926C1125.78 77.6806 1123.83 78.7487 1121.93 79.9992C1120.03 81.2489 1118.49 82.545 1117.28 83.8845C1116.52 84.7179 1115.86 85.5782 1115.31 86.4654C1114.77 87.3534 1114.37 88.1868 1114.11 88.9649C1113.86 89.7437 1113.75 90.4591 1113.78 91.1116C1113.82 91.7641 1114.02 92.2709 1114.39 92.6334C1114.71 93.0318 1115.51 93.1499 1116.76 92.9869C1118.02 92.824 1119.52 92.4794 1121.25 91.9547C1122.98 91.4292 1124.82 90.7498 1126.77 89.9171C1128.72 89.0845 1130.57 88.1778 1132.32 87.2002C1133.78 86.3309 1135.14 85.4339 1136.42 84.5101C1137.7 83.5862 1138.85 82.6541 1139.89 81.7116C1140.93 80.7698 1141.84 79.828 1142.6 78.8855C1143.37 77.9437 1143.97 77.0378 1144.41 76.1685C1144.7 75.5526 1144.9 74.9726 1145.01 74.4292C1145.12 73.8858 1145.12 73.4874 1145.01 73.2332C1144.9 73.0524 1144.36 72.7631 1143.39 72.364C1142.43 71.9656 1141.16 71.5134 1139.59 71.0051C1137.19 70.209 1135.22 69.5296 1133.69 68.9675C1132.16 68.4062 1130.9 67.8994 1129.91 67.4457C1128.93 66.9935 1128.12 66.5405 1127.48 66.0868C1126.84 65.6346 1126.23 65.1181 1125.65 64.5381C1125.21 64.1031 1124.86 63.7227 1124.58 63.3968C1124.31 63.0709 1124.09 62.7719 1123.93 62.4998C1123.76 62.2285 1123.65 61.9564 1123.57 61.6851C1123.5 61.413 1123.46 61.0968 1123.46 60.7343C1123.39 59.3583 1124.35 57.8454 1126.33 56.1965C1128.32 54.5484 1131.19 52.8913 1134.95 51.2245C1139.79 49.0868 1144.09 48.0179 1147.85 48.0179C1148.76 47.982 1149.39 48 1149.73 48.0725C1150.08 48.1457 1150.47 48.272 1150.91 48.4529C1151.6 48.8154 1152.13 49.3222 1152.49 49.9747C1152.79 50.3739 1152.95 50.6729 1152.99 50.8717C1153.02 51.0713 1152.99 51.4069 1152.88 51.877C1152.77 52.5288 1152.44 53.2179 1151.89 53.9422C1151.64 54.2681 1151.25 54.7121 1150.74 55.2734C1150.23 55.8355 1149.66 56.4148 1149.02 57.0128C1148.38 57.6107 1147.74 58.2177 1147.08 58.8336C1146.43 59.4502 1145.82 59.9749 1145.28 60.4092C1144.66 60.9167 1144.21 61.2605 1143.94 61.4414C1143.66 61.6231 1143.4 61.6956 1143.14 61.6589C1142.89 61.6231 1142.72 61.5506 1142.63 61.4414C1142.53 61.333 1142.56 61.1424 1142.71 60.8711C1142.85 60.599 1143.13 60.2283 1143.53 59.7574C1143.93 59.2873 1144.49 58.6527 1145.22 57.8551C1146.86 56.1158 1148.12 54.7218 1149 53.6709C1149.87 52.6207 1150.27 52.0594 1150.2 51.9861C1150.16 51.9503 1149.96 51.9682 1149.6 52.0407C1149.23 52.114 1148.77 52.2134 1148.2 52.3397C1147.64 52.4668 1147.02 52.6207 1146.34 52.8016C1145.67 52.9832 1145 53.1821 1144.35 53.3996C1143.18 53.7987 1141.89 54.3055 1140.47 54.9214C1139.04 55.538 1137.65 56.1808 1136.28 56.8506C1134.92 57.5218 1133.66 58.1915 1132.51 58.8612C1131.36 59.5317 1130.46 60.1207 1129.8 60.6274C1128.96 61.3525 1128.43 61.9041 1128.19 62.2853C1127.95 62.6658 1127.98 62.9647 1128.27 63.1822C1128.56 63.3639 1129.49 63.7346 1131.06 64.2959C1132.63 64.858 1134.6 65.5008 1136.97 66.2251C1139.66 67.131 1141.81 67.9644 1143.42 68.7246C1145.02 69.4855 1146.3 70.3189 1147.25 71.2241C1148.26 72.1666 1148.96 73.0449 1149.32 73.8596C1149.69 74.6751 1149.85 75.6625 1149.81 76.821C1149.74 78.2703 1149.42 79.5926 1148.86 80.7878C1148.29 81.9829 1147.43 83.2155 1146.26 84.4832C1143.6 87.3085 1139.92 89.7355 1135.22 91.7649C1131.17 93.5034 1127.45 94.7173 1124.06 95.4057C1120.67 96.0934 1117.79 96.1845 1115.42 95.6778C1114.55 95.4961 1113.63 95.1889 1112.66 94.7539C1111.69 94.3189 1110.96 93.8846 1110.45 93.4496C1109.61 92.6887 1109.13 91.7379 1109.02 90.5966C1108.92 89.4552 1109.17 88.269 1109.79 87.0372C1110.37 85.9145 1111.14 84.8008 1112.09 83.6953C1113.03 82.5906 1114.11 81.5487 1115.31 80.571C1116.52 79.5926 1117.83 78.6874 1119.25 77.854C1120.67 77.0213 1122.15 76.3142 1123.68 75.735C1124.19 75.5175 1124.85 75.282 1125.67 75.0286C1126.5 74.7752 1127.36 74.5219 1128.27 74.2677C1129.18 74.0143 1130.08 73.7976 1130.95 73.6152C1131.83 73.4343 1132.55 73.2893 1133.14 73.1802C1134.67 72.9275 1135.93 72.9088 1136.94 73.1256C1137.94 73.3431 1138.48 73.7423 1138.55 74.3215C1138.55 74.5757 1138.52 74.711 1138.47 74.7289C1138.41 74.7476 1138.26 74.7207 1138 74.6474L1138.01 74.6459Z" fill="white"/>
<path d="M1159.97 82.535C1160.04 81.9489 1160.07 81.4544 1160.05 81.0506C1160.04 80.6475 1159.99 80.4827 1159.92 80.556C1159.88 80.6302 1159.71 80.9682 1159.4 81.5731C1159.1 82.1781 1158.74 82.9017 1158.35 83.7449C1157.48 85.5408 1156.78 86.7878 1156.26 87.4835C1155.74 88.1799 1155.24 88.62 1154.77 88.803C1154.01 88.9868 1153.21 88.8303 1152.36 88.3357C1151.51 87.8412 1150.89 87.1175 1150.49 86.1639C1150.16 85.3941 1150 84.4413 1150 83.3055C1150 82.1698 1150.14 80.8956 1150.41 79.4845C1150.68 78.0742 1151.08 76.5709 1151.63 74.9761C1152.17 73.3821 1152.84 71.7601 1153.63 70.1108C1154.5 68.2786 1155.36 66.776 1156.21 65.6024C1157.05 64.4296 1157.89 63.532 1158.73 62.9081C1159.56 62.285 1160.33 61.9833 1161.03 62.0007C1161.73 62.0196 1162.57 62.3584 1163.55 63.0178C1164.78 63.7513 1165.53 64.4387 1165.8 65.0792C1166.07 65.7212 1165.75 66.1333 1164.85 66.3163C1164.42 66.3904 1163.88 66.8207 1163.23 67.6086C1162.58 68.3973 1161.87 69.4144 1161.11 70.6598C1160.35 71.906 1159.58 73.3261 1158.78 74.9209C1157.99 76.515 1157.26 78.1741 1156.61 79.8967C1156.14 81.0703 1155.86 81.8401 1155.77 82.2061C1155.68 82.5728 1155.83 82.4722 1156.21 81.9036C1156.59 81.3357 1157.23 80.2543 1158.13 78.6595C1159.03 77.0655 1160.23 74.9126 1161.71 72.1994C1162 71.7964 1162.27 71.292 1162.52 70.6878C1162.77 70.0828 1162.99 69.5611 1163.17 69.121C1163.46 68.2052 1163.79 67.6094 1164.15 67.3341C1164.51 67.0596 1165 67.0687 1165.61 67.3613C1166.91 67.8014 1167.65 68.4245 1167.83 69.2306C1167.91 69.4507 1167.94 69.6979 1167.94 69.9732C1167.94 70.2485 1167.9 70.7067 1167.81 71.3479C1167.72 71.99 1167.55 72.9065 1167.32 74.0967C1167.08 75.2884 1166.75 76.9279 1166.32 79.0172C1166.13 79.8241 1165.98 80.5939 1165.85 81.3266C1165.73 82.0601 1165.61 82.7203 1165.5 83.3055C1165.39 83.8924 1165.31 84.3597 1165.26 84.7075C1165.2 85.0561 1165.18 85.249 1165.18 85.2845C1165.18 85.3941 1165.3 85.2293 1165.56 84.7899C1165.81 84.3498 1166.13 83.7366 1166.5 82.9486C1166.88 82.1607 1167.3 81.2442 1167.75 80.1999C1168.2 79.1556 1168.65 78.1022 1169.11 77.0383C1169.56 75.9758 1169.98 74.9489 1170.38 73.9598C1170.78 72.97 1171.1 72.1094 1171.36 71.3759C1171.64 70.5335 1171.89 69.974 1172.09 69.6987C1172.29 69.4242 1172.51 69.3607 1172.77 69.5066C1172.87 69.5807 1172.95 69.7085 1172.98 69.8915C1173.02 70.0753 1173 70.405 1172.93 70.8814C1172.85 71.4682 1172.62 72.4399 1172.22 73.795C1171.83 75.1516 1171.35 76.6178 1170.79 78.193C1170.23 79.7689 1169.64 81.3266 1169.03 82.8662C1168.41 84.4058 1167.85 85.6702 1167.34 86.66C1165.86 89.6288 1164.27 90.6186 1162.58 89.6288C1161.56 89.0057 1160.85 88.1361 1160.43 87.0177C1160.02 85.9 1159.87 84.4066 1159.97 82.5373L1159.97 82.535Z" fill="white"/>
<path d="M1174.24 84.4064C1174.21 84.8071 1174.17 85.225 1174.14 85.661C1174.1 86.0977 1174.06 86.4436 1174.03 86.6972L1173.86 87.6247L1174.57 86.8608C1175.08 86.2425 1175.74 85.1147 1176.54 83.4782C1177.34 81.8416 1178.29 79.7136 1179.38 77.0955C1180.04 75.5325 1180.6 74.2044 1181.07 73.1133C1181.55 72.0223 1181.95 71.1496 1182.28 70.4945C1182.6 69.8402 1182.87 69.3855 1183.07 69.1304C1183.27 68.876 1183.44 68.7672 1183.59 68.8032C1184.02 68.8767 1184.11 69.4493 1183.86 70.5215C1183.6 71.5946 1183.11 73.0585 1182.38 74.9135C1181.84 76.3316 1181.26 77.7416 1180.66 79.1418C1180.06 80.542 1179.46 81.8971 1178.86 83.2058C1178.26 84.5152 1177.67 85.7428 1177.09 86.8878C1176.5 88.0336 1175.96 89.0249 1175.45 89.8608C1175.08 90.4423 1174.78 90.8881 1174.55 91.1972C1174.31 91.5056 1174.08 91.724 1173.86 91.8515C1173.64 91.9783 1173.41 92.0241 1173.15 91.9881C1172.9 91.9513 1172.59 91.8425 1172.22 91.6609C1170.77 91.0066 1169.86 90.0792 1169.49 88.8786C1169.38 88.6242 1169.29 88.3698 1169.22 88.1147C1169.15 87.8603 1169.1 87.5609 1169.08 87.2142C1169.06 86.8691 1169.05 86.4324 1169.03 85.9049C1169.01 85.3781 1169 84.714 1169 83.9134C1169 82.8591 1169.03 81.8949 1169.08 81.0222C1169.14 80.1495 1169.25 79.2408 1169.41 78.2946C1169.57 77.3491 1169.78 76.2859 1170.04 75.1033C1170.29 73.9215 1170.64 72.4763 1171.08 70.7662C1171.4 69.4935 1171.79 68.1391 1172.22 66.7022C1172.66 65.266 1173.11 63.838 1173.56 62.4198C1174.02 61.0016 1174.47 59.6374 1174.93 58.328C1175.38 57.0187 1175.8 55.8548 1176.18 54.8366C1176.57 53.8191 1176.9 52.9817 1177.19 52.3273C1177.48 51.673 1177.7 51.2911 1177.85 51.1815C1178.07 50.9999 1178.37 50.9549 1178.75 51.045C1179.13 51.1358 1179.52 51.3181 1179.9 51.5905C1180.28 51.8629 1180.66 52.1998 1181.05 52.5997C1181.43 53.0004 1181.73 53.4184 1181.95 53.8543C1182.31 54.5094 1182.36 55.1555 1182.08 55.7911C1181.81 56.4281 1181.55 57.0734 1181.29 57.7278C1180.56 59.765 1179.81 62.1017 1179.03 64.7377C1178.24 67.3752 1177.51 69.9663 1176.84 72.5115C1176.17 75.0575 1175.59 77.4039 1175.12 79.5492C1174.65 81.6953 1174.35 83.3138 1174.25 84.4049L1174.24 84.4064Z" fill="white"/>
<path d="M1194.4 69.658C1194.86 69.7676 1195.06 70.1254 1194.99 70.7306C1194.91 71.3358 1194.53 72.5733 1193.82 74.4432C1193.26 75.91 1192.66 77.3677 1192.05 78.8155C1191.43 80.2641 1190.81 81.6575 1190.19 82.9957C1189.57 84.3346 1188.97 85.5804 1188.37 86.7355C1187.77 87.8906 1187.2 88.9081 1186.67 89.7878C1186.28 90.374 1185.97 90.8325 1185.72 91.163C1185.47 91.4928 1185.23 91.7213 1185 91.8506C1184.77 91.9785 1184.53 92.0239 1184.26 91.9883C1184 91.9512 1183.69 91.8416 1183.34 91.6585C1181.82 90.9618 1180.87 90.0087 1180.48 88.7984C1180.37 88.5056 1180.28 88.2303 1180.21 87.9731C1180.14 87.7174 1180.1 87.405 1180.08 87.0381C1180.06 86.672 1180.04 86.2227 1180.03 85.6909C1180.01 85.1598 1180 84.4722 1180 83.6288C1180 82.566 1180.03 81.594 1180.08 80.7142C1180.13 79.8345 1180.24 78.9086 1180.4 77.9365C1180.56 76.9652 1180.78 75.8654 1181.06 74.6369C1181.34 73.4092 1181.73 71.9333 1182.22 70.2094C1182.44 69.2192 1182.64 68.3493 1182.83 67.5974C1183.03 66.8462 1183.12 66.434 1183.12 66.3598C1183.12 66.3235 1183.02 66.2963 1182.81 66.2774C1182.59 66.2592 1182.35 66.2691 1182.06 66.3046C1181.64 66.3417 1181.34 66.3319 1181.16 66.2774C1180.99 66.2222 1180.85 66.0671 1180.74 65.8099C1180.67 65.6639 1180.62 65.4521 1180.58 65.1775C1180.55 64.9029 1180.55 64.6737 1180.58 64.4899C1180.62 64.1238 1180.71 63.8946 1180.87 63.8023C1181.03 63.7115 1181.55 63.6094 1182.44 63.4997L1184.13 63.3348L1184.92 60.75C1185.21 59.8703 1185.57 58.8347 1186.01 57.6425C1186.45 56.4519 1186.88 55.3149 1187.31 54.2325C1187.73 53.1515 1188.12 52.2165 1188.47 51.4275C1188.82 50.6393 1189.05 50.2089 1189.16 50.1348C1189.37 49.9888 1189.67 49.9616 1190.06 50.0523C1190.45 50.1439 1190.84 50.3269 1191.22 50.6023C1191.61 50.8776 1192 51.2165 1192.39 51.6197C1192.78 52.0236 1193.08 52.445 1193.29 52.8845C1193.68 53.5812 1193.73 54.2506 1193.45 54.8921C1193.17 55.5343 1192.92 56.1849 1192.71 56.8445C1192.07 58.5684 1191.58 59.989 1191.22 61.1071C1190.87 62.2258 1190.7 62.8764 1190.7 63.0595C1190.7 63.2425 1191.01 63.3348 1191.65 63.3348C1192.11 63.3348 1192.49 63.4362 1192.79 63.6374C1193.09 63.8394 1193.24 64.1238 1193.24 64.4899C1193.24 64.856 1192.5 65.1503 1191.01 65.3696C1190.27 65.5164 1189.85 65.7365 1189.74 66.03C1189.53 66.6541 1189.28 67.4877 1189 68.5324C1188.72 69.577 1188.42 70.7049 1188.1 71.9144C1187.78 73.124 1187.47 74.3714 1187.15 75.6543C1186.83 76.938 1186.55 78.1483 1186.3 79.2838C1186.05 80.4207 1185.85 81.42 1185.69 82.2808C1185.53 83.1424 1185.44 83.7755 1185.4 84.178C1185.36 84.5819 1185.33 85.0123 1185.29 85.47C1185.26 85.9292 1185.22 86.2673 1185.19 86.4874L1185.03 87.4776L1185.67 86.6531C1186.76 85.4072 1188.45 82.0887 1190.75 76.699C1191.42 75.0862 1191.97 73.8033 1192.39 72.8494C1192.81 71.8963 1193.15 71.1814 1193.4 70.7049C1193.64 70.2291 1193.84 69.9265 1193.98 69.7971C1194.12 69.6693 1194.26 69.6232 1194.4 69.6595L1194.4 69.658Z" fill="white"/>
<path d="M1194.51 88.5655C1194.03 88.2761 1193.66 87.9493 1193.39 87.5866C1193.11 87.2247 1192.85 86.7169 1192.6 86.064C1192.09 84.8683 1191.9 83.0735 1192.05 80.6812C1192.19 78.2889 1192.65 75.4442 1193.42 72.1448C1193.6 71.2751 1193.84 70.3059 1194.13 69.2358C1194.42 68.1671 1194.73 67.1516 1195.06 66.1914C1195.38 65.2312 1195.69 64.3794 1195.99 63.6361C1196.28 62.8935 1196.51 62.4126 1196.7 62.195C1196.91 61.9415 1197.21 61.8062 1197.57 61.7875C1197.93 61.7695 1198.34 61.842 1198.77 62.0051C1199.21 62.1681 1199.66 62.4313 1200.11 62.7933C1200.57 63.156 1200.98 63.5733 1201.34 64.0436C1201.52 64.2254 1201.65 64.3974 1201.73 64.5604C1201.8 64.7234 1201.8 65.0412 1201.73 65.5116C1201.65 65.9827 1201.5 66.6722 1201.26 67.5779C1201.02 68.4842 1200.67 69.7712 1200.19 71.4381C1200.01 72.1635 1199.82 72.9061 1199.62 73.6674C1199.42 74.4287 1199.24 75.1623 1199.07 75.8697C1198.91 76.5764 1198.75 77.2203 1198.61 77.7998C1198.46 78.3802 1198.37 78.8326 1198.34 79.1594C1198.19 79.9573 1198.07 80.7276 1197.98 81.4702C1197.89 82.2135 1197.82 82.8656 1197.76 83.4272C1197.71 83.9896 1197.68 84.442 1197.68 84.7868C1197.68 85.1315 1197.71 85.3035 1197.79 85.3035C1197.93 85.3035 1198.21 84.8959 1198.61 84.0801C1199.01 83.2649 1199.43 82.295 1199.87 81.171C1200.3 80.0478 1200.71 78.879 1201.1 77.6645C1201.48 76.4508 1201.76 75.4622 1201.94 74.7016C1202.05 74.0854 1202.2 73.4333 1202.38 72.7446C1202.56 72.0566 1202.74 71.4217 1202.93 70.8414C1203.11 70.2618 1203.28 69.763 1203.45 69.3465C1203.61 68.9299 1203.75 68.6854 1203.86 68.6128C1204.33 68.1776 1205.02 68.0512 1205.94 68.2322C1206.85 68.4139 1207.59 68.8125 1208.18 69.428C1208.61 69.8632 1208.76 70.3441 1208.61 70.869C1208.47 71.3947 1208.32 72.0199 1208.18 72.7446C1207.89 74.3038 1207.63 75.8353 1207.41 77.3392C1207.19 78.8438 1207.03 80.1936 1206.92 81.3894C1206.81 82.5859 1206.76 83.5558 1206.78 84.2984C1206.8 85.0418 1206.9 85.4493 1207.08 85.5219C1207.23 85.5585 1207.46 85.3678 1207.77 84.9513C1208.08 84.5347 1208.42 84.0001 1208.81 83.3472C1209.19 82.6951 1209.58 81.9607 1209.98 81.1449C1210.38 80.3297 1210.73 79.5408 1211.02 78.7795L1211.46 77.4745L1210.69 76.6587C1210.07 76.0066 1209.65 75.2722 1209.43 74.4563C1209.22 73.6412 1209.11 72.5449 1209.11 71.1674C1209.11 69.7899 1209.2 68.5941 1209.38 67.4702C1209.56 66.3469 1209.89 65.1691 1210.36 63.936C1210.77 62.8853 1211.18 62.133 1211.62 61.6798C1212.06 61.2266 1212.59 61 1213.21 61C1213.68 61 1214.13 61.1361 1214.55 61.4076C1214.97 61.6798 1215.27 62.0148 1215.45 62.4134C1215.48 62.5585 1215.52 62.8576 1215.56 63.3108C1215.59 63.7647 1215.61 64.2269 1215.61 64.6972C1215.61 65.1676 1215.57 65.8392 1215.48 66.7089C1215.38 67.5786 1215.28 68.4947 1215.15 69.4549C1215.02 70.4158 1214.88 71.3304 1214.71 72.2009C1214.55 73.0706 1214.41 73.7235 1214.3 74.1579C1214.12 74.7383 1214.04 75.0912 1214.08 75.2184C1214.12 75.3455 1214.28 75.3186 1214.57 75.1368C1214.97 74.9925 1215.48 74.5027 1216.1 73.6689C1216.72 72.8358 1217.34 71.8389 1217.96 70.6783C1219.02 68.903 1219.69 68.3227 1219.99 68.9381C1220.02 69.0832 1219.99 69.3554 1219.88 69.754C1219.77 70.1534 1219.59 70.6237 1219.33 71.1674C1219.08 71.7111 1218.78 72.2817 1218.46 72.8799C1218.13 73.4782 1217.78 74.0488 1217.42 74.5924C1216.72 75.6439 1216.06 76.45 1215.42 77.0116C1214.78 77.574 1214.21 77.8544 1213.7 77.8544C1213.59 77.8544 1213.48 77.8911 1213.37 77.9629C1213.26 78.0362 1213.14 78.1895 1213.02 78.425C1212.89 78.6613 1212.73 79.0143 1212.55 79.4854C1212.37 79.9573 1212.13 80.5728 1211.84 81.3341C1211.26 82.8207 1210.75 84.0345 1210.31 84.9767C1209.87 85.9197 1209.43 86.6541 1209 87.179C1208.56 87.7048 1208.12 88.0585 1207.68 88.2395C1207.25 88.4212 1206.74 88.4758 1206.15 88.4025C1204.99 88.1849 1204.07 87.7227 1203.39 87.016C1202.72 86.3093 1202.18 85.231 1201.78 83.7809L1201.34 82.5306L1200.58 84.5422C1200.32 85.1592 1200.04 85.7844 1199.73 86.4178C1199.42 87.0527 1199.14 87.532 1198.88 87.8588C1198.63 88.149 1198.42 88.3666 1198.28 88.5109C1198.13 88.6553 1197.98 88.7644 1197.81 88.837C1197.65 88.9088 1197.48 88.9544 1197.3 88.9731C1197.11 88.991 1196.88 89 1196.58 89C1196.18 89 1195.78 88.9544 1195.38 88.8639C1194.98 88.7727 1194.69 88.6732 1194.51 88.5648L1194.51 88.5655ZM1213.53 65.0233C1213.21 65.8571 1212.94 66.8442 1212.74 67.9862C1212.54 69.1281 1212.44 70.2244 1212.44 71.2758L1212.5 73.1245L1212.82 71.9825C1212.9 71.6931 1213.02 71.1854 1213.18 70.46C1213.34 69.7353 1213.46 69.0107 1213.53 68.2853C1213.68 67.5607 1213.79 66.8719 1213.86 66.2191C1213.94 65.567 1213.97 65.0958 1213.97 64.8057V63.9898L1213.53 65.0225L1213.53 65.0233Z" fill="white"/>
<path d="M1223.97 82.535C1224.04 81.9489 1224.07 81.4544 1224.05 81.0506C1224.04 80.6475 1223.99 80.4827 1223.92 80.556C1223.88 80.6302 1223.71 80.9682 1223.4 81.5731C1223.1 82.1781 1222.74 82.9017 1222.35 83.7449C1221.48 85.5408 1220.78 86.7878 1220.26 87.4835C1219.74 88.1799 1219.24 88.62 1218.77 88.803C1218.01 88.9868 1217.21 88.8303 1216.36 88.3357C1215.51 87.8412 1214.89 87.1175 1214.49 86.1639C1214.16 85.3941 1214 84.4413 1214 83.3055C1214 82.1698 1214.14 80.8956 1214.41 79.4845C1214.68 78.0742 1215.08 76.5709 1215.63 74.9761C1216.17 73.3821 1216.84 71.7601 1217.63 70.1108C1218.5 68.2786 1219.36 66.776 1220.21 65.6024C1221.05 64.4296 1221.89 63.532 1222.73 62.9081C1223.56 62.285 1224.33 61.9833 1225.03 62.0007C1225.73 62.0196 1226.57 62.3584 1227.55 63.0178C1228.78 63.7513 1229.53 64.4387 1229.8 65.0792C1230.07 65.7212 1229.75 66.1333 1228.85 66.3163C1228.42 66.3904 1227.88 66.8207 1227.23 67.6086C1226.58 68.3973 1225.87 69.4144 1225.11 70.6598C1224.35 71.906 1223.58 73.3261 1222.78 74.9209C1221.99 76.515 1221.26 78.1741 1220.61 79.8967C1220.14 81.0703 1219.86 81.8401 1219.77 82.2061C1219.68 82.5728 1219.83 82.4722 1220.21 81.9036C1220.59 81.3357 1221.23 80.2543 1222.13 78.6595C1223.03 77.0655 1224.23 74.9126 1225.71 72.1994C1226 71.7964 1226.27 71.292 1226.52 70.6878C1226.77 70.0828 1226.99 69.5611 1227.17 69.121C1227.46 68.2052 1227.79 67.6094 1228.15 67.3341C1228.51 67.0596 1229 67.0687 1229.61 67.3613C1230.91 67.8014 1231.65 68.4245 1231.83 69.2306C1231.91 69.4507 1231.94 69.6979 1231.94 69.9732C1231.94 70.2485 1231.9 70.7067 1231.81 71.3479C1231.72 71.99 1231.55 72.9065 1231.32 74.0967C1231.08 75.2884 1230.75 76.9279 1230.32 79.0172C1230.13 79.8241 1229.98 80.5939 1229.85 81.3266C1229.73 82.0601 1229.61 82.7203 1229.5 83.3055C1229.39 83.8924 1229.31 84.3597 1229.26 84.7075C1229.2 85.0561 1229.18 85.249 1229.18 85.2845C1229.18 85.3941 1229.3 85.2293 1229.56 84.7899C1229.81 84.3498 1230.13 83.7366 1230.5 82.9486C1230.88 82.1607 1231.3 81.2442 1231.75 80.1999C1232.2 79.1556 1232.65 78.1022 1233.11 77.0383C1233.56 75.9758 1233.98 74.9489 1234.38 73.9598C1234.78 72.97 1235.1 72.1094 1235.36 71.3759C1235.64 70.5335 1235.89 69.974 1236.09 69.6987C1236.29 69.4242 1236.51 69.3607 1236.77 69.5066C1236.87 69.5807 1236.95 69.7085 1236.98 69.8915C1237.02 70.0753 1237 70.405 1236.93 70.8814C1236.85 71.4682 1236.62 72.4399 1236.22 73.795C1235.83 75.1516 1235.35 76.6178 1234.79 78.193C1234.23 79.7689 1233.64 81.3266 1233.03 82.8662C1232.41 84.4058 1231.85 85.6702 1231.34 86.66C1229.86 89.6288 1228.27 90.6186 1226.58 89.6288C1225.56 89.0057 1224.85 88.1361 1224.43 87.0177C1224.02 85.9 1223.87 84.4066 1223.97 82.5373L1223.97 82.535Z" fill="white"/>
<path d="M1247.4 69.658C1247.86 69.7676 1248.06 70.1254 1247.99 70.7306C1247.91 71.3358 1247.53 72.5733 1246.82 74.4432C1246.26 75.91 1245.66 77.3677 1245.05 78.8155C1244.43 80.2641 1243.81 81.6575 1243.19 82.9957C1242.58 84.3346 1241.97 85.5804 1241.37 86.7355C1240.77 87.8906 1240.2 88.9081 1239.67 89.7878C1239.28 90.374 1238.97 90.8325 1238.72 91.163C1238.47 91.4928 1238.23 91.7213 1238 91.8506C1237.77 91.9785 1237.53 92.0239 1237.26 91.9883C1237 91.9512 1236.69 91.8416 1236.34 91.6585C1234.82 90.9618 1233.87 90.0087 1233.48 88.7984C1233.37 88.5056 1233.28 88.2303 1233.21 87.9731C1233.14 87.7174 1233.1 87.405 1233.08 87.0381C1233.06 86.672 1233.04 86.2227 1233.03 85.6909C1233.01 85.1598 1233 84.4722 1233 83.6288C1233 82.566 1233.03 81.594 1233.08 80.7142C1233.13 79.8345 1233.24 78.9086 1233.4 77.9365C1233.56 76.9652 1233.78 75.8654 1234.06 74.6369C1234.34 73.4092 1234.73 71.9333 1235.22 70.2094C1235.44 69.2192 1235.64 68.3493 1235.83 67.5974C1236.03 66.8462 1236.12 66.434 1236.12 66.3598C1236.12 66.3235 1236.02 66.2963 1235.81 66.2774C1235.59 66.2592 1235.35 66.2691 1235.06 66.3046C1234.64 66.3417 1234.34 66.3319 1234.16 66.2774C1233.99 66.2222 1233.85 66.0671 1233.74 65.8099C1233.67 65.6639 1233.62 65.4521 1233.58 65.1775C1233.55 64.9029 1233.55 64.6737 1233.58 64.4899C1233.62 64.1238 1233.71 63.8946 1233.87 63.8023C1234.03 63.7115 1234.55 63.6094 1235.44 63.4997L1237.13 63.3348L1237.92 60.75C1238.21 59.8703 1238.57 58.8347 1239.01 57.6425C1239.45 56.4519 1239.88 55.3149 1240.31 54.2325C1240.73 53.1515 1241.12 52.2165 1241.47 51.4275C1241.82 50.6393 1242.05 50.2089 1242.16 50.1348C1242.37 49.9888 1242.67 49.9616 1243.06 50.0523C1243.45 50.1439 1243.84 50.3269 1244.23 50.6023C1244.61 50.8776 1245 51.2165 1245.39 51.6197C1245.78 52.0236 1246.08 52.445 1246.29 52.8845C1246.68 53.5812 1246.73 54.2506 1246.45 54.8921C1246.17 55.5343 1245.92 56.1849 1245.71 56.8445C1245.07 58.5684 1244.58 59.989 1244.23 61.1071C1243.87 62.2258 1243.7 62.8764 1243.7 63.0595C1243.7 63.2425 1244.01 63.3348 1244.65 63.3348C1245.11 63.3348 1245.49 63.4362 1245.79 63.6374C1246.09 63.8394 1246.24 64.1238 1246.24 64.4899C1246.24 64.856 1245.5 65.1503 1244.01 65.3696C1243.27 65.5164 1242.85 65.7365 1242.74 66.03C1242.53 66.6541 1242.28 67.4877 1242 68.5324C1241.72 69.577 1241.42 70.7049 1241.1 71.9144C1240.78 73.124 1240.46 74.3714 1240.15 75.6543C1239.83 76.938 1239.55 78.1483 1239.3 79.2838C1239.05 80.4207 1238.85 81.42 1238.69 82.2808C1238.53 83.1424 1238.43 83.7755 1238.4 84.178C1238.36 84.5819 1238.33 85.0123 1238.29 85.47C1238.26 85.9292 1238.22 86.2673 1238.19 86.4874L1238.03 87.4776L1238.67 86.6531C1239.76 85.4072 1241.45 82.0887 1243.75 76.699C1244.42 75.0862 1244.97 73.8033 1245.39 72.8494C1245.81 71.8963 1246.15 71.1814 1246.4 70.7049C1246.64 70.2291 1246.84 69.9265 1246.98 69.7971C1247.12 69.6693 1247.26 69.6232 1247.4 69.6595L1247.4 69.658Z" fill="white"/>
<path d="M1249.84 78.0032C1249.59 79.0503 1249.42 80.0796 1249.33 81.0894C1249.25 82.1001 1249.22 82.9938 1249.26 83.7698C1249.29 84.5465 1249.39 85.1505 1249.55 85.5832C1249.71 86.0167 1249.93 86.179 1250.21 86.0703C1251.31 85.6018 1252.65 84.3023 1254.24 82.1716C1255.34 80.5838 1256.4 78.8783 1257.4 77.0544C1258.41 75.232 1259.27 73.3821 1259.98 71.5046C1260.44 70.3495 1260.77 69.5467 1260.99 69.0954C1261.2 68.644 1261.39 68.4184 1261.57 68.4184C1261.89 68.4184 1262.03 68.6805 1261.99 69.2033C1261.96 69.7269 1261.71 70.7107 1261.25 72.154C1260.47 74.7174 1259.57 77.073 1258.54 79.2201C1257.52 81.368 1256.44 83.2723 1255.31 84.9323C1254.17 86.6296 1252.99 87.8018 1251.75 88.452C1250.51 89.1014 1249.34 89.1736 1248.25 88.6687C1245.42 87.4056 1244 84.6441 1244 80.3842C1244 78.8679 1244.12 77.4603 1244.37 76.1607C1244.62 74.8612 1245.06 73.327 1245.7 71.5582C1246.16 70.2229 1246.69 68.9412 1247.29 67.7139C1247.89 66.4873 1248.51 65.4044 1249.15 64.4653C1249.79 63.5269 1250.4 62.7598 1251.01 62.164C1251.61 61.5682 1252.16 61.1988 1252.65 61.0544C1252.79 61.0186 1252.93 61 1253.05 61H1253.4C1253.82 61 1254.27 61.0909 1254.75 61.2711C1255.23 61.4521 1255.68 61.677 1256.1 61.9481C1256.53 62.2184 1256.9 62.526 1257.22 62.8686C1257.54 63.2119 1257.75 63.5641 1257.85 63.9246C1258 64.2136 1258.07 64.5658 1258.07 64.9807C1258.07 65.3955 1258 66.0367 1257.85 66.9028C1257.64 68.9606 1257.18 70.7472 1256.47 72.2635C1255.77 73.7798 1254.88 74.917 1253.82 75.6744C1253.32 75.9641 1252.93 76.1347 1252.63 76.189C1252.33 76.2434 1251.93 76.2345 1251.43 76.1622L1250.21 76.0542L1249.84 78.0032ZM1251.75 71.8308C1251.57 72.3365 1251.41 72.7699 1251.27 73.1304C1251.13 73.4916 1251.06 73.7083 1251.06 73.7798C1251.06 73.9965 1251.3 73.8878 1251.78 73.4551C1252.25 73.0216 1252.74 72.4802 1253.24 71.8308C1253.48 71.4703 1253.76 70.9647 1254.06 70.3145C1254.36 69.6651 1254.64 69.0149 1254.91 68.3655C1255.17 67.7161 1255.38 67.1389 1255.52 66.6325C1255.66 66.1276 1255.68 65.8743 1255.57 65.8743H1255.47C1255.29 65.8743 1255.07 66.0464 1254.8 66.389C1254.54 66.7323 1254.23 67.1836 1253.87 67.7429C1253.52 68.3029 1253.16 68.9345 1252.79 69.6383C1252.41 70.3421 1252.07 71.0734 1251.75 71.8308Z" fill="white"/>
<path d="M1261.09 85.6863C1261.09 85.0786 1261.14 84.3912 1261.25 83.622C1261.36 82.8535 1261.54 81.9596 1261.79 80.9411C1262.04 79.9226 1262.36 78.7426 1262.78 77.4026C1263.18 76.0618 1263.71 74.5159 1264.35 72.7643L1264.78 71.5312L1263.82 71.1558C1262.11 70.2266 1260.97 69.0473 1260.42 67.6172C1259.87 66.1879 1259.86 64.311 1260.39 61.9871C1260.75 60.3785 1261.21 59.1454 1261.76 58.287C1262.31 57.4292 1262.93 57 1263.6 57C1263.89 57 1264.24 57.0723 1264.65 57.2146C1265.06 57.3577 1265.47 57.5362 1265.88 57.7508C1266.29 57.9654 1266.66 58.2066 1267 58.4743C1267.34 58.7427 1267.6 59.0023 1267.78 59.2516C1268.03 59.6455 1268.17 59.9759 1268.2 60.2436C1268.24 60.5113 1268.22 60.9678 1268.15 61.6109C1268.08 62.1117 1267.95 62.7283 1267.78 63.4606C1267.6 64.1937 1267.33 64.9887 1266.97 65.8465L1265.85 68.5273H1267.24C1268.2 68.5273 1269.03 68.7419 1269.73 69.1712C1270.42 69.6004 1270.86 70.1189 1271.04 70.7258C1271.04 70.8328 1271.05 70.9405 1271.07 71.0474C1271.08 71.1543 1271.07 71.3247 1271.04 71.557C1271 71.7901 1270.92 72.1116 1270.8 72.5224C1270.67 72.934 1270.49 73.479 1270.24 74.1582C1269.81 75.3375 1269.39 76.6075 1268.98 77.9653C1268.57 79.3245 1268.19 80.5923 1267.86 81.7723C1267.52 82.9523 1267.25 83.9443 1267.05 84.7482C1266.86 85.5521 1266.78 85.9909 1266.81 86.0617C1266.92 86.2763 1267.23 86.0174 1267.75 85.2844C1268.26 84.552 1268.86 83.56 1269.54 82.3085C1270.22 81.0577 1270.94 79.6188 1271.71 77.9918C1272.47 76.3656 1273.18 74.7475 1273.82 73.139C1274.25 72.0666 1274.6 71.1735 1274.89 70.4581C1275.17 69.7435 1275.42 69.1896 1275.61 68.7958C1275.81 68.4027 1275.96 68.1254 1276.07 67.9646C1276.17 67.8038 1276.26 67.7234 1276.33 67.7234C1276.65 67.7234 1276.86 67.8577 1276.95 68.1254C1277.04 68.3931 1277.01 68.8489 1276.87 69.4927C1276.73 70.1358 1276.46 70.9943 1276.07 72.0666C1275.67 73.139 1275.16 74.4798 1274.52 76.0883C1272.8 80.2353 1271.28 83.5328 1269.94 85.9813C1268.61 88.4298 1267.47 89.9572 1266.55 90.5657C1266.05 90.8872 1265.5 91.0296 1264.91 90.9949C1264.32 90.9588 1263.73 90.6911 1263.12 90.1903C1262.48 89.6895 1261.97 89.0199 1261.6 88.1798C1261.22 87.3405 1261.05 86.5094 1261.09 85.6863H1261.09ZM1265.48 62.5763C1265.16 63.4341 1264.91 64.1583 1264.73 64.7483C1264.55 65.3383 1264.46 65.7322 1264.46 65.9283C1264.46 66.1245 1264.54 66.0987 1264.7 65.8479C1264.86 65.5979 1265.1 65.0625 1265.42 64.2394C1265.78 63.3817 1266.06 62.569 1266.25 61.7997C1266.45 61.0312 1266.46 60.647 1266.28 60.647C1266.24 60.647 1266.14 60.8174 1265.98 61.1566C1265.82 61.4966 1265.65 61.9701 1265.48 62.5778L1265.48 62.5763Z" fill="white"/>
<path d="M1877.52 52.9996C1878.22 52.9996 1878.81 52.7585 1879.29 52.2767C1879.76 51.7949 1880 51.2028 1880 50.4996C1880 49.7965 1879.76 49.2048 1879.29 48.7229C1878.81 48.2407 1878.22 48 1877.52 48C1876.81 48 1876.19 48.2362 1875.71 48.708C1875.24 49.1797 1875 49.7771 1875 50.5C1875 51.2229 1875.24 51.8206 1875.71 52.292C1876.19 52.7641 1876.79 53 1877.52 53V52.9996Z" fill="white"/>
<path d="M1882 70.7065H1881.97C1881.26 70.7065 1880.7 70.4919 1880.26 70.0617C1879.83 69.6325 1879.62 69.0656 1879.62 68.3622V55H1879.32C1879.13 55.3128 1878.78 55.5764 1878.29 55.7914C1877.76 56.0067 1877 56.1136 1876 56.1136H1873V56.4067C1873.98 56.4067 1874.62 56.6119 1874.93 57.0221C1875.23 57.4323 1875.38 58.0088 1875.38 58.7511V68.3625C1875.38 69.0659 1875.17 69.6329 1874.74 70.0621C1874.3 70.4923 1873.74 70.7069 1873.03 70.7069H1873V71H1882V70.7069L1882 70.7065Z" fill="white"/>
<path d="M1904.62 88.4869V69H1904.32C1904.13 69.298 1903.78 69.5492 1903.29 69.754C1902.77 69.9591 1902 70.061 1901 70.061H1898V70.3402C1898.71 70.3402 1899.28 70.5454 1899.72 70.9546C1900.16 71.3641 1900.38 71.904 1900.38 72.5737V88.4872C1900.38 89.1761 1900.16 89.7204 1899.72 90.1206C1899.28 90.5208 1898.71 90.7207 1898 90.7207V91H1907V90.7207C1906.29 90.7207 1905.72 90.5208 1905.28 90.1206C1904.84 89.7204 1904.62 89.1761 1904.62 88.4872L1904.62 88.4869Z" fill="white"/>
<path d="M1878.11 89.0613C1877.7 89.4916 1877.16 89.7061 1876.49 89.7061H1876.46V89.9993H1885V89.7061H1884.97C1884.3 89.7061 1883.76 89.4916 1883.35 89.0613C1882.94 88.6322 1882.73 88.0652 1882.73 87.3618V79.3913C1882.73 77.9849 1882.35 76.852 1881.6 75.9923C1880.84 75.1329 1879.84 74.703 1878.59 74.703C1877.49 74.703 1876.44 75.0158 1875.45 75.641C1874.46 76.2665 1873.73 77.087 1873.24 78.1024L1873.21 74H1872.93C1872.75 74.3128 1872.42 74.5764 1871.96 74.7914C1871.45 75.0067 1870.72 75.1136 1869.77 75.1136H1867V75.4067C1867.93 75.4067 1868.54 75.6119 1868.83 76.0221C1869.12 76.4323 1869.27 77.0088 1869.27 77.7511V87.3625C1869.27 88.0659 1869.06 88.6329 1868.65 89.0621C1868.24 89.4923 1867.7 89.7069 1867.03 89.7069H1867V90H1875.57V89.7069H1875.54C1874.87 89.7069 1874.32 89.4923 1873.91 89.0621C1873.5 88.6329 1873.3 88.0659 1873.3 87.3625V78.7476C1873.76 77.8685 1874.31 77.1703 1874.94 76.6524C1875.56 76.1348 1876.16 75.8755 1876.74 75.8755C1877.32 75.8755 1877.82 76.1687 1878.18 76.7546C1878.55 77.3405 1878.73 78.1224 1878.73 79.0989V87.3625C1878.73 88.0659 1878.52 88.6329 1878.11 89.0621L1878.11 89.0613Z" fill="white"/>
<path d="M1865.91 89.4736C1864.88 89.4853 1863.94 88.4574 1863.08 86.3887L1855.44 68L1855.18 68.0028L1853.07 73.3396L1853.27 73.795L1853.27 73.7737L1855.86 80.0961L1856.04 80.5352C1852.23 80.6548 1849.03 83.153 1847.85 86.58L1847.84 86.5775C1847.68 87.0329 1847.44 87.4983 1847.12 87.9736C1846.8 88.4542 1846.46 88.8535 1846.09 89.1723C1845.73 89.491 1845.36 89.6717 1845 89.7139L1845 90L1850.57 89.9358L1850.57 89.6497C1849.62 89.6227 1848.92 89.2823 1848.49 88.6295C1848.07 88.0034 1848.01 87.2985 1848.3 86.5151C1849.5 83.2971 1852.57 80.9803 1856.2 80.9292L1857.52 84.1319L1858.54 86.5836C1858.93 87.5136 1858.98 88.2423 1858.69 88.7697C1858.4 89.2979 1857.83 89.5662 1856.97 89.5762L1856.86 89.5776L1856.86 89.8637L1866 89.7586L1866 89.4725L1865.91 89.4736H1865.91Z" fill="white"/>
<path d="M1852.09 56.5257C1853.12 56.514 1854.06 57.542 1854.92 59.6107L1862.56 78L1862.82 77.9972L1864.93 72.6603L1864.73 72.2048L1864.73 72.2265L1862.14 65.9042L1861.96 65.4651C1865.77 65.3455 1868.97 62.8473 1870.15 59.4201L1870.16 59.4226C1870.32 58.9671 1870.56 58.5018 1870.88 58.0265C1871.2 57.5459 1871.54 57.1465 1871.91 56.8278C1872.27 56.509 1872.64 56.328 1873 56.2861L1873 56L1867.43 56.0639L1867.43 56.35C1868.38 56.377 1869.08 56.717 1869.51 57.3702C1869.93 57.9963 1869.99 58.7016 1869.7 59.4847C1868.5 62.7028 1865.43 65.0197 1861.8 65.0708L1860.48 61.8679L1859.46 59.4162C1859.07 58.4862 1859.02 57.7574 1859.31 57.23C1859.6 56.7018 1860.17 56.4334 1861.03 56.4235L1861.14 56.4221L1861.14 56.136L1852 56.241L1852 56.5271L1852.09 56.5261V56.5257Z" fill="white"/>
<path d="M1896.05 56.8343L1901.62 70H1901.9L1906.06 60.3232L1907.34 63.6576L1907.49 64.0324L1909.77 70H1910L1911.77 65.4408L1911.6 65.0117L1911.6 65.0171L1911.15 63.8207V63.8196L1910.8 62.8794C1911.75 62.3156 1912.58 61.5772 1913.26 60.7072C1913.58 60.3009 1913.86 59.8657 1914.1 59.4079C1914.11 59.405 1914.11 59.3993 1914.11 59.3965C1914.42 58.8182 1914.67 58.203 1914.84 57.5561C1915.11 56.9778 1915.41 56.5086 1915.73 56.1452C1916.15 55.6902 1916.57 55.4039 1917 55.2867V55.0004H1913.01V55.2867C1913.48 55.3467 1913.83 55.5271 1914.08 55.8333C1914.32 56.1367 1914.44 56.5288 1914.44 57.0038C1914.44 57.1956 1914.42 57.3959 1914.38 57.6048C1914.36 57.7444 1914.32 57.8936 1914.27 58.0488L1914.28 58.0342H1914.28C1914.26 58.0904 1914.24 58.1476 1914.22 58.203C1913.54 60.0146 1912.28 61.5288 1910.66 62.5075L1909.01 58.1227C1908.71 57.3384 1908.65 56.6915 1908.83 56.1736C1909.01 55.6586 1909.4 55.3637 1910 55.2863V55H1902.91V55.2863C1903.4 55.3062 1903.78 55.4579 1904.07 55.7442C1904.35 56.0305 1904.57 56.3939 1904.74 56.8347L1905.89 59.8398L1903.7 65.0174L1900.8 58.1227C1900.47 57.3384 1900.4 56.6915 1900.61 56.1736C1900.81 55.6586 1901.25 55.3637 1901.9 55.2863V55H1894V55.2863C1894.54 55.3062 1894.98 55.455 1895.29 55.73C1895.61 56.0077 1895.86 56.374 1896.05 56.8347L1896.05 56.8343Z" fill="white"/>
<path d="M1920.74 86.0567C1920.21 86.8066 1919.53 87.3993 1918.68 87.8403C1917.84 88.2813 1916.95 88.5006 1916.01 88.5006C1914.9 88.5006 1913.96 88.1917 1913.17 87.568C1912.97 87.082 1912.86 86.5539 1912.86 86.0006C1912.86 83.8349 1914.56 82.0509 1916.74 81.8152H1920.77L1920.76 81.787L1920.74 81.3937C1920.66 80.3262 1920.34 79.3852 1919.79 78.5705C1919.24 77.7557 1918.5 77.1236 1917.57 76.6743C1916.65 76.2249 1915.6 76 1914.41 76C1912.99 76 1911.72 76.3145 1910.6 76.941C1909.49 77.5675 1908.6 78.4439 1907.96 79.5676C1907.32 80.6912 1907 82.0031 1907 83.5002C1907 84.9972 1907.29 86.2586 1907.87 87.3906C1908.46 88.5226 1909.27 89.4074 1910.31 90.0451C1911.35 90.68 1912.54 91 1913.88 91C1914.83 91 1915.71 90.8511 1916.54 90.5506C1916.69 90.5001 1916.83 90.4439 1916.98 90.3822C1917.1 90.3289 1917.22 90.2727 1917.34 90.2138C1918.14 89.8206 1918.84 89.3035 1919.45 88.6687C1920.15 87.9383 1920.67 87.0956 1921 86.1404L1920.74 86.056V86.0567ZM1912.34 86.7167C1911.42 85.5285 1910.97 83.9412 1910.97 81.9554V81.8149H1910.98L1911.01 81.3934H1911C1911.01 81.1152 1911.04 80.8485 1911.07 80.5901L1911.07 80.5256H1911.07C1911.21 79.4103 1911.51 78.4892 1911.96 77.77C1912.52 76.8709 1913.23 76.4218 1914.09 76.4218C1914.94 76.4218 1915.68 76.8796 1916.17 77.7983C1916.64 78.6664 1916.89 79.79 1916.91 81.1608H1916.92V81.4052C1914.43 81.5653 1912.46 83.5626 1912.46 86.0009C1912.46 86.3436 1912.5 86.678 1912.57 87.0008C1912.49 86.9109 1912.41 86.8153 1912.34 86.717L1912.34 86.7167Z" fill="white"/>
<path d="M1885.31 69.0451C1886.35 69.68 1887.54 70 1888.88 70C1889.83 70 1890.71 69.8511 1891.54 69.5506C1891.69 69.5001 1891.83 69.444 1891.97 69.3822C1892.1 69.3289 1892.22 69.2728 1892.34 69.2135C1893.14 68.8203 1893.84 68.3033 1894.45 67.6688C1895.15 66.9384 1895.67 66.0958 1896 65.1406L1895.74 65.0562C1895.21 65.8061 1894.53 66.3988 1893.68 66.8398C1892.84 67.2808 1891.95 67.5001 1891.01 67.5001C1889.9 67.5001 1888.96 67.1912 1888.17 66.5675C1887.97 66.0815 1887.86 65.5534 1887.86 65.0001C1887.86 62.8345 1889.56 61.0506 1891.74 60.815H1895.77L1895.76 60.7867L1895.74 60.3935C1895.66 59.326 1895.34 58.3851 1894.79 57.5704C1894.24 56.7556 1893.5 56.1239 1892.57 55.6742C1891.65 55.2249 1890.6 55 1889.41 55C1887.99 55 1886.72 55.3145 1885.6 55.9409C1884.49 56.5674 1883.6 57.4438 1882.96 58.5674C1882.32 59.691 1882 61.0029 1882 62.4998C1882 63.9968 1882.29 65.2581 1882.87 66.3901C1883.46 67.522 1884.27 68.4068 1885.31 69.0444L1885.31 69.0451ZM1885.97 60.815H1885.98L1886.01 60.3935H1886C1886.01 60.1153 1886.04 59.8486 1886.07 59.5903L1886.07 59.5258H1886.07C1886.21 58.4105 1886.51 57.4891 1886.96 56.7703C1887.52 55.8715 1888.23 55.4222 1889.09 55.4222C1889.94 55.4222 1890.68 55.8799 1891.17 56.7985C1891.64 57.6666 1891.89 58.7902 1891.91 60.1609H1891.92V60.4053C1889.43 60.5653 1887.46 62.5626 1887.46 65.0008C1887.46 65.3435 1887.5 65.6778 1887.57 66.0006C1887.49 65.9107 1887.41 65.8152 1887.34 65.7169C1886.42 64.5288 1885.97 62.9415 1885.97 60.9558V60.8153L1885.97 60.815Z" fill="white"/>
<path d="M1896.02 88.3711C1894.82 87.6224 1893.12 87.2084 1890.92 87.1326L1889.92 87.0764C1889.21 87.0596 1888.61 87.0201 1888.11 86.9639C1887.61 86.9104 1887.23 86.8426 1886.96 86.7696C1886.42 86.6372 1886.16 86.3839 1886.16 86.0066C1886.16 85.5758 1886.46 85.2016 1887.08 84.8806C1887.86 85.1817 1888.77 85.3309 1889.8 85.3309C1891.68 85.3309 1893.15 84.8579 1894.24 83.9093C1895.31 82.9636 1895.86 81.7107 1895.86 80.1539C1895.86 79.1939 1895.65 78.355 1895.24 77.6318C1895.02 77.2489 1894.75 76.9083 1894.44 76.6099C1896.93 78.0877 1898.6 80.7734 1898.6 83.8387V83.895H1899L1898.99 83.8276C1898.99 80.3454 1896.93 77.3362 1893.94 75.9007C1893.53 75.7008 1893.09 75.5317 1892.65 75.3941C1891.8 75.1408 1890.91 75.0028 1889.99 75H1889.93V75.0028C1889.89 75 1889.84 75 1889.8 75C1887.94 75 1886.47 75.4699 1885.37 76.4076C1884.27 77.3478 1883.72 78.595 1883.72 80.1543C1883.72 81.2213 1883.98 82.1502 1884.51 82.9384C1885.03 83.7266 1885.77 84.3289 1886.73 84.7401C1885.83 85.0612 1885.13 85.486 1884.64 86.0209C1884.14 86.5586 1883.89 87.133 1883.89 87.7548C1883.89 88.8976 1884.79 89.6942 1886.59 90.1477C1885.48 90.4293 1884.6 90.8262 1883.96 91.3439C1883.32 91.8589 1883 92.4445 1883 93.1034C1883 93.9649 1883.63 94.663 1884.88 95.1978C1886.13 95.7327 1887.77 96 1889.8 96C1892.31 96 1894.27 95.6031 1895.69 94.8038C1897.1 94.0072 1897.81 92.8868 1897.81 91.4397C1897.81 90.1477 1897.21 89.123 1896.02 88.3715V88.3711ZM1888.37 76.6354C1888.71 75.791 1889.19 75.3686 1889.8 75.3686C1889.85 75.3686 1889.89 75.3714 1889.93 75.377V75.3937H1889.99C1890.01 75.3937 1890.03 75.3937 1890.05 75.3965C1890.53 75.4979 1890.92 75.9119 1891.24 76.6351C1891.58 77.4966 1891.75 78.6701 1891.75 80.1539C1891.75 81.6377 1891.58 82.7889 1891.24 83.6728C1890.85 84.5539 1890.36 84.9931 1889.77 84.9931C1889.18 84.9931 1888.71 84.5623 1888.37 83.6983C1888.02 82.8172 1887.85 81.6349 1887.85 80.1543C1887.85 78.6736 1888.02 77.497 1888.37 76.6354H1888.37ZM1894.35 94.1983C1893.9 94.6514 1893.3 95.0032 1892.56 95.2537C1891.81 95.507 1891 95.6367 1890.12 95.6367C1888.74 95.6367 1887.68 95.3439 1886.93 94.7611C1886.19 94.1812 1885.81 93.4014 1885.81 92.4245C1885.81 91.8813 1885.91 91.4138 1886.1 91.0169C1886.29 90.6228 1886.59 90.3612 1886.99 90.2287C1887.35 90.3049 1887.77 90.3667 1888.24 90.4118C1888.71 90.4597 1889.22 90.4936 1889.77 90.5103L1890.78 90.5694C1892.23 90.5861 1893.31 90.7748 1894.02 91.1326C1894.69 91.5067 1895.03 92.0137 1895.03 92.6499C1895.03 93.2326 1894.8 93.7476 1894.35 94.1983Z" fill="white"/>
<path d="M694 84.1616C694.602 84.1118 695.555 84.012 695.555 82.6133V50.3475C695.555 48.9487 694.802 48.3497 694 48.2499V48H698.514L713.509 78.9674L728.504 48H733.218V48.2499C732.616 48.2998 731.664 48.3996 731.664 49.7983V82.6133C731.664 84.012 732.616 84.1118 733.218 84.1616V84.4116H726.95V84.1616C727.602 84.1118 728.504 84.012 728.504 82.6133V50.997L714.261 80.4659C719.327 90.7547 723.891 94.701 733.369 94.701C745.957 94.701 759.348 87.9085 773.09 87.9085C781.014 87.9085 787.784 90.2061 793 95.6503L792.85 95.8504C787.433 91.1554 780.713 89.2075 773.291 89.2075C759.449 89.2075 745.908 96 732.116 96C723.289 96 716.92 93.2031 711.755 82.6145L696.858 51.8959V82.6133C696.858 84.012 697.811 84.1118 698.463 84.1616V84.4116H694V84.1616Z" fill="white"/>
<path d="M736.812 67.2095C739.859 64.0153 742.753 62 747.475 62C753.11 62 756.36 64.9488 756.36 70.6987V81.068C756.36 83.0828 756.309 84.0659 757.426 84.0659C757.883 84.0659 758.492 83.82 759 83.6237V83.9187C758.036 84.5087 756.868 85 755.751 85C753.923 85 752.958 83.6237 753.161 80.4296C750.724 84.0659 747.119 85 744.276 85C740.214 85 736 82.9852 736 78.2179C736 70.4533 747.17 68.9299 753.161 68.733C752.958 65.1457 750.216 63.2781 746.814 63.2781C743.412 63.2781 740.62 65.2438 739.452 68.4876L736.812 67.2101L736.812 67.2095ZM753.161 70.0105C747.982 70.0596 739.046 70.8459 739.046 77.4801C739.046 81.6084 742.397 83.4269 745.545 83.4269C749.302 83.4269 753.16 80.9202 753.16 77.4311V70.0105H753.161Z" fill="white"/>
<path d="M782.693 48H782.942V74.4862L792.519 63.9218C793.466 62.8702 791.571 62.3697 790.973 62.3197V62.0692H797.058V62.3197C796.459 62.3697 795.611 62.3697 794.714 63.4213L787.382 71.5825L797.606 82.948C798.205 83.649 799.003 84.1495 800 84.2495V84.5001H792.17V84.2495C792.768 84.1995 794.065 83.699 793.167 82.7474L785.237 73.9351L782.942 76.4889V82.6974C782.942 84.0996 783.89 84.1995 784.538 84.2495V84.5001H778.304V84.2495C778.903 84.1995 779.85 84.0996 779.85 82.6974V51.2542L777.256 52.9563C774.364 54.859 772.917 55.7601 772.917 58.4638C772.917 60.767 773.965 62.6697 775.261 64.0212C775.61 64.2718 775.96 64.6223 776.259 64.9223L775.012 68.2771C773.367 64.6723 770.973 62.8696 768.03 62.8696C765.536 62.8696 763.79 64.2212 763.79 66.2744C763.79 71.5819 776.259 70.5303 776.259 78.5915C776.259 83.1479 772.319 85 768.329 85C765.286 85 762.095 83.9484 760 81.6452L761.247 78.2904C762.942 81.9957 765.137 83.6978 768.229 83.6978C771.322 83.6978 773.267 81.9957 773.267 79.4919C773.267 73.1834 760.548 74.535 760.548 67.5754C760.548 63.5701 764.688 61.5674 768.329 61.5674C769.626 61.5674 770.973 61.818 772.319 62.3185C771.87 61.0669 771.621 59.7648 771.621 58.6138C771.621 55.059 774.165 53.7574 777.256 51.6542L782.693 48Z" fill="white"/>
<path d="M801.8 67.2234C804.797 64.0207 807.643 62 812.289 62C817.832 62 821.029 64.9567 821.029 70.7218V78.1621C821.029 92.255 828.171 94.7185 835.713 94.7185C848.15 94.7185 861.436 88.0173 875.121 88.0173C883.013 88.0173 889.806 90.284 895 95.655L894.85 95.8524C889.406 91.2206 882.713 89.2989 875.321 89.2989C861.536 89.2989 848.05 96 834.615 96C826.373 96 818.731 93.4375 817.932 80.7246C815.535 84.1739 811.889 85.0607 809.141 85.0607C805.146 85.0607 801 83.0405 801 78.2605C801 70.4753 811.988 68.9477 817.882 68.7503C817.682 65.1535 814.985 63.2809 811.638 63.2809C808.292 63.2809 805.545 65.2519 804.396 68.5043L801.799 67.2234H801.8ZM817.882 70.0319C812.788 70.0811 803.997 70.8694 803.997 77.5214C803.997 81.6606 807.293 83.5331 810.49 83.5331C814.086 83.5331 817.882 80.9706 817.882 77.4722V70.0319Z" fill="white"/>
<path d="M825.048 84.7493C825.647 84.6992 826.594 84.5989 826.594 83.1925V65.7666L824 67.4738V66.1683L829.438 62.5026H829.737V66.1182C831.882 63.9585 834.726 62 838.168 62C842.109 62 844.404 64.5614 844.404 68.7792V83.1919C844.404 84.1959 845.003 84.6986 846 84.7487V85H839.764V84.7487C840.712 84.6986 841.311 84.1965 841.311 83.1919V69.3821C841.311 65.7164 839.565 63.4064 836.821 63.4064C834.327 63.4064 831.732 65.3147 829.737 67.3735V83.1919C829.737 84.5983 830.635 84.6986 831.284 84.7487V85H825.048V84.7487V84.7493Z" fill="white"/>
<path d="M378.05 96C375.847 96 374.121 95.3671 372.873 94.0993C371.624 92.8325 371 91.1408 371 89.0234C371 86.7278 371.822 85.0728 373.468 84.0589C375.112 83.0454 377.58 82.4792 380.87 82.3596L384.483 82.2253V76.5455C384.483 75.2339 384.395 74.2128 384.219 73.4822C384.042 72.7522 383.763 72.2302 383.382 71.9168C383 71.6034 382.471 71.4472 381.795 71.4472C380.62 71.4472 379.827 71.9544 379.416 72.9674C379.004 73.9813 378.799 75.8449 378.799 78.5576C376.831 78.5576 375.347 78.3272 374.349 77.8647C373.287 77.3738 372.79 76.5206 372.857 75.3051C372.908 74.3655 373.369 73.4817 374.093 72.8936C374.914 72.2266 376.013 71.7443 377.389 71.4472C378.769 71.1496 380.282 71 381.927 71C385.011 71 387.325 71.5663 388.867 72.6993C390.409 73.8328 391.18 75.8007 391.18 78.6029V91.9304C391.18 92.7353 391.26 93.3692 391.422 93.8312C391.584 94.2936 391.863 94.6213 392.259 94.8151C392.656 95.0089 393.177 95.1056 393.824 95.1056H394V95.5528H389.021C386.563 95.5528 384.571 93.5305 384.571 91.036H384.483C384.101 92.3186 383.586 93.3168 382.941 94.0326C382.294 94.7479 381.553 95.2557 380.715 95.5528C379.878 95.8504 378.989 96 378.05 96ZM380.297 94.7479C381.148 94.7479 381.89 94.4203 382.522 93.764C383.153 93.1082 383.638 92.2591 383.976 91.2146C384.313 90.1716 384.482 89.0681 384.482 87.9051V82.6725L382.499 82.762C380.737 82.8516 379.518 83.3654 378.843 84.3051C378.166 85.2443 377.829 86.7726 377.829 88.889C377.829 90.3197 377.917 91.468 378.094 92.3323C378.27 93.1977 378.541 93.8159 378.909 94.1883C379.276 94.5612 379.738 94.7474 380.297 94.7474V94.7479Z" fill="white"/>
<path d="M471.141 96C468.933 96 466.987 95.6047 465.302 94.8151C463.616 94.0255 462.311 92.7282 461.387 90.9241C460.462 89.1205 460 86.6978 460 83.6564C460 80.4365 460.477 77.909 461.432 76.0759C462.386 74.2423 463.706 72.9384 465.392 72.1625C467.076 71.3877 469.008 71 471.186 71C473.005 71 474.556 71.201 475.839 71.6034C477.121 72.0058 478.106 72.5726 478.792 73.3027C479.478 74.0337 479.821 74.8757 479.821 75.8297C479.821 76.3959 479.665 76.9632 479.352 77.5289C479.038 78.0957 478.464 78.5653 477.629 78.9377C476.793 79.3106 475.6 79.4968 474.049 79.4968C474.049 77.4394 473.959 75.8292 473.78 74.6661C473.601 73.5036 473.28 72.6764 472.818 72.1839C472.356 71.6919 471.722 71.4462 470.917 71.4462C469.932 71.4462 469.141 71.8191 468.545 72.5644C467.948 73.3098 467.523 74.5623 467.27 76.3211C467.016 78.0809 466.89 80.5103 466.89 83.6112C466.89 86.4735 467.076 88.7771 467.449 90.5212C467.822 92.2657 468.419 93.533 469.239 94.3226C470.059 95.1132 471.125 95.508 472.438 95.508C473.482 95.508 474.422 95.2918 475.257 94.8594C476.092 94.4274 476.793 93.7192 477.36 92.7348C477.926 91.7508 478.299 90.4392 478.479 88.799C478.956 88.9486 479.329 89.2314 479.597 89.6486C479.866 90.0668 480 90.543 480 91.0798C480 91.8251 479.694 92.5781 479.083 93.3382C478.471 94.0988 477.509 94.7322 476.197 95.2389C474.884 95.7456 473.199 95.9995 471.141 95.9995V96Z" fill="white"/>
<path d="M420.05 95.9995C416.094 95.9995 413.096 94.9194 411.058 92.7572C409.019 90.5955 408 87.5771 408 83.701C408 79.4972 408.989 76.3297 410.967 74.1975C412.945 72.0663 415.729 71 419.32 71C422.636 71 425.245 71.9096 427.147 73.7279C429.049 75.5467 430 78.2304 430 81.7779V82.8513H415.029C415.029 85.8631 415.234 88.3001 415.646 90.1631C416.056 92.0267 416.71 93.383 417.608 94.2326C418.505 95.0827 419.67 95.5075 421.1 95.5075C422.165 95.5075 423.131 95.2837 423.998 94.8365C424.865 94.3893 425.596 93.6735 426.189 92.6901C426.782 91.7061 427.17 90.3946 427.353 88.7544C427.961 88.8739 428.395 89.1278 428.654 89.515C428.912 89.9026 429.042 90.3498 429.042 90.8565C429.042 91.6914 428.707 92.5044 428.037 93.294C427.368 94.0846 426.371 94.7327 425.048 95.2394C423.724 95.7461 422.058 96 420.05 96V95.9995ZM423.062 82.4042C423.062 79.691 422.955 77.5369 422.743 75.9415C422.529 74.3471 422.149 73.1988 421.602 72.4978C421.054 71.7977 420.293 71.4472 419.32 71.4472C418.346 71.4472 417.54 71.7977 416.901 72.4978C416.261 73.1988 415.797 74.3471 415.508 75.9415C415.219 77.5369 415.059 79.691 415.029 82.4042H423.063H423.062Z" fill="white"/>
<path d="M460.472 95.5528C460.06 95.5528 459.606 95.486 459.107 95.3511C458.607 95.2166 458.189 94.9415 457.852 94.5228C457.515 94.1051 457.346 93.4781 457.346 92.6422V78.8373C457.346 75.0613 454.337 72 450.623 72H447V72.4477H447.528C447.939 72.4477 448.387 72.5078 448.871 72.6265C449.355 72.7462 449.774 73.0004 450.126 73.388C450.478 73.7762 450.654 74.3732 450.654 75.179V89.2564C450.654 92.981 453.622 96 457.284 96H461V95.5523H460.472V95.5528Z" fill="white"/>
<path d="M450.872 66.271C451.453 66.7573 452.156 67 452.979 67C453.802 67 454.511 66.7573 455.106 66.271C455.702 65.7852 456 65.0278 456 64.0002C456 62.9727 455.702 62.1816 455.106 61.7086C454.51 61.2365 453.801 61 452.979 61C452.156 61 451.453 61.2365 450.872 61.7086C450.29 62.1811 450 62.9447 450 64.0002C450 65.0558 450.29 65.7852 450.872 66.271Z" fill="white"/>
<path d="M445.999 71.7059V71.2631H440.353V64H439.912C439.727 64.8459 439.488 65.6167 439.193 66.3073C439.069 66.6086 438.932 66.8963 438.787 67.1663C438.302 68.0696 437.688 68.8137 436.956 69.4026C436.162 70.0535 435.218 70.5276 434.133 70.8198C433.044 71.1165 431.778 71.2626 430.34 71.2626H430V71.7054H430.525C430.939 71.7054 431.385 71.7674 431.875 71.8827C432.355 72.0021 432.774 72.2545 433.128 72.6354C433.436 72.9719 433.608 73.4636 433.648 74.1191C433.653 74.2123 433.657 74.305 433.657 74.4067V88.3304C433.657 92.0151 436.635 95 440.305 95H444.023V94.5572H443.494C443.084 94.5572 442.629 94.4907 442.131 94.3582C441.628 94.2252 441.209 93.9551 440.87 93.539C440.535 93.1269 440.367 92.5073 440.367 91.679V78.0254C440.367 77.8879 440.362 77.7554 440.354 77.6179V71.7054H446L445.999 71.7059Z" fill="white"/>
<path d="M365.18 81.2544C363.299 79.8804 360.598 79.1636 357.075 79.1035V79.0138C359.147 78.895 360.894 78.5656 362.315 78.0278C363.736 77.4904 364.817 76.7134 365.557 75.6974C366.297 74.6818 366.667 73.4113 366.667 71.888C366.667 69.3185 365.609 67.3613 363.492 66.0169C361.375 64.6725 358.2 64 353.967 64H341V64.4481H342.821C343.235 64.4481 343.62 64.5231 343.975 64.6725C344.331 64.8223 344.611 65.0982 344.819 65.5019C345.026 65.9052 345.13 66.5104 345.13 67.3169V88.8186C345.13 92.7846 348.316 96 352.246 96H355.3C359.503 96 362.672 95.2684 364.803 93.8037C366.935 92.34 368 90.2038 368 87.3947C368 84.5856 367.06 82.6294 365.18 81.2549L365.18 81.2544ZM352.146 64.4481H353.745C355.729 64.4481 357.135 65.0013 357.964 66.1066C358.792 67.2124 359.207 69.0799 359.207 71.7085C359.207 73.4419 359.029 74.8454 358.674 75.9217C358.319 76.9969 357.749 77.7815 356.964 78.2745C356.18 78.7675 355.136 79.0138 353.834 79.0138H352.146V64.4481H352.146ZM359.296 93.691C358.467 94.9314 357.061 95.5508 355.077 95.5508H352.146V79.4614H355.166C356.469 79.4614 357.512 79.7306 358.297 80.2679C359.081 80.8058 359.651 81.6577 360.007 82.8226C360.362 83.9881 360.54 85.542 360.54 87.4839C360.54 90.3823 360.125 92.4516 359.297 93.691H359.296Z" fill="white"/>
<path d="M435.782 56.0277C435.679 55.5832 435.54 55.1382 435.369 54.7162C435.226 54.3657 435.056 54.0244 434.882 53.6923C433.306 51.0693 430.754 49.1921 427.789 48.4733C427.042 48.2755 426.276 48.1407 425.506 48.0778C422.314 47.7636 418.844 48.3966 414.604 50.0541C413.404 50.5614 412.214 51.0917 411.036 51.6262C409.29 52.439 407.584 53.3107 405.901 54.2446C405.135 54.6666 404.374 55.1025 403.622 55.547L401.688 56.6516C400.457 57.3566 399.194 58.0709 397.922 58.7714L396.082 59.7774C392.648 57.4506 388.704 55.9869 384.585 55.5153C382.754 55.2726 376.454 54.7111 372.169 57.7475C370.992 58.5558 370.217 59.8223 370.025 61.2417C369.895 62.3958 370.284 63.5592 371.09 64.3945C372.357 65.634 374.054 66.3391 375.827 66.3575C380.868 66.6492 385.873 65.2033 390.521 63.1867C391.394 62.7826 392.321 62.3693 393.203 61.9334C395.204 64.6193 396.641 67.6777 397.434 70.9343C398.051 73.4317 398.28 75.9914 398.32 78.5649V89.2094C398.32 92.9595 401.351 96 405.089 96H408.842V95.5509H408.304C407.884 95.5509 407.422 95.4835 406.916 95.3491C406.406 95.2142 405.981 94.9404 405.641 94.5183C405.296 94.1004 405.126 93.472 405.126 92.632V81.3049C405.009 69.9462 400.747 64.3276 398.374 61.8711C398.092 61.5794 397.837 61.3275 397.617 61.1211C397.259 60.811 396.857 60.5105 396.516 60.2275L396.843 60.0522L397.944 59.4504C399.279 58.6871 400.563 57.9232 401.898 57.2136C402.502 56.859 403.129 56.5039 403.742 56.1672C404.548 55.6864 405.372 55.2154 406.191 54.7704C407.938 53.8047 409.715 52.9065 411.519 52.0666C412.571 51.5771 413.655 51.1188 414.738 50.6651C418.888 49.0348 422.264 48.4196 425.384 48.7246C425.882 48.7742 426.365 48.8457 426.853 48.9449C427.614 49.1063 428.357 49.3357 429.078 49.6366C431.249 50.4674 433.081 52.0216 434.271 54.029C434.724 54.8598 435.024 55.7626 435.158 56.697C435.212 57.0429 435.243 57.3934 435.252 57.748V58.5338C435.252 58.7944 435.208 58.9604 435.176 59.176C435.145 59.387 435.122 59.4591 435.091 59.6118C435.064 59.76 435.046 59.7958 435.015 59.9036C434.993 60.0114 434.966 60.1146 434.935 60.2091C434.89 60.3123 434.863 60.4201 434.827 60.5233C434.8 60.6132 434.769 60.6986 434.737 60.7839V60.8288C434.572 61.2197 434.366 61.5967 434.124 61.9518C433.963 62.1899 433.784 62.4101 433.587 62.6165C433.072 63.2051 432.477 63.7125 431.827 64.1437C429.522 65.6708 426.213 65.9401 423.867 64.3235C422.649 63.4836 421.829 61.9299 422.215 60.5013C422.402 59.8009 422.846 59.2031 423.302 58.6421C424.14 57.6003 425.049 56.6122 426.015 55.6915C425.25 54.8383 424.377 54.0433 423.325 53.585C422.273 53.1313 421.01 53.0598 420.007 53.6167C418.507 54.4521 418.01 56.4686 418.404 58.144C418.906 60.2908 420.504 62.2354 422.031 63.7671C422.089 63.8254 422.148 63.8882 422.206 63.9332C422.21 63.9424 422.215 63.9465 422.224 63.9511C422.363 64.0905 422.506 64.2249 422.649 64.3552C422.716 64.418 422.774 64.4855 422.841 64.5396L423.083 64.7374L423.191 64.8227C423.195 64.8273 423.2 64.8273 423.209 64.8319C424.471 65.6448 425.931 66.0668 427.431 66.0668C427.538 66.0801 427.646 66.0801 427.749 66.0668C428.976 66.0801 430.189 65.82 431.304 65.3035C431.639 65.1374 431.975 64.9489 432.293 64.7466C432.741 64.4502 433.158 64.1176 433.547 63.7452L433.596 63.7002C433.784 63.5428 433.963 63.3722 434.142 63.1883C434.249 63.0805 434.344 62.9727 434.447 62.8602C434.599 62.6625 434.737 62.4515 434.863 62.2359C435.516 61.1671 435.901 59.9633 435.991 58.7192C435.995 58.6114 435.995 58.5036 435.991 58.3958C436 58.2431 436 58.0857 436 57.9335C436 57.2912 435.924 56.6536 435.78 56.0293L435.782 56.0277ZM390.361 62.6073H390.325C385.758 64.6015 380.829 66.0295 375.868 65.7377C374.252 65.7285 372.69 65.1047 371.521 63.9863C370.831 63.2675 370.496 62.2839 370.599 61.2958C370.782 60.0563 371.472 58.9558 372.497 58.2461C375.116 56.3777 378.957 55.8162 382.248 55.9511C382.669 55.9419 383.081 55.969 383.493 56.0364C385.535 56.3241 389.241 57.4195 392.877 61.4573C392.084 61.8256 391.229 62.2344 390.361 62.6068V62.6073Z" fill="white"/>
<path opacity="0.8" d="M1543.66 84H1544.35L1546 87H1545.33L1544.99 86.3786H1543L1542.67 87H1542L1543.66 84H1543.66ZM1544.75 85.924L1544 84.5054L1543.24 85.924H1544.75Z" fill="white"/>
<path opacity="0.8" d="M1554 84H1554.48V86.5327H1556V87H1554V84Z" fill="white"/>
<path opacity="0.8" d="M1564 84.0009H1565.69C1565.95 84.0009 1566.18 84.0444 1566.38 84.1314C1566.57 84.2185 1566.73 84.3408 1566.84 84.4977C1566.95 84.6549 1567 84.8376 1567 85.0461C1567 85.2546 1566.95 85.4377 1566.84 85.5945C1566.73 85.7518 1566.57 85.8737 1566.38 85.9607C1566.18 86.0482 1565.95 86.0913 1565.69 86.0913H1564.61V87H1564V84V84.0009ZM1565.66 85.638C1565.88 85.638 1566.06 85.5845 1566.2 85.4771C1566.33 85.3701 1566.4 85.2265 1566.4 85.0465C1566.4 84.8666 1566.33 84.727 1566.2 84.62C1566.06 84.5131 1565.88 84.4591 1565.66 84.4591H1564.6V85.6376H1565.66V85.638Z" fill="white"/>
<path opacity="0.8" d="M1575 84H1575.59V85.2428H1577.41V84H1578V87H1577.41V85.7101H1575.59V87H1575V84Z" fill="white"/>
<path opacity="0.8" d="M1586.66 84H1587.35L1589 87H1588.33L1587.99 86.3786H1586L1585.67 87H1585L1586.66 84H1586.66ZM1587.75 85.924L1587 84.5054L1586.24 85.924H1587.75Z" fill="white"/>
<path opacity="0.8" d="M1597 84.0005H1598.71C1599.07 84.0005 1599.36 84.0707 1599.57 84.2103C1599.78 84.3504 1599.89 84.5443 1599.89 84.7932C1599.89 84.9418 1599.85 85.0733 1599.77 85.1875C1599.69 85.3017 1599.57 85.3887 1599.43 85.449C1599.6 85.4975 1599.73 85.59 1599.84 85.7255C1599.95 85.861 1600 86.0092 1600 86.1688C1600 86.4344 1599.89 86.6397 1599.66 86.7838C1599.44 86.9279 1599.12 87 1598.71 87H1597V84L1597 84.0005ZM1598.73 85.2392C1598.91 85.2392 1599.05 85.2047 1599.15 85.1363C1599.25 85.0678 1599.3 84.9704 1599.3 84.8448C1599.3 84.7193 1599.25 84.625 1599.15 84.5534C1599.05 84.4822 1598.91 84.4464 1598.73 84.4464H1597.59V85.2392H1598.73ZM1598.78 86.5463C1598.97 86.5463 1599.12 86.5069 1599.24 86.4285C1599.35 86.3501 1599.41 86.2422 1599.41 86.1048C1599.41 85.9675 1599.35 85.8651 1599.24 85.7876C1599.13 85.7105 1598.98 85.672 1598.78 85.672H1597.59V86.5463H1598.78Z" fill="white"/>
<path opacity="0.8" d="M1608 84.0005H1610.97V84.4546H1608.67V85.2559H1610.87V85.7015H1608.67V86.5413H1611V87H1608V84L1608 84.0005Z" fill="white"/>
<path opacity="0.8" d="M1617 84H1620V84.4628H1618.81V87H1618.19V84.4628H1617V84H1617Z" fill="white"/>
<path d="M1570.56 63.3355C1571.12 63.3355 1571.75 63.371 1572.47 63.4416C1573.19 63.5121 1573.86 63.6654 1574.48 63.9009C1575.1 64.1369 1575.63 64.4907 1576.07 64.9607C1576.51 65.4322 1576.73 66.0448 1576.73 66.798C1576.73 67.3167 1576.54 67.7288 1576.14 68.0343C1575.75 68.3414 1575.3 68.4937 1574.79 68.4937C1574.24 68.4937 1573.8 68.3292 1573.48 67.9993C1573.75 67.8577 1573.95 67.6461 1574.06 67.3634C1574.18 67.0807 1574.24 66.798 1574.24 66.5153C1574.24 65.4322 1573.86 64.6901 1573.09 64.2892C1572.33 63.8892 1571.49 63.6882 1570.56 63.6882C1569.64 63.6882 1568.92 63.9476 1568.28 64.4653C1567.63 64.984 1567.31 65.7138 1567.31 66.6558C1567.31 67.4573 1567.57 68.1287 1568.1 68.6698C1568.63 69.2118 1569.29 69.6833 1570.08 70.0827C1570.86 70.4837 1571.71 70.8725 1572.61 71.2486C1573.51 71.6262 1574.35 72.05 1575.14 72.5205C1575.92 72.992 1576.58 73.5574 1577.11 74.2162C1577.64 74.8765 1577.91 75.7002 1577.91 76.6894C1577.91 77.4437 1577.74 78.0918 1577.39 78.6328C1577.04 79.1749 1576.59 79.622 1576.04 79.9753C1575.48 80.3285 1574.87 80.5879 1574.2 80.7523C1573.53 80.9178 1572.9 80.9995 1572.3 80.9995C1571.33 80.9995 1570.38 80.835 1569.46 80.5046C1568.53 80.1758 1567.58 80.0097 1566.61 80.0097C1566.06 80.0097 1565.71 80.3396 1565.57 80.9989V75.9113C1565.67 76.6656 1565.94 77.3365 1566.41 77.9253C1566.87 78.5151 1567.43 79.0094 1568.1 79.4093C1568.77 79.8103 1569.48 80.1158 1570.22 80.328C1570.96 80.5401 1571.65 80.6457 1572.3 80.6457C1573.17 80.6457 1573.94 80.3874 1574.58 79.8687C1575.23 79.351 1575.55 78.6211 1575.55 77.6781C1575.55 76.83 1575.29 76.159 1574.76 75.6642C1574.23 75.1693 1573.57 74.7344 1572.78 74.3567C1572 73.9801 1571.15 73.6391 1570.25 73.332C1569.35 73.0265 1568.51 72.6377 1567.72 72.1662C1566.94 71.6957 1566.28 71.1064 1565.75 70.3999C1565.22 69.6934 1564.95 68.7748 1564.95 67.644C1564.95 66.7958 1565.22 66.0432 1565.75 65.3829C1566.28 64.7236 1566.91 64.2292 1567.65 63.8988C1565.67 63.8049 1564.06 63.0751 1562.84 61.7082C1561.61 60.3424 1561 58.6468 1561 56.6206C1561 55.302 1561.27 54.1118 1561.8 53.0521C1562.33 51.9923 1563.03 51.0859 1563.91 50.3316C1564.79 49.5785 1565.8 49.0014 1566.96 48.6004C1568.11 48.2005 1569.29 48 1570.5 48C1573.08 48 1575.2 48.5421 1576.84 49.6252C1578.48 50.7093 1579.76 52.1223 1580.68 53.8652C1581.61 55.6086 1582.25 57.5637 1582.62 59.7304C1582.99 61.8976 1583.22 64.0648 1583.32 66.2315C1583.82 65.1956 1584.56 64.4541 1585.53 64.0054C1586.51 63.5583 1587.52 63.3339 1588.58 63.3339C1589.37 63.3339 1590.15 63.4289 1590.94 63.6166C1591.73 63.8054 1592.43 64.1003 1593.05 64.4997C1593.68 64.9007 1594.18 65.4306 1594.54 66.0899C1594.91 66.7502 1595.1 67.5506 1595.1 68.4926C1595.1 69.0113 1595.06 69.93 1595 71.2486C1594.93 72.5682 1594.89 73.934 1594.89 75.347C1594.89 76.76 1594.97 78.0324 1595.13 79.1627C1595.3 80.2935 1595.58 80.9061 1596 81H1591.22C1591.59 80.9539 1591.83 80.765 1591.95 80.4346C1592.06 80.1057 1592.12 79.7986 1592.12 79.5159V68.4926C1592.12 67.2679 1591.82 66.161 1591.22 65.1718C1590.62 64.1826 1589.65 63.6877 1588.31 63.6877C1587.8 63.6877 1587.26 63.7704 1586.68 63.9349C1586.1 64.1003 1585.57 64.3475 1585.08 64.6769C1584.6 65.0068 1584.19 65.4078 1583.87 65.8782C1583.55 66.3498 1583.39 66.8918 1583.39 67.5034V79.5159C1583.39 79.8458 1583.44 80.1519 1583.56 80.4346C1583.67 80.7173 1583.92 80.9061 1584.29 81H1579.5C1579.87 80.9539 1580.12 80.765 1580.23 80.4346C1580.35 80.1057 1580.41 79.7986 1580.41 79.5159V68.2099C1580.41 66.938 1580.38 65.56 1580.34 64.0759C1580.29 62.5919 1580.17 61.12 1579.99 59.6593C1579.8 58.1996 1579.49 56.7866 1579.05 55.4193C1578.61 54.0535 1578.01 52.8521 1577.25 51.8157C1576.49 50.7804 1575.52 49.9434 1574.34 49.3069C1573.16 48.671 1571.72 48.3532 1570.01 48.3532C1568.85 48.3532 1567.76 48.5654 1566.72 48.9892C1565.68 49.413 1564.75 50.0028 1563.94 50.756C1563.14 51.5102 1562.49 52.4055 1562 53.4409C1561.52 54.4778 1561.28 55.5847 1561.28 56.7622C1561.28 58.7884 1561.91 60.4491 1563.18 61.7438C1564.45 63.0401 1566.08 63.6872 1568.07 63.6872C1568.44 63.6872 1568.84 63.6288 1569.28 63.5105C1569.72 63.3933 1570.15 63.3339 1570.56 63.3339L1570.56 63.3355Z" fill="white"/>
<path d="M1502.05 76.5681C1501.15 76.5681 1500.33 76.3993 1499.58 76.0611C1498.83 75.7229 1498.2 75.2726 1497.67 74.7095C1497.15 74.1464 1496.74 73.4801 1496.44 72.7104C1496.14 71.9413 1495.99 71.1245 1495.99 70.2605C1495.99 69.247 1496.2 68.3175 1496.61 67.4724C1497.02 66.6277 1497.56 65.8953 1498.23 65.2761C1498.91 64.6564 1499.68 64.1689 1500.56 63.8118C1501.44 63.4553 1502.36 63.2771 1503.34 63.2771C1504.57 63.2771 1505.72 63.4936 1506.78 63.9246C1507.85 64.3566 1508.87 64.9663 1509.84 65.7548L1511.64 58.6587C1511.52 57.9079 1511.33 57.0911 1511.05 56.2087C1510.77 55.3269 1510.38 54.5195 1509.9 53.7871C1509.41 53.0552 1508.82 52.4449 1508.13 51.9568C1507.44 51.4692 1506.65 51.2249 1505.75 51.2249C1505.15 51.2249 1504.62 51.3848 1504.15 51.7036C1503.68 52.0229 1503.3 52.4271 1503 52.9147C1503.3 52.3516 1503.73 51.8923 1504.29 51.5348C1504.85 51.1783 1505.45 51 1506.08 51C1507.21 51 1508.18 51.1788 1509 51.5348C1509.82 51.8918 1510.52 52.3794 1511.1 52.9991C1511.68 53.6188 1512.17 54.3606 1512.56 55.2236C1512.95 56.0876 1513.3 57.0261 1513.6 58.0395C1514.23 60.2923 1514.82 62.5546 1515.36 64.8263C1515.91 67.0985 1516.46 69.3603 1517.02 71.6131C1517.58 73.8659 1518.18 76.1188 1518.81 78.3716C1519.45 80.6244 1520.18 82.8395 1521 85.0174C1522.5 84.3788 1524.03 83.8152 1525.6 83.3276C1527.17 82.839 1528.79 82.5957 1530.48 82.5957C1531.45 82.5957 1532.44 82.7174 1533.45 82.9617C1534.46 83.2055 1535.37 83.5997 1536.2 84.1445C1537.02 84.6881 1537.69 85.3739 1538.21 86.2002C1538.74 87.0254 1539 88.0026 1539 89.1288C1539 90.2549 1538.7 91.3061 1538.1 92.1701C1537.5 93.0336 1536.76 93.7472 1535.86 94.3102C1534.96 94.8733 1533.97 95.2959 1532.89 95.5774C1531.8 95.859 1530.76 96 1529.75 96C1528.33 96 1527.06 95.7185 1525.93 95.1554C1524.81 94.5923 1523.8 93.8505 1522.91 92.9309C1522.01 92.0102 1521.22 90.9685 1520.55 89.8051C1519.88 88.6407 1519.3 87.4763 1518.81 86.3134C1515.93 87.5523 1513.01 88.679 1510.04 89.6924C1507.06 90.7063 1503.99 91.2128 1500.81 91.2128C1497.9 91.2128 1495.53 90.5176 1493.72 89.1288C1491.91 87.7379 1491 85.485 1491 82.3692V81.6374C1491 81.4119 1491.02 81.1676 1491.06 80.9055C1491.84 83.9468 1493.19 86.2741 1495.09 87.8894C1497 89.5031 1499.54 90.311 1502.72 90.311C1505.56 90.311 1508.29 89.8607 1510.91 88.9594C1513.52 88.0582 1516.1 87.0631 1518.65 85.9742C1518.01 84.3972 1517.45 82.8201 1516.96 81.2431C1516.48 79.6661 1516.03 78.0707 1515.62 76.4559C1515.43 75.8556 1515.28 75.2265 1515.17 74.569C1515.06 73.9126 1514.91 73.3018 1514.72 72.7387C1514.53 72.2512 1514.27 71.7164 1513.94 71.1339C1513.6 70.552 1513.21 69.9795 1512.76 69.4164C1512.31 68.8533 1511.85 68.328 1511.38 67.8393C1510.92 67.3518 1510.48 66.9381 1510.07 66.6005C1509.99 66.8637 1509.86 67.3423 1509.67 68.0365C1509.49 68.7317 1509.28 69.5291 1509.06 70.4298C1508.83 71.3311 1508.59 72.2795 1508.33 73.274C1508.07 74.2691 1507.82 75.1987 1507.6 76.0622C1507.37 76.9262 1507.2 77.6675 1507.07 78.2867C1506.93 78.9064 1506.87 79.2917 1506.87 79.4411C1506.87 79.6294 1506.94 79.7704 1507.09 79.8637C1507.24 79.9581 1507.41 80.0047 1507.6 80.0047H1505.47C1505.73 79.968 1506 79.6482 1506.28 79.0474C1506.56 78.4471 1506.84 77.6958 1507.12 76.7946C1507.4 75.8933 1507.67 74.8988 1507.94 73.8093C1508.2 72.7209 1508.45 71.6787 1508.69 70.6836C1508.94 69.689 1509.14 68.7967 1509.31 68.0082C1509.48 67.2197 1509.6 66.6566 1509.67 66.3189C1507.73 64.8924 1505.54 64.1788 1503.11 64.1788C1502.25 64.1788 1501.4 64.3109 1500.56 64.5731C1499.72 64.8363 1498.97 65.2206 1498.32 65.7276C1497.66 66.2345 1497.14 66.8637 1496.75 67.6144C1496.36 68.3657 1496.16 69.2109 1496.16 70.1488C1496.16 71.8013 1496.66 73.0774 1497.65 73.9787C1498.64 74.8799 1499.94 75.3303 1501.54 75.3303C1502.93 75.3303 1504.11 74.861 1505.1 73.922C1506.09 72.9841 1506.59 71.8013 1506.59 70.3737C1506.59 69.8861 1506.48 69.4164 1506.25 68.9655C1506.03 68.5151 1505.67 68.1964 1505.19 68.0082C1505.75 68.1964 1506.17 68.6279 1506.45 69.3037C1506.73 69.9795 1506.87 70.5808 1506.87 71.1061C1506.87 71.7447 1506.75 72.3927 1506.51 73.0491C1506.26 73.7066 1505.93 74.298 1505.5 74.8233C1505.07 75.3497 1504.55 75.7717 1503.95 76.0905C1503.36 76.4098 1502.72 76.5691 1502.05 76.5691L1502.05 76.5681ZM1514.5 71.7809C1514.01 69.7535 1513.57 67.7072 1513.18 65.6421C1512.79 63.5775 1512.35 61.5307 1511.86 59.5033L1510.18 66.0364C1511.11 66.8249 1511.92 67.7072 1512.62 68.6834C1513.31 69.6602 1513.93 70.6925 1514.5 71.7809ZM1538.72 89.1277C1538.72 88.0016 1538.46 87.0437 1537.93 86.2552C1537.41 85.4667 1536.75 84.8192 1535.94 84.3122C1535.14 83.8053 1534.24 83.4393 1533.25 83.2139C1532.26 82.9889 1531.3 82.8762 1530.36 82.8762C1528.76 82.8762 1527.18 83.1295 1525.63 83.6364C1524.07 84.1434 1522.57 84.697 1521.11 85.2979C1521.49 86.3118 1521.96 87.4186 1522.54 88.6208C1523.12 89.8219 1523.79 90.9297 1524.56 91.9436C1525.33 92.9571 1526.21 93.8022 1527.22 94.478C1528.23 95.1538 1529.39 95.492 1530.7 95.492C1531.6 95.492 1532.52 95.3509 1533.48 95.0694C1534.43 94.7879 1535.29 94.3836 1536.06 93.8583C1536.82 93.3319 1537.46 92.6661 1537.96 91.8587C1538.47 91.0508 1538.72 90.1412 1538.72 89.1272L1538.72 89.1277Z" fill="white"/>
<path d="M1607.39 61.3797C1606.27 61.3797 1605.28 61.7598 1604.41 62.5197C1603.55 63.2795 1603.12 64.2429 1603.12 65.4079C1603.12 65.9662 1603.22 66.4471 1603.42 66.8517C1603.17 66.954 1602.93 67.0299 1602.7 67.0797C1602.47 67.1306 1602.23 67.1555 1601.97 67.1555C1601.36 67.1555 1600.87 66.9784 1600.49 66.6237C1600.11 66.27 1599.92 65.7875 1599.92 65.1799C1600.63 63.5589 1601.64 62.4571 1602.96 61.8738C1604.29 61.2922 1605.76 61 1607.39 61C1609.42 61 1610.92 61.3038 1611.88 61.912C1612.85 62.5202 1613.48 63.3182 1613.79 64.306C1614.09 65.2939 1614.21 66.4471 1614.13 67.7642C1614.06 69.0824 1614.02 70.4504 1614.02 71.8683C1614.02 72.1721 1614.03 72.7421 1614.06 73.5783C1614.08 74.4145 1614.16 75.2766 1614.28 76.1621C1614.41 77.0492 1614.6 77.8223 1614.86 78.4803C1615.11 79.1394 1615.49 79.4682 1616 79.4682C1615.64 79.8234 1615.14 80 1614.48 80C1613.61 80 1612.86 79.658 1612.23 78.974C1611.59 78.29 1611.2 77.5429 1611.04 76.7321C1610.38 77.5943 1609.62 78.3541 1608.76 79.0122C1607.89 79.6713 1606.88 80 1605.71 80C1603.88 80 1602.3 79.5318 1600.98 78.5938C1599.66 77.6569 1599 76.1998 1599 74.2236C1599 72.9065 1599.25 71.9054 1599.76 71.2214C1600.27 70.5374 1600.91 70.0432 1601.67 69.7394C1602.43 69.4355 1603.28 69.2452 1604.22 69.1694C1605.16 69.0935 1606.08 68.9923 1606.97 68.8655C1607.85 68.7393 1608.65 68.5119 1609.37 68.1815C1610.08 67.8528 1610.61 67.2828 1610.97 66.4715C1610.97 65.2053 1610.75 64.0393 1610.32 62.9751C1609.89 61.9109 1608.91 61.3791 1607.38 61.3791L1607.39 61.3797ZM1610.97 76.4283V66.9281C1610.61 67.8401 1609.95 68.4361 1608.99 68.7139C1608.02 68.9928 1607.04 69.2722 1606.05 69.5501C1605.06 69.829 1604.19 70.285 1603.42 70.9181C1602.66 71.5523 1602.28 72.6541 1602.28 74.2241C1602.28 74.7825 1602.32 75.3774 1602.39 76.01C1602.47 76.6441 1602.63 77.2258 1602.89 77.7582C1603.14 78.29 1603.5 78.7211 1603.96 79.0503C1604.41 79.3807 1605 79.5445 1605.71 79.5445C1606.83 79.5445 1607.83 79.2407 1608.72 78.6325C1609.61 78.0243 1610.36 77.2905 1610.97 76.4283H1610.97Z" fill="white"/>
<path d="M1555.94 64.5106H1555C1555.72 64.4093 1556.51 64.1686 1557.35 63.7885C1558.2 63.4084 1558.77 62.8137 1559.06 62.0031V79.4038C1559.06 79.759 1559.12 80.0877 1559.24 80.392C1559.36 80.6957 1559.61 80.8987 1560 81H1555C1555.39 80.8987 1555.64 80.6962 1555.76 80.392C1555.88 80.0882 1555.94 79.759 1555.94 79.4038V64.5106ZM1555.58 57.9C1555.58 56.6346 1556.18 56 1557.39 56C1557.92 56 1558.33 56.1898 1558.62 56.5699C1558.91 56.95 1559.06 57.3937 1559.06 57.8994C1559.06 58.4052 1558.89 58.8245 1558.55 59.1532C1558.21 59.4834 1557.8 59.6472 1557.32 59.6472C1556.84 59.6472 1556.42 59.4834 1556.09 59.1532C1555.75 58.8245 1555.58 58.4062 1555.58 57.8994V57.9Z" fill="white"/>
<path d="M1522.99 64.5084H1522C1522.76 64.4071 1523.58 64.1664 1524.47 63.7863C1525.35 63.4061 1525.95 62.8112 1526.25 62.0005V65.1166C1526.76 64.0026 1527.55 63.2046 1528.61 62.7227C1529.67 62.2418 1530.79 62.0005 1531.95 62.0005C1533.32 62.0005 1534.7 62.2927 1536.09 62.8743C1537.49 63.4575 1538.41 64.4835 1538.87 65.9522C1539.27 64.5842 1540.05 63.5843 1541.18 62.9501C1542.32 62.3171 1543.55 62 1544.87 62C1545.73 62 1546.59 62.1023 1547.45 62.3038C1548.31 62.5069 1549.09 62.8239 1549.77 63.2539C1550.45 63.685 1551 64.255 1551.4 64.9639C1551.81 65.6738 1552.01 66.5349 1552.01 67.5476V79.4035C1552.01 79.7588 1552.08 80.0875 1552.2 80.3919C1552.33 80.6957 1552.59 80.8987 1553 81H1547.76C1548.16 80.9502 1548.43 80.7471 1548.56 80.3919C1548.68 80.0382 1548.75 79.7079 1548.75 79.4035V67.5476C1548.75 66.2305 1548.41 65.0397 1547.76 63.9756C1547.1 62.9114 1546.03 62.3796 1544.57 62.3796C1543 62.3796 1541.69 62.8356 1540.65 63.7476C1539.61 64.6595 1539.1 65.9267 1539.1 67.5476V79.4035C1539.1 79.7588 1539.16 80.0875 1539.29 80.3919C1539.41 80.6957 1539.68 80.8987 1540.08 81H1534.84C1535.25 80.9502 1535.51 80.7471 1535.64 80.3919C1535.77 80.0382 1535.83 79.7079 1535.83 79.4035V67.5476C1535.83 66.2305 1535.5 65.0397 1534.84 63.9756C1534.18 62.9114 1533.12 62.3796 1531.65 62.3796C1531.09 62.3796 1530.5 62.4687 1529.87 62.6458C1529.23 62.8239 1528.65 63.0901 1528.12 63.4438C1527.59 63.799 1527.14 64.2295 1526.79 64.7359C1526.43 65.2428 1526.26 65.826 1526.26 66.484V79.4035C1526.26 79.7588 1526.32 80.0875 1526.45 80.3919C1526.57 80.6957 1526.84 80.8987 1527.24 81H1522C1522.41 80.9502 1522.67 80.7471 1522.8 80.3919C1522.92 80.0382 1522.99 79.7079 1522.99 79.4035V64.5079L1522.99 64.5084Z" fill="white"/>
<path d="M1618.96 64.5083H1618C1618.74 64.407 1619.54 64.1663 1620.4 63.7862C1621.26 63.406 1621.84 62.8112 1622.14 62V65.1159C1622.53 64.1032 1623.16 63.3302 1624.02 62.7979C1624.88 62.2662 1625.8 62 1626.79 62C1627.72 62 1628.66 62.2031 1629.6 62.6081C1630.53 63.0142 1631 63.7989 1631 64.9637C1631 65.522 1630.79 65.9647 1630.37 66.2939C1629.95 66.6242 1629.47 66.788 1628.93 66.788C1628.34 66.788 1627.87 66.611 1627.53 66.2563C1627.82 66.1555 1628.03 65.9403 1628.16 65.6105C1628.28 65.2818 1628.34 64.9648 1628.34 64.6604C1628.34 63.9516 1628.14 63.3949 1627.75 62.9888C1627.36 62.5837 1626.81 62.3807 1626.13 62.3807C1625.14 62.3807 1624.23 62.7984 1623.39 63.6345C1622.55 64.4706 1622.14 65.3953 1622.14 66.4084V79.4036C1622.14 79.7589 1622.2 80.0876 1622.32 80.3919C1622.44 80.6957 1622.7 80.8987 1623.1 81H1618C1618.39 80.8987 1618.65 80.6962 1618.78 80.3919C1618.9 80.0881 1618.96 79.7589 1618.96 79.4036V64.5088L1618.96 64.5083Z" fill="white"/>
<path d="M43.6577 49.0017C40.5993 49.0087 38.6756 51.0365 36.5526 53.7526C35.4982 55.129 34.7294 56.3838 34.0984 57.5028L34.1059 56.4521L34.1116 55.5536C34.1059 55.1075 33.7755 54.7429 33.345 54.6837H33.338C31.5888 56.2336 28.664 56.923 27 56.923V57.7255C28.8753 57.7255 29.3479 58.8313 29.4435 60.2901C29.46 60.5272 29.4662 60.7743 29.4662 61.0267V63.9253C29.4662 65.7325 29.1792 67.2257 27 67.2257V68H36.4621V67.2257C34.2543 67.2257 34.0823 65.7325 34.0823 63.9253V60.2897L34.0893 59.1317C35.7876 55.9422 40.3661 50.3086 43.0659 52.175C43.5518 52.5715 43.6391 53.2729 43.008 53.772C46.2339 55.5743 48.0418 51.6474 46.3588 49.9866C45.8609 49.4859 45.2749 49.1862 44.6228 49.0612C44.3954 49.0327 44.1746 49.0153 43.9587 49.0058C43.8574 49.0025 43.7582 49 43.6589 49L43.6581 49.0012L43.6577 49.0017Z" fill="white"/>
<path d="M78.2997 55.0042C76.5617 56.571 73.6555 57.268 72.0021 57.268V58.0793C72.0686 58.0793 72.1331 58.0818 72.1964 58.0843H72.2079C72.2675 58.0864 72.3267 58.0914 72.3825 58.096C72.3887 58.096 72.394 58.0972 72.399 58.0972C72.4553 58.1031 72.5116 58.109 72.5641 58.1173C72.6155 58.1257 72.666 58.1341 72.7149 58.1437C72.7256 58.1462 72.7363 58.1483 72.7478 58.1508C72.7897 58.1604 72.832 58.17 72.8744 58.1818C72.8801 58.183 72.8859 58.1843 72.8916 58.1855C72.9397 58.1985 72.987 58.2127 73.0313 58.2282L73.0375 58.2307C73.0806 58.2449 73.123 58.2617 73.1628 58.2784C73.1698 58.2809 73.1768 58.2847 73.185 58.288C73.2191 58.3035 73.2528 58.319 73.2869 58.3361C73.2951 58.3407 73.3042 58.3445 73.3128 58.3491C73.3444 58.3658 73.3736 58.3826 73.4028 58.4006C73.4102 58.4052 73.4167 58.4077 73.4241 58.4123C73.4299 58.4148 73.4311 58.4169 73.4348 58.4181C73.4632 58.4361 73.4907 58.455 73.5178 58.4742V58.4755C73.5273 58.4826 73.5367 58.4884 73.5462 58.4955C73.5721 58.5148 73.5967 58.5349 73.6209 58.5541C73.6292 58.5612 73.6362 58.5671 73.6431 58.5729C73.6666 58.593 73.6879 58.6123 73.7089 58.6336C73.7241 58.6466 73.7385 58.6625 73.7533 58.6767C73.7709 58.6947 73.7874 58.7123 73.8038 58.7315C73.8038 58.7328 73.8038 58.7336 73.81 58.7348C73.8194 58.7457 73.8284 58.7579 73.8383 58.7683C73.8523 58.7846 73.865 58.8018 73.8778 58.8185V58.821C73.8897 58.8353 73.9016 58.8495 73.9119 58.8637C73.9225 58.8792 73.9328 58.8947 73.9435 58.9093C73.9435 58.9114 73.9497 58.9139 73.9497 58.9152C73.9649 58.939 73.9813 58.9629 73.9965 58.9871C74.0035 58.9988 74.0105 59.0097 74.0162 59.0202C74.0314 59.0465 74.0466 59.0729 74.0622 59.1001C74.0869 59.1478 74.1115 59.198 74.135 59.249V59.2549C74.1502 59.2896 74.1641 59.3243 74.1781 59.3599C74.3273 59.7406 74.3988 60.1858 74.4288 60.6703C74.4452 60.91 74.4513 61.1598 74.4513 61.415V64.3444C74.4513 64.5737 74.4452 64.7967 74.4349 65.0126C74.4288 65.1214 74.4209 65.2272 74.4103 65.331V65.3322C74.402 65.4301 74.3893 65.5255 74.3753 65.6184C74.3753 65.6293 74.3692 65.6402 74.3692 65.6506C74.3552 65.746 74.3375 65.838 74.3174 65.9284C74.2964 66.023 74.273 66.1146 74.2459 66.2029C74.2319 66.2481 74.2176 66.2912 74.2015 66.3338C74.1863 66.3769 74.1699 66.4188 74.153 66.4602C74.1239 66.5284 74.0922 66.5941 74.0581 66.6572C74.0511 66.6706 74.0442 66.6848 74.0359 66.6978C74.0273 66.712 74.0195 66.7263 74.0113 66.7405C73.9842 66.7848 73.955 66.8275 73.9258 66.8693C73.9151 66.8836 73.9057 66.8991 73.8954 66.9137C73.8437 66.9815 73.7878 67.0459 73.727 67.107H73.7257C73.6953 67.1367 73.6637 67.1656 73.6308 67.194C73.577 67.2392 73.5195 67.2798 73.4599 67.3191C73.4315 67.3379 73.4028 67.3547 73.3732 67.3727C73.2791 67.4262 73.1776 67.4739 73.0671 67.5145C73.0543 67.5182 73.0424 67.5241 73.0297 67.5287C72.9828 67.5442 72.9335 67.5601 72.8834 67.5743C72.777 67.6028 72.6619 67.6258 72.5411 67.6433C72.4359 67.6576 72.3258 67.6684 72.2083 67.6743C72.2026 67.6743 72.2001 67.6756 72.1968 67.6756C72.1323 67.6781 72.0666 67.6789 72 67.6789V68.4629H81.1455V67.6789C80.4844 67.6789 80.0312 67.5383 79.7193 67.2898C79.6996 67.2743 79.6819 67.2589 79.6643 67.2434C79.6581 67.2384 79.6524 67.2329 79.6466 67.2266C79.5916 67.1764 79.541 67.1229 79.4954 67.0643C79.4896 67.058 79.486 67.0526 79.4802 67.0451C79.4662 67.0262 79.4523 67.0082 79.4383 66.9877C79.4383 66.9865 79.4383 66.984 79.4321 66.9815C79.405 66.9409 79.3795 66.8982 79.3549 66.8539C79.3549 66.8505 79.3491 66.8442 79.3467 66.8396C79.3335 66.817 79.322 66.7945 79.3117 66.7719V66.7681C79.2883 66.7191 79.267 66.6681 79.2472 66.6154V66.6104C79.2074 66.5045 79.1757 66.3911 79.1498 66.2727V66.261C79.1404 66.2217 79.1346 66.1811 79.1277 66.1393C79.1182 66.0916 79.1112 66.0418 79.1038 65.9916C79.0981 65.9594 79.0944 65.9284 79.0911 65.8962C79.0816 65.8196 79.0751 65.7397 79.0677 65.6598C79.0677 65.6289 79.0619 65.5966 79.0619 65.5644C79.0558 65.5071 79.0545 65.4498 79.0537 65.39C79.0537 65.3565 79.0479 65.3234 79.0479 65.2887V65.1933C79.0479 65.0942 79.0418 64.9929 79.0418 64.8904V60.8318C79.0479 60.6577 79.05 60.4883 79.0689 60.1983C79.2144 58.5888 79.9457 57.3801 81.4619 57.3801C83.4284 57.3801 83.8841 58.9168 83.8841 60.6293V67.3714C83.9309 68.2148 84.0082 69.334 84.2124 70.1908C84.7001 73.3575 87.4329 76 91.1441 76C93.0814 76 95.7887 75.0716 95.9876 72.9057C96.1306 71.2815 95.0195 70.3544 93.5662 70.4059C92.0838 70.4573 91.4567 71.5656 91.4567 72.3137C92.3406 72.3898 92.7962 72.8542 92.7404 73.7826C92.6828 74.6595 91.9983 75.0712 91.1441 75.0712C89.0748 74.798 88.5966 72.6379 88.5049 71.3435V65.705C88.5111 65.0448 88.4992 64.4423 88.4992 63.8001V60.8313C88.5062 59.5975 88.3788 58.5512 88.0714 57.7563C87.359 55.8409 85.6784 55.0284 83.5702 55.0284C81.2873 55.0284 79.9244 56.0514 79.0677 57.2517V55.8794C79.0619 55.4284 78.7336 55.0582 78.3059 55L78.3001 55.0008L78.2997 55.0042Z" fill="white"/>
<path d="M65.2997 75.0038C63.5617 76.5706 60.6555 77.2676 59.0021 77.2676V78.0788C59.0686 78.0788 59.1331 78.0813 59.1964 78.0839H59.2079C59.2675 78.0859 59.3267 78.091 59.3825 78.0956C59.3887 78.0956 59.394 78.0968 59.399 78.0968C59.4553 78.1027 59.5116 78.1085 59.5641 78.1169C59.6155 78.1253 59.666 78.1336 59.7149 78.1433C59.7256 78.1458 59.7363 78.1479 59.7478 78.1504C59.7897 78.16 59.832 78.1696 59.8744 78.1813C59.8801 78.1826 59.8859 78.1838 59.8916 78.1851C59.9397 78.1981 59.987 78.2123 60.0313 78.2278L60.0375 78.2303C60.0806 78.2445 60.123 78.2612 60.1628 78.278C60.1698 78.2805 60.1768 78.2843 60.185 78.2876C60.2191 78.3031 60.2528 78.3186 60.2869 78.3357C60.2951 78.3403 60.3042 78.3441 60.3128 78.3487C60.3444 78.3654 60.3736 78.3822 60.4028 78.4001C60.4102 78.4048 60.4167 78.4073 60.4241 78.4119C60.4299 78.4144 60.4311 78.4165 60.4348 78.4177C60.4632 78.4357 60.4907 78.4545 60.5178 78.4738V78.475C60.5273 78.4821 60.5367 78.488 60.5462 78.4951C60.5721 78.5144 60.5967 78.5344 60.6209 78.5537C60.6292 78.5608 60.6362 78.5667 60.6431 78.5725C60.6666 78.5926 60.6879 78.6118 60.7089 78.6332C60.7241 78.6462 60.7385 78.6621 60.7533 78.6763C60.7709 78.6943 60.7874 78.7118 60.8038 78.7311C60.8038 78.7323 60.8038 78.7332 60.81 78.7344C60.8194 78.7453 60.8284 78.7574 60.8383 78.7679C60.8523 78.7842 60.865 78.8014 60.8778 78.8181V78.8206C60.8897 78.8348 60.9016 78.8491 60.9119 78.8633C60.9225 78.8788 60.9328 78.8947 60.9435 78.9089C60.9435 78.911 60.9497 78.9135 60.9497 78.9148C60.9649 78.9386 60.9813 78.9624 60.9965 78.9867C61.0035 78.9984 61.0105 79.0093 61.0162 79.0202C61.0314 79.0465 61.0466 79.0729 61.0622 79.1001C61.0869 79.1478 61.1115 79.198 61.135 79.249V79.2549C61.1502 79.2896 61.1641 79.3243 61.1781 79.3599C61.3273 79.7406 61.3988 80.1858 61.4288 80.6703C61.4452 80.91 61.4513 81.1598 61.4513 81.415V84.3444C61.4513 84.5737 61.4452 84.7967 61.4349 85.0126C61.4288 85.1214 61.4209 85.2272 61.4103 85.331V85.3322C61.402 85.4301 61.3893 85.5255 61.3753 85.6184C61.3753 85.6293 61.3692 85.6402 61.3692 85.6506C61.3552 85.746 61.3375 85.838 61.3174 85.9284C61.2964 86.023 61.273 86.1146 61.2459 86.2029C61.2319 86.2481 61.2176 86.2912 61.2015 86.3338C61.1863 86.3769 61.1699 86.4188 61.153 86.4602C61.1239 86.5284 61.0922 86.5941 61.0581 86.6572C61.0511 86.6706 61.0442 86.6848 61.0359 86.6978C61.0273 86.712 61.0195 86.7263 61.0113 86.7405C60.9842 86.7848 60.955 86.8275 60.9258 86.8693C60.9151 86.8836 60.9057 86.8991 60.8954 86.9137C60.8437 86.9815 60.7878 87.0459 60.727 87.107H60.7257C60.6953 87.1367 60.6637 87.1656 60.6308 87.194C60.577 87.2392 60.5195 87.2798 60.4599 87.3191C60.4315 87.3379 60.4028 87.3547 60.3732 87.3727C60.2791 87.4262 60.1776 87.4739 60.0671 87.5145C60.0543 87.5182 60.0424 87.5241 60.0297 87.5287C59.9828 87.5442 59.9335 87.5601 59.8834 87.5743C59.777 87.6028 59.6619 87.6258 59.5411 87.6433C59.4359 87.6576 59.3258 87.6684 59.2083 87.6743C59.2026 87.6743 59.2001 87.6756 59.1968 87.6756C59.1323 87.6781 59.0666 87.6789 59 87.6789V88.4629H68.1455V87.6789C67.4844 87.6789 67.0312 87.5383 66.7193 87.2898C66.6996 87.2743 66.6819 87.2589 66.6643 87.2434C66.6581 87.2384 66.6528 87.2329 66.6466 87.2266C66.5916 87.1764 66.541 87.1229 66.4954 87.0643C66.4897 87.058 66.486 87.0526 66.4802 87.0451C66.4662 87.0262 66.4523 87.0082 66.4383 86.9877C66.4383 86.9865 66.4383 86.984 66.4321 86.9815C66.405 86.9409 66.3795 86.8982 66.3549 86.8539C66.3549 86.8505 66.3491 86.8442 66.3467 86.8396C66.3335 86.817 66.322 86.7945 66.3117 86.7719V86.7681C66.2883 86.7191 66.267 86.6681 66.2472 86.6154V86.6104C66.2074 86.5045 66.1757 86.3911 66.1498 86.2727V86.261C66.1404 86.2217 66.1346 86.1811 66.1277 86.1393C66.1182 86.0916 66.1112 86.0418 66.1038 85.9916C66.0981 85.9594 66.0944 85.9284 66.0911 85.8962C66.0816 85.8196 66.0751 85.7397 66.0677 85.6598C66.0677 85.6289 66.0619 85.5966 66.0619 85.5644C66.0558 85.5071 66.0545 85.4498 66.0537 85.39C66.0537 85.3565 66.0479 85.3234 66.0479 85.2887V85.1933C66.0479 85.0942 66.0418 84.9929 66.0418 84.8904V80.8318C66.048 80.6577 66.05 80.4883 66.0689 80.1983C66.2144 78.5888 66.9457 77.3801 68.4619 77.3801C70.4284 77.3801 70.8841 78.9168 70.8841 80.6293V87.3714C70.9309 88.2148 71.0082 89.334 71.2124 90.1908C71.7001 93.3575 74.4329 96 78.1441 96C80.0814 96 82.7887 95.0716 82.9876 92.9057C83.1306 91.2815 82.0196 90.3544 80.5662 90.4059C79.0838 90.4573 78.4567 91.5656 78.4567 92.3137C79.3406 92.3898 79.7962 92.8542 79.7404 93.7826C79.6828 94.6595 78.9983 95.0712 78.1441 95.0712C76.0748 94.798 75.5966 92.6379 75.5049 91.3435V85.705C75.5111 85.0448 75.4992 84.4423 75.4992 83.8001V80.8313C75.5062 79.5975 75.3788 78.5512 75.0714 77.7563C74.359 75.8409 72.6784 75.0284 70.5702 75.0284C68.2873 75.0284 66.9244 76.0514 66.0677 77.2517V75.8794C66.0619 75.4284 65.7336 75.0582 65.3059 75L65.3001 75.0008L65.2997 75.0038Z" fill="white"/>
<path d="M69.5554 69.0013H69.4409C69.3134 69.0038 69.1789 69.0169 69.0393 69.0397C67.5806 69.2857 66.6568 70.431 67.1206 72.0098C67.3563 72.6898 67.7616 73.2249 68.3014 73.6263C70.8185 75.2585 73.4986 74.0713 75.9158 72.6099C77.756 71.2939 78.4555 72.4282 78.4016 74.4627V85.8394C78.4016 87.6858 78.1408 89.2093 75.9099 89.2093V90H85.5881V89.2093C83.3856 89.2093 83.096 87.6858 83.096 85.8394V82.9669L87.1245 87.627C87.8407 88.4296 87.4429 89.2093 86.4868 89.2093V90H95V89.2093C93.7974 89.1493 93.0955 88.5149 92.0504 87.305L87.0965 81.0673L88.574 79.8894C89.8062 78.9698 91.6455 77.516 93.1815 77.516V76.7241H87.269V77.516C88.6312 77.516 88.7766 78.595 87.6455 79.3324L83.0965 82.5481V71.7732C83.1073 70.0485 81.7284 68.6201 79.0956 69.9475C75.9434 71.5336 71.9973 74.1035 70.7721 71.946C70.5026 71.3662 70.7266 70.6828 71.5192 70.4998C71.3893 69.8499 70.722 69.0228 69.555 69V69.0013H69.5554Z" fill="white"/>
<path d="M97.4068 77C94.0574 76.9936 91.267 78.8902 91.0153 82.5026C90.7926 85.5513 93.0151 88.3706 96.9639 88.9565C101.084 89.3518 102.294 86.9815 104.908 84.6823C106.466 83.3263 108.362 82.3722 110.364 83.2718C110.971 83.6175 111.11 84.4429 110.404 84.9577C110.783 85.4754 111.833 85.9046 113.012 85.1414C114.474 84.1113 114.173 82.3681 113.025 81.4697C112.225 80.8603 111.192 80.7913 110.138 80.9883C109.418 81.1232 108.689 81.3829 108.02 81.6784C104.998 83.0574 103.645 86.2022 100.634 86.5842C98.1455 86.8794 95.457 85.6102 95.3787 83.1753L103.668 83.0679C103.69 82.9645 103.707 82.862 103.722 82.7598C104.2 79.6421 102.159 77.6057 98.7664 77.1026C98.3059 77.0347 97.8521 77.0004 97.4076 77.0004L97.4068 77ZM97.4754 77.9332C97.5263 77.9312 97.5777 77.9332 97.6307 77.936C99.474 78.0531 100.009 79.7176 99.7985 82.1061L95.406 82.1727C95.1707 79.8202 95.9002 77.9611 97.4758 77.9328L97.4754 77.9332Z" fill="white"/>
<path d="M78.8486 48.0004C77.9027 47.9886 76.9311 48.2594 76.1683 48.637C73.9751 49.75 72.2299 52.3969 70.6825 55.9407L68.687 60.8074L67.2246 64.392L65.2419 58.4724C64.7523 57.0155 65.3281 56.5773 66.6214 56.5773V55.7893H58.1991V56.5773C59.6354 56.5773 59.8945 57.248 60.4127 58.4724L60.7576 59.318L58.6592 64.4512L56.2152 58.4729C55.6407 57.0445 56.1004 56.5777 57.3941 56.5777V55.7898H49V56.5777C50.4094 56.5777 50.7829 57.2194 51.3292 58.4729L55.9279 69H57.8824L61.2459 60.6312L64.4651 69H66.4196L69.3896 61.6517L71.6417 56.1892C73.7048 51.5358 76.611 50.268 78.1386 51.4433C78.6721 51.7805 78.847 52.4747 78.2836 53.06C81.7184 54.4611 83.0188 50.2705 81.1343 48.8132C80.4989 48.2417 79.6827 48.0113 78.8486 48.0004Z" fill="white"/>
<path d="M124.04 69.0003C123.152 68.9903 122.239 69.2473 121.523 69.605C119.463 70.6629 117.823 73.176 116.369 76.5405L115.146 79.5828L113.317 84.2606L110.914 78.9443C110.374 77.5884 110.697 77.1452 111.885 77.1452V76.3974H104V77.1452C105.162 77.1452 105.701 77.6439 106.161 78.5015L111.453 89.1892C110.562 91.4036 109.536 92.2896 108.348 92.4277C107.24 92.5107 106.431 92.0963 105.944 91.2104C105.08 91.6248 103.946 92.9539 104.541 94.5878C104.918 95.5839 105.971 96 106.916 96C109.832 96 111.345 91.8472 112.453 88.9401L115.436 81.3247L117.269 76.7771C119.209 72.3589 121.939 71.1554 123.372 72.2713C123.873 72.5914 124.038 73.2507 123.508 73.8062C126.736 75.1362 127.957 71.1574 126.187 69.7732C125.59 69.2302 124.824 69.0116 124.04 69.0011V69.0003Z" fill="white"/>
<path d="M7.19186 48V48.8001C9.44112 48.8001 9.9374 50.2858 9.9374 52.0858V61.4253C7.08486 58.5994 0.687593 58.3667 0.0110034 63.7523C-0.140239 66.1225 1.2774 67.8063 3.66147 67.9979C7.33805 68.1096 7.79641 63.6909 4.6852 63.6654C4.2816 65.2635 1.90596 64.87 1.87141 63.2554C1.8533 61.5786 3.17741 60.4633 4.93292 60.5161C5.00496 60.514 5.07826 60.514 5.1503 60.514C7.87519 60.6125 9.49041 62.5163 11.4886 64.3283C13.5398 66.1884 16.0174 67.8727 19.5718 67.8677V67.8702C24.0105 67.6729 27 65.6293 27 62.3717C27 59.6575 25.0427 57.9711 21.5367 57.2283C23.9027 56.4855 25.3928 55.114 25.3928 52.9427C25.3928 49.4572 22.033 48 15.7811 48H7.19229H7.19186ZM14.9048 49.1433H16.4825C19.5213 49.1433 20.4561 50.9421 20.4561 52.9423C20.4561 55.2853 19.1413 56.7706 16.1316 56.7706H14.9048V49.1437V49.1433ZM14.9048 57.8859H16.7155C20.1338 57.8859 21.7116 59.7708 21.7116 62.3713C21.5565 65.7134 17.9554 66.509 14.9044 64.8424V57.8859H14.9048ZM9.9374 63.8059V63.9422C9.9374 65.7422 9.44112 67.2279 7.19186 67.2279V67.9996H15.6315C13.8331 67.3346 12.4403 66.1373 11.1629 64.9467C10.7471 64.559 10.3423 64.1746 9.9374 63.8059Z" fill="white"/>
<path d="M24.7344 71.0004V71.8007C26.812 71.8007 27.3044 73.2863 27.3044 75.0863V84.4258C26.1359 83.1895 24.3324 82.4493 22.6202 82.4586C20.4184 82.4714 18.3678 83.723 18.0102 86.7521C17.8696 89.1222 19.1958 90.8061 21.4289 90.9979C24.87 91.1094 25.2985 86.6925 22.386 86.6653C22.0093 88.2637 19.7851 87.8697 19.7529 86.2552C19.7358 84.5794 20.9756 83.4635 22.6182 83.5158C22.6866 83.5137 22.7542 83.5137 22.823 83.5137C25.3742 83.6124 26.8861 85.5158 28.7567 87.3277C31.3711 89.9943 34.7483 91.4689 38.2749 90.2926L38.2696 90.29C42.7322 88.881 45 85.4771 45 80.9998C45 75.0859 41.0062 71 33.1835 71H24.7344V71.0004ZM31.927 72.144H33.0756C37.6172 72.144 40.1607 74.7723 40.1607 81.0002C40.1607 85.4422 38.8671 88.0658 36.4788 89.2068L36.4841 89.2107C35.2313 89.7574 33.4987 89.2 31.9282 88.2837V85.9476L31.927 72.1444V72.144ZM27.3048 86.8061V86.9423C27.3048 88.7423 26.8405 90.2279 24.7348 90.2279V90.9996H32.6361C30.952 90.3347 29.6483 89.1375 28.4517 87.9471C28.0635 87.5596 27.6844 87.175 27.3052 86.8061H27.3048Z" fill="white"/>
<path d="M43.6037 56.0004C40.5958 57.0742 40.3802 59.773 40.4199 62.9955C40.4199 66.8003 41.8253 69.278 43.991 69.278C46.1567 69.278 47.5809 66.8003 47.5809 62.9955C47.5809 60.0912 46.7424 57.957 45.3738 57.1198C44.5206 56.5732 43.6766 56.8454 43.1328 57.5859C42.8736 57.9497 42.7179 58.4132 42.715 58.9555C42.7392 60.1729 44.4243 60.6971 44.7969 59.1825C46.9291 59.2028 46.6147 62.5336 44.0952 62.4502C42.4608 62.3049 41.49 61.0355 41.593 59.2475C41.6482 58.2911 42.1946 57.0505 43.4024 56.4653C44.8526 55.8306 46.4087 56.1957 47.74 56.9766C47.7345 56.9766 47.7291 56.9774 47.7241 56.9783C49.7462 58.1819 51 60.3814 51 62.9951C51 66.9946 48.0937 70 43.9906 70C39.8874 70 37 66.9946 37 62.9951C37 58.9955 39.707 56.1836 43.6033 56L43.6037 56.0004Z" fill="white"/>
<path d="M52.6037 75.0004C49.5958 76.0742 49.3802 78.773 49.4199 81.9955C49.4199 85.8003 50.8253 88.278 52.991 88.278C55.1567 88.278 56.5809 85.8003 56.5809 81.9955C56.5809 79.0912 55.7424 76.957 54.3738 76.1198C53.5206 75.5732 52.6766 75.8454 52.1328 76.5859C51.8736 76.9497 51.7179 77.4132 51.715 77.9555C51.7392 79.1729 53.4243 79.6971 53.7969 78.1825C55.9291 78.2028 55.6147 81.5336 53.0952 81.4502C51.4608 81.3049 50.49 80.0355 50.593 78.2475C50.6482 77.2911 51.1946 76.0505 52.4024 75.4653C53.8526 74.8306 55.4087 75.1957 56.74 75.9766C56.7345 75.9766 56.7291 75.9774 56.7241 75.9783C58.7462 77.1819 60 79.3814 60 81.9951C60 85.9946 57.0937 89 52.9906 89C48.8874 89 46 85.9946 46 81.9951C46 77.9955 48.707 75.1836 52.6033 75L52.6037 75.0004Z" fill="white"/>
</svg>
