<svg width="328" height="21" viewBox="0 0 328 21" fill="none" xmlns="http://www.w3.org/2000/svg">
<path d="M36.22 0.230469H2.57999C1.23794 0.230469 0.149994 1.31842 0.149994 2.66047V18.3605C0.149994 19.7025 1.23794 20.7905 2.57999 20.7905H36.22C37.562 20.7905 38.65 19.7025 38.65 18.3605V2.66047C38.65 1.31842 37.562 0.230469 36.22 0.230469Z" fill="white"/>
<path d="M36.21 20.9301H2.58C1.16 20.9301 0 19.7701 0 18.3501V2.66008C0 1.24008 1.16 0.0800781 2.58 0.0800781H36.21C37.63 0.0800781 38.79 1.24008 38.79 2.66008V18.3501C38.79 19.7701 37.63 20.9301 36.21 20.9301ZM2.58 0.380078C1.32 0.380078 0.3 1.40008 0.3 2.66008V18.3501C0.3 19.6101 1.32 20.6301 2.58 20.6301H36.21C37.47 20.6301 38.49 19.6101 38.49 18.3501V2.66008C38.49 1.40008 37.47 0.380078 36.21 0.380078H2.58Z" fill="white"/>
<path d="M84.22 0.230469H50.58C49.238 0.230469 48.15 1.31842 48.15 2.66047V18.3605C48.15 19.7025 49.238 20.7905 50.58 20.7905H84.22C85.5621 20.7905 86.65 19.7025 86.65 18.3605V2.66047C86.65 1.31842 85.5621 0.230469 84.22 0.230469Z" fill="white"/>
<path d="M84.22 20.9301H50.59C49.17 20.9301 48.01 19.7701 48.01 18.3501V2.66008C48.01 1.24008 49.17 0.0800781 50.59 0.0800781H84.22C85.64 0.0800781 86.8 1.24008 86.8 2.66008V18.3501C86.8 19.7701 85.64 20.9301 84.22 20.9301ZM50.58 0.380078C49.32 0.380078 48.3 1.40008 48.3 2.66008V18.3501C48.3 19.6101 49.32 20.6301 50.58 20.6301H84.21C85.47 20.6301 86.49 19.6101 86.49 18.3501V2.66008C86.49 1.40008 85.47 0.380078 84.21 0.380078H50.58Z" fill="white"/>
<path d="M132.23 0.230469H98.59C97.2479 0.230469 96.16 1.31842 96.16 2.66047V18.3605C96.16 19.7025 97.2479 20.7905 98.59 20.7905H132.23C133.572 20.7905 134.66 19.7025 134.66 18.3605V2.66047C134.66 1.31842 133.572 0.230469 132.23 0.230469Z" fill="white"/>
<path d="M132.22 20.9301H98.59C97.17 20.9301 96.01 19.7701 96.01 18.3501V2.66008C96.01 1.24008 97.17 0.0800781 98.59 0.0800781H132.22C133.64 0.0800781 134.8 1.24008 134.8 2.66008V18.3501C134.8 19.7701 133.64 20.9301 132.22 20.9301ZM98.59 0.380078C97.33 0.380078 96.31 1.40008 96.31 2.66008V18.3501C96.31 19.6101 97.33 20.6301 98.59 20.6301H132.22C133.48 20.6301 134.5 19.6101 134.5 18.3501V2.66008C134.5 1.40008 133.48 0.380078 132.22 0.380078H98.59Z" fill="white"/>
<path d="M181 0.230469H146.59C145.248 0.230469 144.16 1.31842 144.16 2.66047V18.3605C144.16 19.7025 145.248 20.7905 146.59 20.7905H181C182.342 20.7905 183.43 19.7025 183.43 18.3605V2.66047C183.43 1.31842 182.342 0.230469 181 0.230469Z" fill="white"/>
<path d="M181 20.9301H146.6C145.18 20.9301 144.02 19.7701 144.02 18.3501V2.66008C144.02 1.24008 145.18 0.0800781 146.6 0.0800781H181C182.42 0.0800781 183.58 1.24008 183.58 2.66008V18.3501C183.58 19.7701 182.42 20.9301 181 20.9301ZM146.59 0.380078C145.33 0.380078 144.31 1.40008 144.31 2.66008V18.3501C144.31 19.6101 145.33 20.6301 146.59 20.6301H180.99C182.25 20.6301 183.27 19.6101 183.27 18.3501V2.66008C183.27 1.40008 182.25 0.380078 180.99 0.380078H146.59Z" fill="white"/>
<path d="M229.01 0.230469H195.37C194.028 0.230469 192.94 1.31842 192.94 2.66047V18.3605C192.94 19.7025 194.028 20.7905 195.37 20.7905H229.01C230.352 20.7905 231.44 19.7025 231.44 18.3605V2.66047C231.44 1.31842 230.352 0.230469 229.01 0.230469Z" fill="white"/>
<path d="M229 20.9301H195.37C193.95 20.9301 192.79 19.7701 192.79 18.3501V2.66008C192.79 1.24008 193.95 0.0800781 195.37 0.0800781H229C230.42 0.0800781 231.58 1.24008 231.58 2.66008V18.3501C231.58 19.7701 230.42 20.9301 229 20.9301ZM195.37 0.380078C194.11 0.380078 193.09 1.40008 193.09 2.66008V18.3501C193.09 19.6101 194.11 20.6301 195.37 20.6301H229C230.26 20.6301 231.28 19.6101 231.28 18.3501V2.66008C231.28 1.40008 230.26 0.380078 229 0.380078H195.37Z" fill="white"/>
<path d="M277.01 0.230469H243.37C242.028 0.230469 240.94 1.31842 240.94 2.66047V18.3605C240.94 19.7025 242.028 20.7905 243.37 20.7905H277.01C278.352 20.7905 279.44 19.7025 279.44 18.3605V2.66047C279.44 1.31842 278.352 0.230469 277.01 0.230469Z" fill="white"/>
<path d="M277.01 20.9301H243.38C241.96 20.9301 240.8 19.7701 240.8 18.3501V2.66008C240.8 1.24008 241.96 0.0800781 243.38 0.0800781H277.01C278.43 0.0800781 279.59 1.24008 279.59 2.66008V18.3501C279.59 19.7701 278.43 20.9301 277.01 20.9301ZM243.37 0.380078C242.11 0.380078 241.09 1.40008 241.09 2.66008V18.3501C241.09 19.6101 242.11 20.6301 243.37 20.6301H277C278.26 20.6301 279.28 19.6101 279.28 18.3501V2.66008C279.28 1.40008 278.26 0.380078 277 0.380078H243.37Z" fill="white"/>
<path d="M324.81 0.150391H291.17C289.828 0.150391 288.74 1.23834 288.74 2.58039V18.2804C288.74 19.6224 289.828 20.7104 291.17 20.7104H324.81C326.152 20.7104 327.24 19.6224 327.24 18.2804V2.58039C327.24 1.23834 326.152 0.150391 324.81 0.150391Z" fill="white"/>
<path d="M324.8 20.85H291.17C289.75 20.85 288.59 19.69 288.59 18.27V2.58C288.59 1.16 289.75 0 291.17 0H324.8C326.22 0 327.38 1.16 327.38 2.58V18.27C327.38 19.69 326.22 20.85 324.8 20.85ZM291.17 0.3C289.91 0.3 288.89 1.32 288.89 2.58V18.27C288.89 19.53 289.91 20.55 291.17 20.55H324.8C326.06 20.55 327.08 19.53 327.08 18.27V2.58C327.08 1.32 326.06 0.3 324.8 0.3H291.17Z" fill="white"/>
<path d="M216.57 4.92971C216.57 4.92971 217.52 5.58971 216.57 5.71971C216.57 5.71971 213.01 6.12971 210.36 8.61971C210.36 8.61971 206.39 12.0997 204.89 15.9097C204.89 15.9097 204.39 15.9097 204.56 15.1597C204.73 14.4097 205.72 11.1397 210.15 7.12971C210.15 7.12971 214.41 3.23971 216.57 4.93971V4.92971ZM205.27 5.42971C205.31 6.33971 206.1 9.81971 206.1 9.81971C206.39 10.5197 206.64 9.81971 206.64 9.81971C207.59 6.95971 205.65 5.30971 205.65 5.30971C205.15 5.01971 205.28 5.42971 205.28 5.42971H205.27Z" fill="#F64D25"/>
<path d="M198.92 10.4891C198.68 10.4891 198.54 10.4691 198.39 10.4391L198.75 8.51906C198.86 8.49906 199.05 8.47906 199.31 8.47906C199.84 8.47906 200.28 8.67906 200.28 9.29906C200.28 9.95906 199.74 10.4891 198.92 10.4891ZM199.21 7.78906C198.7 7.78906 198.17 7.83906 197.83 7.92906L196.83 13.2491H197.94L198.3 11.2991C198.42 11.2991 198.58 11.3291 198.77 11.3291C199.42 11.3291 200.04 11.1691 200.48 10.8191C200.89 10.4991 201.2 9.97906 201.2 9.29906C201.2 8.77906 200.99 8.38906 200.62 8.14906C200.23 7.86906 199.69 7.78906 199.21 7.78906Z" fill="#363636"/>
<path d="M202.4 12.599C202.03 12.599 201.86 12.299 201.86 11.859C201.86 11.029 202.48 9.98898 203.33 9.98898C203.47 9.98898 203.58 10.009 203.68 10.029L203.5 11.059C203.3 12.159 202.8 12.599 202.4 12.599ZM203.67 9.20898C201.68 9.20898 200.77 10.669 200.77 12.029C200.77 12.869 201.27 13.439 201.99 13.439C202.46 13.439 202.98 13.219 203.36 12.549H203.38C203.36 12.839 203.34 13.119 203.33 13.349H204.42C204.4 12.849 204.49 12.049 204.59 11.529L205 9.40898C204.67 9.29898 204.16 9.20898 203.67 9.20898Z" fill="#363636"/>
<path d="M211.13 12.629C210.66 12.629 210.38 12.289 210.38 11.769C210.38 11.089 210.79 9.99898 211.59 9.99898C212.14 9.99898 212.33 10.419 212.33 10.839C212.33 11.589 211.9 12.619 211.14 12.619L211.13 12.629ZM211.71 9.20898C210.27 9.20898 209.29 10.369 209.29 11.769C209.29 12.769 209.98 13.439 211.01 13.439C212.4 13.439 213.42 12.359 213.42 10.879C213.42 9.94898 212.79 9.20898 211.7 9.20898H211.71Z" fill="#363636"/>
<path d="M216.6 9.19922C216.07 9.19922 215.57 9.43922 215.19 9.95922H215.17L215.24 9.28922H214.19C214.14 9.64922 214.07 10.0892 213.97 10.6092L213.46 13.3392H214.65L214.98 11.5392C215.15 10.6492 215.6 10.1592 215.99 10.1592C216.3 10.1592 216.4 10.3592 216.4 10.6492C216.4 10.7992 216.38 10.9592 216.36 11.0992L215.94 13.3392H217.13L217.58 10.9892C217.61 10.7892 217.65 10.4892 217.65 10.3092C217.65 9.60922 217.27 9.19922 216.61 9.19922H216.6Z" fill="#363636"/>
<path d="M219.07 10.999C219.07 10.999 219.01 10.999 218.97 10.999C219.07 10.549 219.45 9.98898 220.12 9.98898C220.45 9.98898 220.65 10.159 220.65 10.399C220.65 10.849 220.12 10.999 219.06 10.999H219.07ZM220.22 9.20898C218.76 9.20898 217.86 10.489 217.86 11.729C217.86 12.789 218.46 13.439 219.61 13.439C220.06 13.439 220.64 13.359 221.12 13.119L221.04 12.259C220.72 12.419 220.34 12.519 219.91 12.519C219.56 12.519 219.29 12.409 219.13 12.209C219.05 12.089 219.01 11.909 219.01 11.799C219.09 11.799 219.17 11.799 219.24 11.799C220.72 11.799 221.63 11.419 221.63 10.439C221.63 9.68898 221.04 9.21898 220.22 9.21898V9.20898Z" fill="#363636"/>
<path d="M222.86 10.999C222.86 10.999 222.8 10.999 222.76 10.999C222.86 10.549 223.24 9.98898 223.91 9.98898C224.24 9.98898 224.44 10.159 224.44 10.399C224.44 10.849 223.91 10.999 222.85 10.999H222.86ZM224.01 9.20898C222.55 9.20898 221.65 10.489 221.65 11.729C221.65 12.789 222.25 13.439 223.4 13.439C223.85 13.439 224.43 13.359 224.91 13.119L224.83 12.259C224.51 12.419 224.14 12.519 223.7 12.519C223.35 12.519 223.08 12.409 222.92 12.209C222.84 12.089 222.8 11.909 222.8 11.799C222.88 11.799 222.96 11.799 223.03 11.799C224.51 11.799 225.42 11.419 225.42 10.439C225.42 9.68898 224.83 9.21898 224.01 9.21898V9.20898Z" fill="#363636"/>
<path d="M228.12 9.19871C227.57 9.19871 227.24 9.58871 226.96 10.1287H226.93C226.96 9.83871 226.99 9.56871 227 9.28871H225.97C225.99 9.70871 225.93 10.5687 225.82 11.1787L225.36 13.3287H226.35L226.61 11.8187C226.76 11.0287 227.16 10.2187 227.91 10.2187C227.98 10.2187 228.04 10.2187 228.09 10.2187L228.34 9.17871C228.27 9.17871 228.2 9.17871 228.12 9.17871V9.19871Z" fill="#363636"/>
<path fill-rule="evenodd" clip-rule="evenodd" d="M103.36 8.5698H105.5C106.65 8.5698 107.08 9.1498 107.02 10.0098C106.91 11.4198 106.06 12.1998 104.92 12.1998H104.35C104.19 12.1998 104.09 12.2998 104.05 12.5798L103.8 14.1998C103.78 14.3098 103.73 14.3698 103.65 14.3698H102.31C102.18 14.3698 102.14 14.2698 102.17 14.0598L102.99 8.8598C103.02 8.6498 103.14 8.5498 103.36 8.5498V8.5698Z" fill="#009DE2"/>
<path fill-rule="evenodd" clip-rule="evenodd" d="M111.27 8.46973C111.99 8.46973 112.66 8.85973 112.57 9.83973C112.46 10.9997 111.84 11.6497 110.85 11.6497H109.99C109.87 11.6497 109.81 11.7497 109.77 11.9597L109.6 13.0197C109.58 13.1797 109.49 13.2597 109.37 13.2597H108.57C108.44 13.2597 108.4 13.1797 108.43 12.9997L109.09 8.76973C109.12 8.55973 109.2 8.47973 109.34 8.47973H111.25L111.27 8.46973ZM109.97 10.7297H110.62C111.03 10.7097 111.3 10.4297 111.32 9.92973C111.34 9.61973 111.12 9.38973 110.79 9.38973H110.18L109.97 10.7297ZM114.74 12.9197C114.81 12.8497 114.89 12.8197 114.88 12.8997L114.85 13.0997C114.84 13.1997 114.88 13.2597 114.97 13.2597H115.68C115.8 13.2597 115.86 13.2097 115.89 13.0297L116.33 10.2897C116.35 10.1497 116.32 10.0797 116.21 10.0797H115.43C115.36 10.0797 115.33 10.1197 115.31 10.2297L115.28 10.3997C115.26 10.4897 115.22 10.4997 115.19 10.4097C115.06 10.0997 114.72 9.95973 114.25 9.96973C113.16 9.98973 112.42 10.8197 112.34 11.8897C112.28 12.7097 112.87 13.3597 113.65 13.3597C114.21 13.3597 114.47 13.1897 114.75 12.9297L114.74 12.9197ZM114.15 12.4997C113.68 12.4997 113.35 12.1197 113.42 11.6597C113.49 11.1997 113.93 10.8197 114.4 10.8197C114.87 10.8197 115.2 11.1997 115.13 11.6597C115.06 12.1197 114.62 12.4997 114.15 12.4997ZM117.72 10.0597H117C116.85 10.0597 116.79 10.1697 116.84 10.3097L117.73 12.9297L116.85 14.1697C116.78 14.2697 116.83 14.3697 116.94 14.3697H117.75C117.87 14.3697 117.93 14.3397 117.99 14.2497L120.74 10.3097C120.82 10.1897 120.78 10.0597 120.65 10.0597H119.89C119.76 10.0597 119.71 10.1097 119.63 10.2197L118.48 11.8797L117.97 10.2197C117.94 10.1197 117.86 10.0597 117.73 10.0597H117.72Z" fill="#113984"/>
<path fill-rule="evenodd" clip-rule="evenodd" d="M123.59 8.46973C124.31 8.46973 124.98 8.85973 124.89 9.83973C124.78 10.9997 124.16 11.6497 123.17 11.6497H122.31C122.19 11.6497 122.13 11.7497 122.09 11.9597L121.92 13.0197C121.9 13.1797 121.81 13.2597 121.69 13.2597H120.89C120.76 13.2597 120.72 13.1797 120.75 12.9997L121.41 8.76973C121.44 8.55973 121.52 8.47973 121.66 8.47973H123.57L123.59 8.46973ZM122.29 10.7297H122.94C123.35 10.7097 123.62 10.4297 123.64 9.92973C123.66 9.61973 123.44 9.38973 123.11 9.38973H122.5L122.29 10.7297ZM127.06 12.9197C127.13 12.8497 127.21 12.8197 127.2 12.8997L127.17 13.0997C127.16 13.1997 127.2 13.2597 127.29 13.2597H128C128.12 13.2597 128.18 13.2097 128.21 13.0297L128.65 10.2897C128.67 10.1497 128.64 10.0797 128.53 10.0797H127.75C127.68 10.0797 127.65 10.1197 127.63 10.2297L127.6 10.3997C127.59 10.4897 127.54 10.4997 127.51 10.4097C127.38 10.0997 127.04 9.95973 126.57 9.96973C125.48 9.98973 124.74 10.8197 124.66 11.8897C124.6 12.7097 125.19 13.3597 125.97 13.3597C126.53 13.3597 126.79 13.1897 127.07 12.9297L127.06 12.9197ZM126.47 12.4997C126 12.4997 125.67 12.1197 125.74 11.6597C125.81 11.1997 126.25 10.8197 126.72 10.8197C127.19 10.8197 127.52 11.1997 127.45 11.6597C127.38 12.1197 126.94 12.4997 126.47 12.4997ZM129.74 13.2597H128.92C128.86 13.2597 128.81 13.2097 128.82 13.1497L129.54 8.58973C129.54 8.52973 129.61 8.47973 129.68 8.47973H130.5C130.57 8.47973 130.61 8.52973 130.6 8.58973L129.88 13.1497C129.88 13.2097 129.81 13.2597 129.74 13.2597Z" fill="#009DE2"/>
<path fill-rule="evenodd" clip-rule="evenodd" d="M102.02 6.77953H104.17C104.77 6.77953 105.49 6.79953 105.97 7.21953C106.29 7.49953 106.46 7.94953 106.42 8.43953C106.29 10.0795 105.31 10.9995 103.99 10.9995H102.93C102.75 10.9995 102.63 11.1195 102.58 11.4395L102.28 13.3195C102.26 13.4395 102.21 13.5095 102.11 13.5195H100.79C100.64 13.5195 100.59 13.4095 100.63 13.1595L101.58 7.12953C101.62 6.88953 101.75 6.76953 102.01 6.76953L102.02 6.77953Z" fill="#113984"/>
<path fill-rule="evenodd" clip-rule="evenodd" d="M102.61 11.2396L102.98 8.86957C103.01 8.65957 103.13 8.55957 103.35 8.55957H105.49C105.84 8.55957 106.13 8.61957 106.36 8.71957C106.14 10.1796 105.2 10.9896 103.97 10.9896H102.91C102.77 10.9896 102.67 11.0596 102.6 11.2396H102.61Z" fill="#172C70"/>
<path d="M172.43 6.38965L174.91 5.94965V15.4896H172.43V6.38965ZM176.06 6.38965V15.4896H178.55V5.94965L176.06 6.38965ZM168.89 15.4896H171.38V8.50965H168.89V15.4896ZM152.46 9.49965C152.15 9.47965 151.42 9.42965 151.42 8.77965C151.42 7.98965 152.47 7.98965 152.86 7.98965C153.55 7.98965 154.45 8.18965 155.08 8.38965C155.08 8.38965 155.44 8.51965 155.74 8.63965H155.77V8.61965V6.47965H155.73C154.98 6.19965 154.1 5.94965 152.47 5.94965C149.67 5.94965 148.67 7.57965 148.67 8.97965C148.67 9.78965 149.02 11.6796 152.22 11.8996C152.49 11.9196 153.21 11.9596 153.21 12.6296C153.21 13.1896 152.62 13.5196 151.62 13.5196C150.53 13.5196 149.47 13.2396 148.83 12.9796V15.2096C149.79 15.4596 150.87 15.5896 152.14 15.5896C154.88 15.5896 156.11 14.0496 156.11 12.5096C156.11 10.7696 154.74 9.64965 152.43 9.48965L152.46 9.49965ZM167.49 8.40965C165.19 8.47965 164.03 9.50965 164.03 11.5596V15.4896H166.54V12.2896C166.54 11.0596 166.7 10.5396 168.16 10.4896V8.44965C167.92 8.39965 167.5 8.40965 167.5 8.40965H167.49ZM160.75 8.49965C160.69 8.63965 160.3 9.75965 159.33 10.9296V5.94965L156.76 6.45965V15.4896H159.33V12.6996C160.07 13.8096 160.44 15.4896 160.44 15.4896H163.51C163.21 14.2296 161.88 11.8996 161.88 11.8996C163.07 10.3896 163.6 8.77965 163.68 8.50965H160.75V8.49965ZM170.14 7.83965C170.82 7.83965 171.37 7.28965 171.37 6.61965C171.37 5.94965 170.82 5.38965 170.14 5.38965C169.46 5.38965 168.92 5.93965 168.92 6.61965C168.92 7.29965 169.47 7.83965 170.14 7.83965Z" fill="#862165"/>
<path d="M16.91 15.9306H14.29L15.93 5.89062H18.54L16.91 15.9306Z" fill="#0066B2"/>
<path d="M12.09 5.89062L9.60001 12.8006L9.31001 11.3106L8.43001 6.79063C8.43001 6.79063 8.32001 5.89062 7.19001 5.89062H3.06001L3.01001 6.06063C3.01001 6.06063 4.27001 6.32063 5.75001 7.21063L8.02001 15.9406H10.75L14.91 5.89062H12.09Z" fill="#0066B2"/>
<path d="M32.67 15.9299H35.07L32.98 5.87988H30.88C29.91 5.87988 29.67 6.62988 29.67 6.62988L25.77 15.9299H28.5L29.05 14.4399H32.38L32.69 15.9299H32.67ZM29.79 12.3799L31.16 8.61988L31.93 12.3799H29.78H29.79Z" fill="#0066B2"/>
<path d="M25.97 8.3002L26.34 6.1402C26.34 6.1402 25.19 5.7002 23.99 5.7002C22.69 5.7002 19.61 6.2702 19.61 9.0302C19.61 11.6302 23.23 11.6602 23.23 13.0202C23.23 14.3802 19.99 14.1402 18.91 13.2802L18.52 15.5402C18.52 15.5402 19.69 16.1102 21.47 16.1102C23.25 16.1102 25.95 15.1902 25.95 12.6702C25.95 10.1502 22.3 9.8102 22.3 8.6802C22.3 7.5502 24.85 7.6902 25.97 8.3102V8.3002Z" fill="#0066B2"/>
<path d="M9.32 11.3201L8.44 6.78012C8.44 6.78012 8.33 5.87012 7.19 5.87012H3.05L3 6.14012C3 6.14012 4.99 6.45012 6.9 7.99012C8.73 9.47012 9.32 11.3101 9.32 11.3101V11.3201Z" fill="#F9A533"/>
<path fill-rule="evenodd" clip-rule="evenodd" d="M67.4799 16.2397C68.8 17.4497 70.5799 18.1797 72.5099 18.1797C76.6599 18.1797 80.0099 14.8297 80.0099 10.6797C80.0099 6.52969 76.6599 3.17969 72.5099 3.17969C70.5799 3.17969 68.8 3.91969 67.4799 5.11969C65.9699 6.49969 65.0099 8.46969 65.0099 10.6797C65.0099 12.8897 65.9699 14.8697 67.4799 16.2397Z" fill="#FCB131"/>
<path fill-rule="evenodd" clip-rule="evenodd" d="M79.0099 14.8494C79.0099 14.7194 79.1099 14.6094 79.2599 14.6094C79.3899 14.6094 79.4999 14.7094 79.4999 14.8494C79.4999 14.9894 79.3999 15.0994 79.2599 15.0994C79.1099 15.0994 79.0099 14.9794 79.0099 14.8494ZM79.2599 15.0394C79.3499 15.0394 79.4399 14.9494 79.4399 14.8494C79.4399 14.7494 79.3499 14.6694 79.2599 14.6694C79.1599 14.6694 79.0699 14.7394 79.0699 14.8494C79.0699 14.9594 79.1599 15.0394 79.2599 15.0394ZM79.2199 14.9694H79.1799V14.7494H79.2699C79.2699 14.7494 79.3099 14.7494 79.3299 14.7594C79.3399 14.7694 79.3599 14.7894 79.3599 14.7994C79.3599 14.8294 79.3499 14.8594 79.3199 14.8594L79.3599 14.9594H79.2999L79.2699 14.8694H79.2299V14.9594L79.2199 14.9694ZM79.2199 14.8394H79.2799C79.2799 14.8394 79.2899 14.8294 79.2899 14.8094C79.2899 14.8094 79.2899 14.7994 79.2799 14.7994H79.2199V14.8394Z" fill="#FCB131"/>
<path fill-rule="evenodd" clip-rule="evenodd" d="M69.91 9.87922C69.88 9.61922 69.84 9.34922 69.78 9.08922H65.19C65.25 8.82922 65.32 8.55922 65.41 8.29922H69.56C69.47 8.03922 69.37 7.76922 69.25 7.50922H65.72C65.85 7.24922 66 6.97922 66.16 6.71922H68.81C68.65 6.43922 68.46 6.17922 68.24 5.92922H66.74C66.96 5.64922 67.23 5.38922 67.49 5.13922C66.17 3.92922 64.4 3.19922 62.46 3.19922C58.31 3.19922 54.96 6.56922 54.96 10.6992C54.96 14.8292 58.31 18.1992 62.46 18.1992C64.4 18.1992 66.17 17.4592 67.49 16.2592C67.75 16.0092 68.02 15.7492 68.25 15.4692H66.74C66.53 15.2192 66.34 14.9592 66.17 14.6792H68.82C68.98 14.4292 69.13 14.1692 69.26 13.8892H65.73C65.61 13.6392 65.51 13.3792 65.42 13.0992H69.57C69.66 12.8392 69.73 12.5692 69.79 12.3092C69.85 12.0492 69.89 11.7792 69.92 11.5192C69.95 11.2592 69.96 10.9892 69.96 10.7292C69.96 10.4692 69.95 10.1992 69.92 9.93922L69.91 9.87922Z" fill="#ED1C2E"/>
<path fill-rule="evenodd" clip-rule="evenodd" d="M79.0099 12.4099C79.0099 12.2799 79.1099 12.1699 79.2599 12.1699C79.3899 12.1699 79.4999 12.2699 79.4999 12.4099C79.4999 12.5499 79.3999 12.6599 79.2599 12.6599C79.1099 12.6599 79.0099 12.5399 79.0099 12.4099ZM79.2599 12.5999C79.3499 12.5999 79.4399 12.5099 79.4399 12.4099C79.4399 12.3099 79.3499 12.2299 79.2599 12.2299C79.1599 12.2299 79.0699 12.2999 79.0699 12.4099C79.0699 12.5199 79.1599 12.5999 79.2599 12.5999ZM79.2199 12.5299H79.1799V12.3099H79.2699C79.2699 12.3099 79.3099 12.3099 79.3299 12.3199C79.3399 12.3299 79.3599 12.3499 79.3599 12.3599C79.3599 12.3899 79.3499 12.4199 79.3199 12.4199L79.3599 12.5199H79.2999L79.2699 12.4299H79.2299V12.5199L79.2199 12.5299ZM79.2199 12.3999H79.2799C79.2799 12.3999 79.2899 12.3899 79.2899 12.3699C79.2899 12.3699 79.2899 12.3599 79.2799 12.3599H79.2199V12.3999Z" fill="white"/>
<path fill-rule="evenodd" clip-rule="evenodd" d="M64.94 12.8393C64.69 12.9093 64.51 12.9393 64.32 12.9393C63.94 12.9393 63.7 12.6993 63.7 12.2593C63.7 12.1693 63.7099 12.0793 63.7299 11.9793L63.77 11.6893L63.81 11.4393L64.16 9.31934H64.94L64.8499 9.78934H65.3399L65.22 10.5693H64.73L64.51 11.8293C64.51 11.8293 64.5 11.9193 64.5 11.9493C64.5 12.1093 64.5899 12.1893 64.7799 12.1893C64.8799 12.1893 64.9399 12.1793 65.0299 12.1593L64.93 12.8393H64.94Z" fill="#003473"/>
<path fill-rule="evenodd" clip-rule="evenodd" d="M67.45 12.81C67.17 12.9 66.89 12.94 66.61 12.94C65.74 12.94 65.23 12.47 65.23 11.56C65.23 10.5 65.83 9.70996 66.66 9.70996C67.32 9.70996 67.75 10.15 67.75 10.84C67.75 11.06 67.72 11.28 67.65 11.6H66.03V11.69C66.03 12.06 66.27 12.23 66.74 12.23C67.03 12.23 67.3 12.17 67.59 12.04L67.46 12.8L67.45 12.81ZM66.96 10.97V10.82C66.96 10.57 66.81 10.42 66.58 10.42C66.32 10.42 66.14 10.61 66.07 10.96H66.97L66.96 10.97Z" fill="#003473"/>
<path fill-rule="evenodd" clip-rule="evenodd" d="M58.72 12.8793H57.91L58.38 9.95934L57.33 12.8793H56.77L56.72 9.96934L56.22 12.8793H55.44L56.07 9.06934H57.23L57.27 11.4293L58.05 9.06934H59.35L58.72 12.8793Z" fill="#003473"/>
<path fill-rule="evenodd" clip-rule="evenodd" d="M60.67 11.4997C60.58 11.4997 60.57 11.4897 60.51 11.4897C60.05 11.4897 59.82 11.6697 59.82 11.9597C59.82 12.1697 59.94 12.2797 60.11 12.2797C60.51 12.2797 60.65 11.9597 60.67 11.4997ZM61.32 12.8797H60.61V12.5597C60.45 12.8097 60.21 12.9397 59.77 12.9397C59.37 12.9397 59.05 12.5897 59.05 12.0897C59.05 11.9397 59.08 11.8097 59.11 11.6897C59.24 11.1997 59.73 10.9097 60.46 10.8997C60.55 10.8997 60.7 10.8997 60.81 10.9097C60.84 10.8097 60.84 10.7597 60.84 10.6997C60.84 10.4897 60.68 10.4397 60.3 10.4397C60.06 10.4397 59.81 10.4797 59.62 10.5297L59.52 10.5697H59.46L59.58 9.87973C59.96 9.75973 60.23 9.71973 60.52 9.71973C61.23 9.71973 61.59 10.0297 61.59 10.6297C61.59 10.7797 61.6 10.8897 61.55 11.2297L61.39 12.3297L61.36 12.5197L61.33 12.6797V12.8697H61.32V12.8797Z" fill="#003473"/>
<path fill-rule="evenodd" clip-rule="evenodd" d="M71.36 9.81977C71.58 9.81977 71.79 9.87977 72.08 10.0298L72.21 9.18976C72.14 9.15976 72.12 9.15977 72.02 9.11977L71.68 9.04977C71.58 9.01977 71.46 9.00977 71.31 9.00977C70.91 9.00977 70.68 9.00977 70.43 9.16977C70.3 9.23977 70.14 9.35977 69.94 9.56977L69.85 9.53977L69.01 10.1298L69.05 9.80977H68.18L67.69 12.8998H68.5L68.79 11.2398C68.79 11.2398 68.91 10.9998 68.97 10.9298C69.12 10.7398 69.25 10.7398 69.41 10.7398H69.47C69.46 10.9198 69.44 11.1198 69.44 11.3298C69.44 12.3398 70.01 12.9798 70.9 12.9798C71.12 12.9798 71.31 12.9498 71.61 12.8598L71.76 11.9898C71.5 12.1198 71.27 12.1798 71.07 12.1798C70.6 12.1798 70.32 11.8398 70.32 11.2498C70.32 10.4298 70.73 9.83977 71.35 9.83977L71.36 9.81977Z" fill="#003473"/>
<path fill-rule="evenodd" clip-rule="evenodd" d="M78.23 9.06934L78.05 10.1593C77.86 9.86934 77.62 9.72934 77.31 9.72934C76.88 9.72934 76.49 9.96934 76.24 10.4193L75.73 10.1093L75.77 9.78934H74.9L74.4 12.8793H75.22L75.48 11.2193C75.48 11.2193 75.69 10.9793 75.74 10.9093C75.86 10.7593 75.99 10.7193 76.09 10.7193C76 10.9793 75.94 11.2893 75.94 11.6293C75.94 12.4093 76.35 12.9193 76.94 12.9193C77.23 12.9193 77.47 12.8193 77.69 12.5693L77.65 12.8793H78.43L79.05 9.06934H78.21H78.23ZM77.24 12.1393C76.96 12.1393 76.83 11.9493 76.83 11.5393C76.83 10.9393 77.08 10.4993 77.46 10.4993C77.74 10.4993 77.89 10.7193 77.89 11.1193C77.89 11.7193 77.63 12.1493 77.24 12.1493V12.1393Z" fill="#003473"/>
<path fill-rule="evenodd" clip-rule="evenodd" d="M73.49 11.4997C73.4 11.4997 73.39 11.4897 73.33 11.4897C72.87 11.4897 72.64 11.6697 72.64 11.9597C72.64 12.1697 72.76 12.2797 72.93 12.2797C73.33 12.2797 73.47 11.9597 73.49 11.4997ZM74.14 12.8797H73.43V12.5597C73.27 12.8097 73.03 12.9397 72.59 12.9397C72.19 12.9397 71.84 12.5997 71.84 12.0897C71.85 11.3497 72.4 10.8997 73.28 10.8997C73.37 10.8997 73.52 10.8997 73.63 10.9097C73.66 10.8097 73.66 10.7597 73.66 10.6997C73.66 10.4897 73.5 10.4397 73.12 10.4397C72.88 10.4397 72.62 10.4797 72.44 10.5297L72.32 10.5697H72.28L72.4 9.87973C72.78 9.75973 73.05 9.71973 73.34 9.71973C74.05 9.71973 74.41 10.0297 74.41 10.6297C74.41 10.7797 74.42 10.8897 74.37 11.2297L74.21 12.3297L74.18 12.5197L74.15 12.6797V12.7797L74.14 12.8697V12.8797Z" fill="#003473"/>
<path fill-rule="evenodd" clip-rule="evenodd" d="M63.01 10.4597C63.17 10.4597 63.39 10.4697 63.63 10.4997L63.75 9.77973C63.51 9.74973 63.21 9.71973 63.01 9.71973C62.11 9.71973 61.8 10.2097 61.8 10.7797C61.8 11.1497 61.98 11.4297 62.4 11.6197C62.74 11.7797 62.8 11.8097 62.8 11.9397C62.8 12.1297 62.62 12.2497 62.3 12.2497C62.06 12.2497 61.84 12.2097 61.58 12.1297L61.49 12.8397H61.5L61.65 12.8697C61.65 12.8697 61.77 12.8997 61.86 12.8997C62.07 12.9297 62.23 12.9297 62.33 12.9297C63.23 12.9297 63.61 12.5897 63.61 11.8997C63.61 11.4697 63.4 11.2197 62.99 11.0497C62.65 10.8897 62.61 10.8697 62.61 10.7297C62.61 10.5897 62.76 10.4697 63.01 10.4697V10.4597Z" fill="#003473"/>
<path fill-rule="evenodd" clip-rule="evenodd" d="M72.44 8.95953L72.31 9.77953C72.02 9.62953 71.81 9.56953 71.59 9.56953C70.97 9.56953 70.55 10.1595 70.55 10.9995C70.55 11.5695 70.84 11.9295 71.31 11.9295C71.52 11.9295 71.74 11.8695 72 11.7395L71.85 12.6095C71.56 12.6795 71.36 12.7095 71.13 12.7095C70.26 12.7095 69.72 12.0895 69.72 11.0795C69.72 9.70953 70.47 8.76953 71.54 8.76953C71.69 8.76953 71.8 8.77953 71.91 8.79953L72.25 8.88953C72.35 8.92953 72.37 8.92953 72.44 8.95953Z" fill="white"/>
<path fill-rule="evenodd" clip-rule="evenodd" d="M69.83 9.52953C69.83 9.52953 69.77 9.51953 69.74 9.51953C69.48 9.51953 69.33 9.64953 69.08 10.0195L69.15 9.54953H68.4L67.91 12.6495H68.72C69.01 10.7495 69.09 10.4295 69.48 10.4295H69.54C69.61 10.0595 69.7 9.77953 69.85 9.52953H69.82H69.83Z" fill="white"/>
<path fill-rule="evenodd" clip-rule="evenodd" d="M65.14 12.5993C64.92 12.6693 64.74 12.6993 64.55 12.6993C64.14 12.6993 63.9 12.4593 63.9 12.0193C63.9 11.9293 63.91 11.8393 63.93 11.7393L63.97 11.4293L64.01 11.1893L64.36 9.06934H65.17L65.08 9.52934H65.49L65.37 10.2893H64.96L64.74 11.5693C64.74 11.6293 64.73 11.6693 64.73 11.6993C64.73 11.8593 64.82 11.9393 65.01 11.9393C65.11 11.9393 65.17 11.9293 65.23 11.9093L65.13 12.5893L65.14 12.5993Z" fill="white"/>
<path fill-rule="evenodd" clip-rule="evenodd" d="M62.0099 10.5293C62.0099 10.9093 62.2 11.1893 62.63 11.3793C62.97 11.5393 63.0099 11.5893 63.0099 11.7293C63.0099 11.9193 62.86 12.0093 62.54 12.0093C62.3 12.0093 62.08 11.9693 61.82 11.8793L61.7 12.5993H61.74L61.8899 12.6293C61.8899 12.6293 62.0099 12.6593 62.0999 12.6593C62.2899 12.6693 62.45 12.6893 62.56 12.6893C63.41 12.6893 63.81 12.3693 63.81 11.6593C63.81 11.2293 63.65 10.9793 63.24 10.7893C62.9 10.6393 62.86 10.5993 62.86 10.4693C62.86 10.2893 62.9899 10.2093 63.2599 10.2093C63.4199 10.2093 63.6399 10.2393 63.8499 10.2693L63.97 9.54926C63.76 9.51926 63.44 9.48926 63.25 9.48926C62.34 9.48926 62.0299 9.95926 62.0299 10.5293H62.0099Z" fill="white"/>
<path fill-rule="evenodd" clip-rule="evenodd" d="M78.66 12.6498H77.88L77.92 12.3398C77.7 12.5798 77.46 12.6798 77.17 12.6798C76.58 12.6798 76.18 12.1798 76.18 11.3998C76.18 10.3698 76.78 9.49984 77.5 9.49984C77.82 9.49984 78.06 9.62984 78.28 9.92984L78.46 8.83984H79.27L78.65 12.6498H78.66ZM77.45 11.9098C77.83 11.9098 78.1 11.4798 78.1 10.8698C78.1 10.4898 77.95 10.2698 77.67 10.2698C77.3 10.2698 77.04 10.6998 77.04 11.3098C77.04 11.7098 77.17 11.9098 77.45 11.9098Z" fill="white"/>
<path fill-rule="evenodd" clip-rule="evenodd" d="M67.63 12.5697C67.35 12.6597 67.09 12.6997 66.79 12.6997C65.88 12.6997 65.41 12.2097 65.41 11.3197C65.41 10.2497 66.01 9.46973 66.84 9.46973C67.5 9.46973 67.93 9.90973 67.93 10.5997C67.93 10.8197 67.9 11.0397 67.84 11.3597H66.22C66.22 11.3597 66.21 11.4197 66.21 11.4497C66.21 11.7997 66.45 11.9897 66.93 11.9897C67.21 11.9897 67.47 11.9297 67.77 11.7997L67.64 12.5597L67.63 12.5697ZM67.17 10.7297V10.5697C67.17 10.3197 67.04 10.1697 66.79 10.1697C66.54 10.1697 66.35 10.3797 66.28 10.7297H67.18H67.17Z" fill="white"/>
<path fill-rule="evenodd" clip-rule="evenodd" d="M58.92 12.6498H58.11L58.58 9.71984L57.54 12.6498H56.98L56.92 9.73984L56.42 12.6498H55.67L56.3 8.83984H57.47L57.51 11.1898L58.29 8.83984H59.55L58.92 12.6498Z" fill="white"/>
<path fill-rule="evenodd" clip-rule="evenodd" d="M60.94 11.2595C60.85 11.2495 60.81 11.2495 60.75 11.2495C60.29 11.2495 60.06 11.4095 60.06 11.7195C60.06 11.9095 60.18 12.0395 60.35 12.0395C60.69 12.0395 60.92 11.7195 60.94 11.2595ZM61.53 12.6395H60.85V12.3195C60.66 12.5695 60.39 12.6895 60.01 12.6895C59.57 12.6895 59.27 12.3495 59.27 11.8495C59.27 11.0995 59.78 10.6595 60.7 10.6595C60.79 10.6595 60.91 10.6595 61.02 10.6695C61.05 10.5795 61.05 10.5395 61.05 10.4795C61.05 10.2695 60.92 10.1995 60.54 10.1995C60.3 10.1995 60.04 10.2295 59.86 10.2895L59.74 10.3195H59.67L59.79 9.63949C60.2 9.51949 60.47 9.47949 60.76 9.47949C61.47 9.47949 61.83 9.78949 61.83 10.3795C61.83 10.5395 61.82 10.6595 61.76 10.9995L61.6 12.0995L61.57 12.2895V12.4495L61.54 12.5495V12.6395H61.53Z" fill="white"/>
<path fill-rule="evenodd" clip-rule="evenodd" d="M73.76 11.2595C73.67 11.2495 73.63 11.2495 73.57 11.2495C73.11 11.2495 72.88 11.4095 72.88 11.7195C72.88 11.9095 73 12.0395 73.17 12.0395C73.49 12.0395 73.74 11.7195 73.76 11.2595ZM74.35 12.6395H73.67V12.3195C73.48 12.5695 73.2 12.6895 72.83 12.6895C72.39 12.6895 72.08 12.3495 72.08 11.8495C72.08 11.0995 72.61 10.6595 73.52 10.6595C73.61 10.6595 73.73 10.6595 73.84 10.6695C73.87 10.5795 73.87 10.5395 73.87 10.4795C73.87 10.2695 73.74 10.1995 73.36 10.1995C73.12 10.1995 72.86 10.2295 72.68 10.2895L72.56 10.3195H72.49L72.61 9.63949C73.02 9.51949 73.29 9.47949 73.58 9.47949C74.29 9.47949 74.65 9.78949 74.65 10.3795C74.65 10.5395 74.64 10.6595 74.58 10.9995L74.42 12.0995L74.39 12.2895L74.36 12.4495V12.5495L74.35 12.6395Z" fill="white"/>
<path fill-rule="evenodd" clip-rule="evenodd" d="M76.52 9.52953C76.52 9.52953 76.48 9.51953 76.45 9.51953C76.19 9.51953 76.02 9.64953 75.77 10.0195L75.84 9.54953H75.1L74.6 12.6495H75.42C75.7 10.7495 75.79 10.4295 76.17 10.4295H76.23C76.3 10.0595 76.41 9.77953 76.54 9.52953H76.51H76.52Z" fill="white"/>
<path fill-rule="evenodd" clip-rule="evenodd" d="M256.96 13.8797C255.73 14.7897 253.94 15.2697 252.4 15.2697C250.24 15.2697 248.3 14.4697 246.83 13.1497C246.71 13.0497 246.82 12.8997 246.96 12.9797C248.55 13.8997 250.51 14.4597 252.53 14.4597C253.9 14.4597 255.4 14.1797 256.78 13.5897C256.99 13.4997 257.16 13.7297 256.96 13.8797Z" fill="#F8991D"/>
<path fill-rule="evenodd" clip-rule="evenodd" d="M257.47 13.2903C257.31 13.0903 256.43 13.1903 256.03 13.2403C255.91 13.2503 255.89 13.1503 256 13.0703C256.71 12.5703 257.86 12.7203 258 12.8803C258.14 13.0503 257.96 14.2103 257.3 14.7603C257.2 14.8503 257.1 14.8003 257.15 14.6903C257.3 14.3203 257.63 13.4903 257.47 13.2803V13.2903Z" fill="#F8991D"/>
<path fill-rule="evenodd" clip-rule="evenodd" d="M256.06 9.5707V9.0907C256.06 9.0207 256.12 8.9707 256.18 8.9707H258.34C258.41 8.9707 258.46 9.0207 258.46 9.0907V9.5007C258.46 9.5707 258.4 9.6607 258.3 9.8007L257.18 11.4007C257.59 11.4007 258.03 11.4507 258.41 11.6607C258.49 11.7107 258.52 11.7807 258.52 11.8507V12.3607C258.52 12.4307 258.44 12.5107 258.36 12.4707C257.7 12.1207 256.81 12.0807 256.08 12.4707C256 12.5107 255.93 12.4307 255.93 12.3607V11.8707C255.93 11.7907 255.93 11.6607 256.01 11.5407L257.31 9.6807H256.18C256.11 9.6807 256.06 9.6307 256.06 9.5607V9.5707Z" fill="#333E47"/>
<path fill-rule="evenodd" clip-rule="evenodd" d="M248.19 12.5802H247.53C247.47 12.5802 247.42 12.5302 247.41 12.4702V9.10016C247.41 9.03016 247.47 8.98016 247.54 8.98016H248.15C248.21 8.98016 248.27 9.03016 248.27 9.09016V9.53016H248.28C248.44 9.10016 248.74 8.91016 249.14 8.91016C249.54 8.91016 249.81 9.11016 249.99 9.53016C250.15 9.10016 250.51 8.91016 250.9 8.91016C251.18 8.91016 251.48 9.02016 251.66 9.28016C251.87 9.56016 251.83 9.97016 251.83 10.3402V12.4702C251.83 12.5402 251.77 12.5902 251.7 12.5902H251.04C250.97 12.5902 250.92 12.5302 250.92 12.4702V10.6802C250.92 10.5402 250.93 10.1802 250.9 10.0502C250.85 9.82016 250.7 9.76016 250.51 9.76016C250.35 9.76016 250.19 9.87016 250.12 10.0402C250.05 10.2102 250.06 10.4902 250.06 10.6902V12.4802C250.06 12.5502 250 12.6002 249.93 12.6002H249.27C249.2 12.6002 249.15 12.5402 249.15 12.4802V10.6902C249.15 10.3102 249.21 9.76016 248.74 9.76016C248.27 9.76016 248.29 10.3002 248.29 10.6902V12.4802C248.29 12.5502 248.23 12.6002 248.16 12.6002L248.19 12.5802Z" fill="#333E47"/>
<path fill-rule="evenodd" clip-rule="evenodd" d="M260.33 9.60039C259.85 9.60039 259.82 10.2604 259.82 10.6704C259.82 11.0804 259.82 11.9604 260.33 11.9604C260.84 11.9604 260.86 11.2504 260.86 10.8204C260.86 10.5404 260.85 10.2004 260.76 9.93039C260.69 9.70039 260.54 9.60039 260.33 9.60039ZM260.33 8.91039C261.3 8.91039 261.83 9.75039 261.83 10.8104C261.83 11.8704 261.25 12.6504 260.33 12.6504C259.41 12.6504 258.85 11.8104 258.85 10.7704C258.85 9.73039 259.38 8.90039 260.33 8.90039V8.91039Z" fill="#333E47"/>
<path fill-rule="evenodd" clip-rule="evenodd" d="M263.09 12.5802H262.44C262.37 12.5802 262.32 12.5202 262.32 12.4602V9.09016C262.32 9.03016 262.38 8.98016 262.45 8.98016H263.06C263.12 8.98016 263.16 9.02016 263.18 9.07016V9.59016H263.19C263.37 9.13016 263.63 8.91016 264.08 8.91016C264.37 8.91016 264.66 9.02016 264.85 9.31016C265.02 9.58016 265.02 10.0302 265.02 10.3602V12.4802C265.02 12.5402 264.96 12.5902 264.89 12.5902H264.23C264.17 12.5902 264.12 12.5402 264.11 12.4802V10.6502C264.11 10.2802 264.15 9.74016 263.7 9.74016C263.54 9.74016 263.39 9.85016 263.32 10.0102C263.23 10.2202 263.22 10.4202 263.22 10.6502V12.4602C263.22 12.5302 263.16 12.5802 263.09 12.5802Z" fill="#333E47"/>
<path fill-rule="evenodd" clip-rule="evenodd" d="M255 12.5704C255 12.5704 254.89 12.6104 254.85 12.5904C254.63 12.4104 254.59 12.3204 254.47 12.1504C254.11 12.5204 253.85 12.6304 253.39 12.6304C252.84 12.6304 252.41 12.2904 252.41 11.6104C252.41 11.0804 252.7 10.7104 253.11 10.5404C253.47 10.3804 253.96 10.3604 254.34 10.3104V10.2204C254.34 10.0604 254.35 9.88035 254.26 9.74035C254.18 9.62035 254.03 9.57035 253.89 9.57035C253.64 9.57035 253.42 9.70035 253.36 9.96035C253.35 10.0204 253.31 10.0804 253.25 10.0804L252.61 10.0104C252.56 10.0004 252.5 9.95035 252.51 9.87035C252.65 9.11035 253.33 8.87035 253.95 8.86035H254C254.32 8.86035 254.72 8.95035 254.97 9.19035C255.29 9.49035 255.26 9.89035 255.26 10.3204V11.3404C255.26 11.6504 255.39 11.7804 255.51 11.9504C255.55 12.0104 255.56 12.0804 255.51 12.1204C255.38 12.2304 255.14 12.4404 255.01 12.5604L255 12.5704ZM254.34 10.9704C254.34 11.2304 254.34 11.4404 254.22 11.6704C254.12 11.8504 253.95 11.9704 253.77 11.9704C253.52 11.9704 253.37 11.7804 253.37 11.4904C253.37 10.9304 253.87 10.8304 254.35 10.8304V10.9704H254.34Z" fill="#333E47"/>
<path fill-rule="evenodd" clip-rule="evenodd" d="M246.39 12.5704C246.39 12.5704 246.28 12.6104 246.23 12.5904C246.01 12.4104 245.97 12.3204 245.85 12.1504C245.49 12.5204 245.23 12.6304 244.77 12.6304C244.22 12.6304 243.79 12.2904 243.79 11.6104C243.79 11.0804 244.08 10.7104 244.49 10.5404C244.85 10.3804 245.34 10.3604 245.72 10.3104V10.2204C245.72 10.0604 245.73 9.88035 245.64 9.74035C245.56 9.62035 245.41 9.57035 245.27 9.57035C245.02 9.57035 244.8 9.70035 244.74 9.96035C244.73 10.0204 244.69 10.0804 244.63 10.0804L243.99 10.0104C243.94 10.0004 243.88 9.95035 243.89 9.87035C244.03 9.11035 244.71 8.87035 245.33 8.86035H245.38C245.7 8.86035 246.1 8.95035 246.35 9.19035C246.67 9.49035 246.64 9.89035 246.64 10.3204V11.3404C246.64 11.6504 246.77 11.7804 246.89 11.9504C246.93 12.0104 246.94 12.0804 246.89 12.1204C246.76 12.2304 246.52 12.4404 246.39 12.5604V12.5704ZM245.73 10.9704C245.73 11.2304 245.73 11.4404 245.61 11.6704C245.51 11.8504 245.34 11.9704 245.16 11.9704C244.91 11.9704 244.76 11.7804 244.76 11.4904C244.76 10.9304 245.26 10.8304 245.74 10.8304V10.9704H245.73Z" fill="#333E47"/>
<path fill-rule="evenodd" clip-rule="evenodd" d="M273.99 13.7902V13.5402C273.99 13.4702 274.02 13.4202 274.1 13.4302C274.24 13.4502 274.43 13.4702 274.57 13.4402C274.75 13.4002 274.88 13.2802 274.96 13.1002C275.07 12.8502 275.14 12.6602 275.18 12.5302L273.81 9.15023C273.79 9.09023 273.78 8.99023 273.89 8.99023H274.37C274.46 8.99023 274.5 9.05023 274.52 9.10023L275.51 11.8502L276.46 9.10023C276.48 9.04023 276.52 8.99023 276.61 8.99023H277.06C277.17 8.99023 277.17 9.10023 277.14 9.15023L275.78 12.6402C275.6 13.1002 275.37 13.8402 274.84 13.9702C274.58 14.0402 274.24 14.0102 274.05 13.9302C274 13.9102 273.98 13.8402 273.98 13.8002L273.99 13.7902Z" fill="#333E47"/>
<path fill-rule="evenodd" clip-rule="evenodd" d="M273.35 12.3806C273.35 12.4406 273.3 12.4906 273.24 12.4906H272.9C272.83 12.4906 272.78 12.4406 272.77 12.3806L272.74 12.1506C272.59 12.2806 272.4 12.4006 272.19 12.4806C271.79 12.6306 271.34 12.6606 270.95 12.4206C270.67 12.2506 270.52 11.9106 270.52 11.5706C270.52 11.3006 270.6 11.0406 270.79 10.8406C271.03 10.5806 271.39 10.4506 271.82 10.4506C272.08 10.4506 272.45 10.4806 272.72 10.5706V10.1106C272.72 9.64062 272.52 9.44062 272 9.44062C271.6 9.44062 271.3 9.50062 270.87 9.63062C270.8 9.63062 270.76 9.58063 270.76 9.52063V9.26062C270.76 9.20062 270.81 9.14062 270.87 9.12062C271.17 8.99062 271.6 8.91062 272.06 8.89062C272.65 8.89062 273.36 9.02062 273.36 9.94062V12.4006L273.35 12.3806ZM272.7 11.7106V11.0106C272.47 10.9506 272.1 10.9206 271.96 10.9206C271.73 10.9206 271.48 10.9706 271.35 11.1106C271.25 11.2106 271.21 11.3606 271.21 11.5006C271.21 11.6906 271.27 11.8706 271.42 11.9606C271.59 12.0806 271.86 12.0606 272.12 11.9906C272.36 11.9206 272.59 11.8006 272.71 11.6906L272.7 11.7106Z" fill="#333E47"/>
<path fill-rule="evenodd" clip-rule="evenodd" d="M268.39 9.44062C269.14 9.44062 269.34 10.0306 269.34 10.7006C269.34 11.1506 269.26 11.5606 269.03 11.7906C268.85 11.9606 268.66 12.0106 268.36 12.0106C268.1 12.0106 267.75 11.8706 267.49 11.6806V9.76062C267.76 9.55062 268.1 9.44062 268.39 9.44062ZM267.38 13.9206H266.93C266.87 13.9206 266.82 13.8706 266.82 13.8106V9.11062C266.82 9.05062 266.87 9.00062 266.93 9.00062H267.28C267.35 9.00062 267.4 9.05062 267.41 9.11062L267.45 9.36062C267.77 9.07062 268.19 8.89062 268.59 8.89062C269.7 8.89062 270.07 9.81062 270.07 10.7606C270.07 11.7806 269.51 12.6006 268.57 12.6006C268.17 12.6006 267.8 12.4506 267.51 12.2006V13.8206C267.51 13.8806 267.46 13.9306 267.4 13.9306L267.38 13.9206Z" fill="#333E47"/>
<path d="M307.15 7.17008V10.2501H309.05C309.5 10.2501 309.88 10.1001 310.17 9.79008C310.47 9.49008 310.63 9.12008 310.63 8.70008C310.63 8.28008 310.48 7.93008 310.17 7.63008C309.87 7.32008 309.5 7.16008 309.05 7.16008H307.15V7.17008ZM307.15 11.3401V14.9201H306.01V6.08008H309.02C309.79 6.08008 310.43 6.34008 310.97 6.84008C311.51 7.35008 311.79 7.97008 311.79 8.70008C311.79 9.43008 311.52 10.0701 310.97 10.5701C310.44 11.0701 309.79 11.3201 309.02 11.3201H307.14L307.15 11.3401Z" fill="#5F6368"/>
<path d="M312.94 13.0599C312.94 13.3599 313.07 13.5999 313.32 13.7999C313.57 13.9999 313.86 14.0999 314.2 14.0999C314.68 14.0999 315.1 13.9199 315.48 13.5699C315.85 13.2199 316.04 12.7999 316.04 12.3299C315.69 12.0499 315.19 11.9099 314.56 11.9099C314.1 11.9099 313.71 12.0199 313.41 12.2399C313.1 12.4599 312.95 12.7399 312.95 13.0699L312.94 13.0599ZM314.41 8.66992C315.25 8.66992 315.91 8.88992 316.4 9.33992C316.89 9.78992 317.13 10.3999 317.13 11.1799V14.8999H316.04V14.0599H315.99C315.52 14.7499 314.9 15.0999 314.11 15.0999C313.44 15.0999 312.88 14.8999 312.44 14.5099C311.99 14.1099 311.77 13.6199 311.77 13.0299C311.77 12.4099 312.01 11.9099 312.48 11.5399C312.95 11.1699 313.59 10.9799 314.38 10.9799C315.05 10.9799 315.61 11.0999 316.05 11.3499V11.0899C316.05 10.6999 315.89 10.3599 315.58 10.0899C315.27 9.80992 314.9 9.67992 314.48 9.67992C313.85 9.67992 313.34 9.94992 312.97 10.4799L311.97 9.84992C312.52 9.05992 313.34 8.66992 314.42 8.66992H314.41Z" fill="#5F6368"/>
<path d="M323.36 8.87012L319.57 17.5801H318.4L319.81 14.5301L317.31 8.87012H318.55L320.35 13.2101H320.38L322.13 8.87012H323.36Z" fill="#5F6368"/>
<path d="M302.57 10.57C302.57 10.21 302.54 9.87004 302.48 9.54004H297.69V11.49H300.43C300.31 12.13 299.96 12.67 299.42 13.03V14.3H301.06C302.02 13.42 302.57 12.11 302.57 10.57Z" fill="#4285F4"/>
<path d="M297.69 15.5199C299.06 15.5199 300.21 15.0699 301.06 14.2899L299.42 13.0199C298.96 13.3299 298.38 13.5099 297.69 13.5099C296.37 13.5099 295.24 12.6199 294.84 11.4199H293.15V12.7299C293.99 14.3899 295.7 15.5299 297.69 15.5299V15.5199Z" fill="#34A853"/>
<path d="M294.84 11.4199C294.74 11.1099 294.68 10.7899 294.68 10.4499C294.68 10.1099 294.74 9.78992 294.84 9.47992V8.16992H293.15C292.8 8.85992 292.61 9.62992 292.61 10.4499C292.61 11.2699 292.81 12.0399 293.15 12.7299L294.84 11.4199Z" fill="#FABB05"/>
<path d="M297.69 7.38012C298.44 7.38012 299.11 7.64012 299.64 8.14012L301.09 6.69012C300.21 5.87012 299.06 5.37012 297.69 5.37012C295.71 5.37012 293.99 6.51012 293.15 8.17012L294.84 9.48012C295.24 8.28012 296.37 7.39012 297.69 7.39012V7.38012Z" fill="#E94235"/>
</svg>
