<svg width="200" height="24" viewBox="0 0 200 24" fill="none" xmlns="http://www.w3.org/2000/svg">
<path d="M16.3423 11.1235C16.2367 11.0738 16.1296 11.0255 16.0225 10.9802C15.8337 7.56625 13.9375 5.61292 10.7521 5.59245C10.7372 5.59245 10.7238 5.59245 10.7089 5.59245C8.80391 5.59245 7.21861 6.3922 6.24453 7.84697L7.99639 9.02833C8.72509 7.942 9.86871 7.70953 10.7104 7.70953C10.7208 7.70953 10.7298 7.70953 10.7402 7.70953C11.7886 7.71538 12.5798 8.01657 13.0928 8.59994C13.4661 9.0254 13.7145 9.61316 13.8379 10.3559C12.9084 10.2009 11.9016 10.1527 10.8279 10.2126C7.80008 10.3837 5.85192 12.1206 5.98279 14.533C6.04971 15.7568 6.66985 16.8095 7.7287 17.4981C8.62396 18.08 9.77799 18.3637 10.9781 18.2994C12.5619 18.2146 13.8052 17.6195 14.6707 16.5332C15.3295 15.7086 15.7459 14.6398 15.9288 13.2917C16.6843 13.7391 17.2435 14.3284 17.5513 15.0375C18.0763 16.2422 18.1075 18.2204 16.4642 19.8345C15.0246 21.2484 13.2951 21.8595 10.6807 21.8785C7.78075 21.8581 5.58721 20.9428 4.16104 19.1605C2.82558 17.4923 2.13554 15.0813 2.11026 11.9963C2.13554 8.91136 2.82558 6.5004 4.16104 4.83217C5.58721 3.04989 7.78075 2.1361 10.6807 2.11416C13.6014 2.1361 15.8337 3.05428 17.3134 4.84532C18.0391 5.72403 18.5864 6.8279 18.9477 8.11599L21 7.57795C20.5628 5.99306 19.8742 4.62747 18.9373 3.49436C17.0412 1.20037 14.2647 0.0248553 10.6881 0H10.6733C7.1041 0.0248553 4.36031 1.20475 2.51625 3.51045C0.874442 5.56028 0.0282558 8.41426 0 11.9905V11.9993V12.008C0.0282558 15.5843 0.874442 18.4383 2.51625 20.4896C4.36031 22.7938 7.10559 23.9751 10.6747 24H10.6896C13.8632 23.9781 16.0999 23.1622 17.9424 21.3522C20.3531 18.9836 20.2802 16.0156 19.4861 14.1938C18.9165 12.8868 17.8294 11.8253 16.3423 11.1249V11.1235ZM10.8636 16.1881C9.53559 16.2612 8.157 15.6764 8.08859 14.4219C8.03803 13.492 8.76227 12.454 10.9439 12.3297C11.1938 12.3151 11.4391 12.3092 11.6801 12.3092C12.4727 12.3092 13.2148 12.3853 13.8885 12.53C13.6371 15.6179 12.1619 16.1194 10.8621 16.1896L10.8636 16.1881Z" fill="white"/>
<path d="M60.6496 1H51.3504C47.8436 1 45 3.84363 45 7.35042V16.6496C45 20.1564 47.8436 23 51.3504 23H60.6496C64.1564 23 67 20.1564 67 16.6496V7.35042C67 3.84363 64.1579 1 60.6496 1ZM64.9735 16.8124C64.9735 19.1409 63.0861 21.0268 60.7576 21.0268H51.2409C48.9124 21.0268 47.0265 19.1394 47.0265 16.8124V7.29565C47.0265 4.96717 48.9139 3.08128 51.2409 3.08128H60.7576C63.0861 3.08128 64.9735 4.96865 64.9735 7.29565V16.8124Z" fill="white"/>
<path d="M55.5 6C52.4633 6 50 8.46188 50 11.5C50 14.5381 52.4633 17 55.5 17C58.5367 17 61 14.5381 61 11.5C61 8.46188 58.5381 6 55.5 6ZM55.5 15.0644C53.5302 15.0644 51.9341 13.4684 51.9341 11.5C51.9341 9.53164 53.5302 7.93413 55.5 7.93413C57.4698 7.93413 59.0659 9.53021 59.0659 11.5C59.0659 13.4698 57.4698 15.0644 55.5 15.0644Z" fill="white"/>
<path d="M61.5 5C60.6715 5 60 5.67149 60 6.5C60 7.32851 60.6715 8 61.5 8C62.3285 8 63 7.32851 63 6.5C63 5.67149 62.3285 5 61.5 5Z" fill="white"/>
<path d="M104.33 14.4437L104.859 10.3761H100.789V7.77928C100.789 6.60199 101.122 5.79903 102.827 5.79903H105V2.16001C104.625 2.1101 103.335 2 101.832 2C98.6946 2 96.5478 3.89511 96.5478 7.37706V10.3761H93V14.4437H96.5478V24H100.789V14.4437H104.328H104.33Z" fill="white"/>
<path d="M152.234 4H137.075C134.177 4 133 6.34183 133 9.23266V14.7673C133 17.6582 134.301 20 137.199 20H152.111C155.009 20 156 17.6567 156 14.7673V9.23266C156 6.34183 155.132 4 152.234 4ZM142.388 15.1378V8.86219L148.418 12L142.388 15.1378Z" fill="white"/>
<path d="M181.046 3L188.382 12.9281L181 21H182.662L189.125 13.9338L194.346 21H200L192.252 10.5142L199.124 3.00146H197.462L191.51 9.50992L186.701 3.00146H181.048L181.046 3ZM183.489 4.23845H186.087L197.556 19.7601H194.958L183.489 4.23845Z" fill="white"/>
</svg>
