<svg width="88" height="12" viewBox="0 0 88 12" fill="none" xmlns="http://www.w3.org/2000/svg">
<path d="M9.72821 8.43217L9.54072 7.61361L10.1808 7.06042C10.1808 7.06042 10.1814 7.05965 10.1818 7.05948L11.9134 5.56293L12.5868 4.98094C12.939 4.67632 12.8449 4.39227 12.3778 4.34958L10.7842 4.20421L8.34111 3.98119L7.37046 1.76397L6.73759 0.31808C6.55201 -0.106027 6.24804 -0.106027 6.06246 0.31808L5.42942 1.76397L4.45886 3.98119L2.01546 4.20421L0.422223 4.34958C-0.0451983 4.39235 -0.139031 4.67649 0.213647 4.98137L2.61801 7.05957C2.61801 7.05957 2.61836 7.06 2.61862 7.06017L3.25916 7.61379L3.07193 8.4314C3.07184 8.43191 3.07175 8.43252 3.07167 8.43294L2.36814 11.5047C2.26481 11.9553 2.51059 12.131 2.91423 11.8951L5.28418 10.5106L6.40007 9.85869L8.50987 11.0912L9.88608 11.895C10.2894 12.1307 10.5351 11.9552 10.4323 11.5051L10.0802 9.96866L9.72856 8.43294C9.72856 8.43294 9.72821 8.4326 9.72821 8.43234V8.43217Z" fill="#1B1B1B"/>
<path d="M28.5282 8.43217L28.3407 7.61361L28.9808 7.06042C28.9808 7.06042 28.9814 7.05965 28.9818 7.05948L30.7134 5.56293L31.3868 4.98094C31.739 4.67632 31.6449 4.39227 31.1778 4.34958L29.5841 4.20421L27.1411 3.98119L26.1704 1.76397L25.5376 0.31808C25.352 -0.106027 25.048 -0.106027 24.8625 0.31808L24.2294 1.76397L23.2588 3.98119L20.8154 4.20421L19.2222 4.34958C18.7548 4.39235 18.661 4.67649 19.0136 4.98137L21.418 7.05957C21.418 7.05957 21.4183 7.06 21.4186 7.06017L22.0591 7.61379L21.8719 8.4314C21.8718 8.43191 21.8717 8.43252 21.8717 8.43294L21.1681 11.5047C21.0648 11.9553 21.3106 12.131 21.7142 11.8951L24.0842 10.5106L25.2001 9.85869L27.3099 11.0912L28.6861 11.895C29.0894 12.1307 29.3351 11.9552 29.2323 11.5051L28.8802 9.96866L28.5285 8.43294C28.5285 8.43294 28.5282 8.4326 28.5282 8.43234V8.43217Z" fill="#1B1B1B"/>
<path d="M47.3282 8.43217L47.1407 7.61361L47.7808 7.06042C47.7808 7.06042 47.7814 7.05965 47.7818 7.05948L49.5134 5.56293L50.1868 4.98094C50.539 4.67632 50.4449 4.39227 49.9778 4.34958L48.3842 4.20421L45.9411 3.98119L44.9705 1.76397L44.3376 0.31808C44.152 -0.106027 43.848 -0.106027 43.6625 0.31808L43.0294 1.76397L42.0589 3.98119L39.6155 4.20421L38.0222 4.34958C37.5548 4.39235 37.461 4.67649 37.8137 4.98137L40.218 7.05957C40.218 7.05957 40.2184 7.06 40.2186 7.06017L40.8592 7.61379L40.6719 8.4314C40.6718 8.43191 40.6718 8.43252 40.6717 8.43294L39.9681 11.5047C39.8648 11.9553 40.1106 12.131 40.5142 11.8951L42.8842 10.5106L44.0001 9.85869L46.1099 11.0912L47.4861 11.895C47.8894 12.1307 48.1351 11.9552 48.0324 11.5051L47.6802 9.96866L47.3286 8.43294C47.3286 8.43294 47.3282 8.4326 47.3282 8.43234V8.43217Z" fill="#1B1B1B"/>
<path d="M66.1282 8.43217L65.9407 7.61361L66.5808 7.06042L66.5818 7.05948L68.3134 5.56293L68.9868 4.98094C69.339 4.67632 69.2449 4.39227 68.7778 4.34958L67.1841 4.20421L64.7411 3.98119L63.7705 1.76397L63.1376 0.31808C62.952 -0.106027 62.648 -0.106027 62.4625 0.31808L61.8294 1.76397L60.8589 3.98119L58.4155 4.20421L56.8222 4.34958C56.3548 4.39235 56.261 4.67649 56.6136 4.98137L59.018 7.05957L59.6592 7.61379L59.4719 8.4314L59.4717 8.43294L58.7681 11.5047C58.6648 11.9553 58.9106 12.131 59.3142 11.8951L61.6842 10.5106L62.8001 9.85869L64.9099 11.0912L66.2861 11.895C66.6894 12.1307 66.9351 11.9552 66.8323 11.5051L66.4802 9.96866L66.1282 8.43217Z" fill="#1B1B1B"/>
<path d="M84.9282 8.43217L84.7407 7.61361L85.3808 7.06042C85.3808 7.06042 85.3814 7.05965 85.3818 7.05948L87.1134 5.56293L87.7868 4.98094C88.139 4.67632 88.0449 4.39227 87.5778 4.34958L85.9842 4.20421L83.5411 3.98119L82.5705 1.76397L81.9376 0.31808C81.752 -0.106027 81.448 -0.106027 81.2625 0.31808L80.6294 1.76397L79.6589 3.98119L77.2155 4.20421L75.6222 4.34958C75.1548 4.39235 75.061 4.67649 75.4136 4.98137L77.818 7.05957C77.818 7.05957 77.8184 7.06 77.8186 7.06017L78.4592 7.61379L78.2719 8.4314C78.2718 8.43191 78.2718 8.43252 78.2717 8.43294L77.5681 11.5047C77.4648 11.9553 77.7106 12.131 78.1142 11.8951L80.4842 10.5106L81.6001 9.85869L83.7099 11.0912L85.0861 11.895C85.4894 12.1307 85.7351 11.9552 85.6323 11.5051L85.2802 9.96866L84.9286 8.43294C84.9286 8.43294 84.9282 8.4326 84.9282 8.43234V8.43217Z" fill="#1B1B1B"/>
</svg>
