<svg width="79" height="92" viewBox="0 0 79 92" fill="none" xmlns="http://www.w3.org/2000/svg">
<g clip-path="url(#clip0_115_281)">
<path d="M10.1492 77.1303H68.3471C69.166 77.1303 69.8313 76.4638 69.8313 75.6435C69.8313 74.8233 69.166 74.1568 68.3471 74.1568H10.1492C9.33035 74.1568 8.66504 74.821 8.66504 75.6435C8.66504 76.466 9.32812 77.1303 10.1492 77.1303Z" fill="#060606"/>
<path d="M9.76604 92H68.7294C74.1142 92 78.4954 87.9989 78.4954 83.0795V78.1334C78.4954 76.5753 78.0215 74.2214 77.4185 72.7748L66.1861 46L77.4185 19.2229C78.0215 17.7786 78.4954 15.4247 78.4954 13.8666V8.92048C78.4954 4.00107 74.1142 0 68.7294 0H9.76604C4.38125 0 0 4.00107 0 8.92048V13.8666C0 15.4247 0.47395 17.7786 1.07696 19.2252L12.3093 46L1.07696 72.7771C0.47395 74.2214 0 76.5753 0 78.1334V83.0795C0 87.9989 4.38125 92 9.76604 92ZM2.96608 78.1334C2.96608 76.9498 3.35325 75.0217 3.81162 73.9272L14.9038 47.4867H19.4942C20.3131 47.4867 20.9784 46.8225 20.9784 46C20.9784 45.1775 20.3153 44.5133 19.4942 44.5133H14.9038L3.81385 18.0772C3.35548 16.9783 2.96608 15.0502 2.96608 13.8666V8.92048C2.96608 5.63939 6.01671 2.97127 9.76604 2.97127H68.7294C72.4787 2.97127 75.5293 5.63939 75.5293 8.92048V13.8666C75.5293 15.0502 75.1422 16.9783 74.6838 18.075L63.5916 44.5155H59.0635C58.2446 44.5155 57.5793 45.1797 57.5793 46.0022C57.5793 46.8247 58.2446 47.489 59.0635 47.489H63.5916L74.6838 73.9272C75.1422 75.0261 75.5293 76.9542 75.5293 78.1356V83.0817C75.5293 86.3628 72.4787 89.031 68.7294 89.031H9.76604C6.01671 89.031 2.96608 86.3628 2.96608 83.0817V78.1356V78.1334Z" fill="#060606"/>
<path d="M28.0008 17.841H64.1967C64.4949 17.841 64.6796 17.919 64.733 17.9948C64.7842 18.0706 64.7886 18.2734 64.6818 18.5498L60.2026 30.0403C59.9045 30.8049 60.2805 31.6653 61.046 31.9639C61.224 32.033 61.4064 32.0665 61.5844 32.0665C62.1785 32.0665 62.7393 31.7076 62.9662 31.1214L67.4454 19.6309C67.906 18.4473 67.8103 17.2391 67.1828 16.3186C66.5553 15.398 65.4673 14.8697 64.1967 14.8697H28.0008C27.1819 14.8697 26.5166 15.5339 26.5166 16.3565C26.5166 17.179 27.1797 17.8432 28.0008 17.8432V17.841Z" fill="#060606"/>
<path d="M22.8852 16.3565C22.8852 15.5362 22.2199 14.8697 21.401 14.8697H13.8579C12.5785 14.8697 11.4948 15.4024 10.8829 16.3297C10.2732 17.257 10.2132 18.4651 10.716 19.642L15.6513 31.1682C15.8917 31.7322 16.439 32.0687 17.0153 32.0687C17.2089 32.0687 17.4092 32.0308 17.5983 31.9484C18.3526 31.6252 18.6998 30.7514 18.3771 29.998L13.4418 18.4718C13.3194 18.1842 13.3328 18.0059 13.3572 17.9658C13.3817 17.9279 13.5419 17.8432 13.8535 17.8432H21.3966C22.2154 17.8432 22.8808 17.179 22.8808 16.3565H22.8852Z" fill="#060606"/>
<path d="M42.3043 28.4399H36.1942C35.7158 28.4399 35.2663 28.6717 34.9881 29.0596L31.9331 33.3348C31.5147 33.9188 31.5748 34.7168 32.0732 35.2339L38.1834 41.5621C38.4638 41.8518 38.8487 42.0145 39.2492 42.0145C39.6498 42.0145 40.0369 41.8518 40.3151 41.5621L46.4275 35.2339C46.9259 34.719 46.9837 33.9188 46.5677 33.3348L43.5103 29.0596C43.2322 28.6695 42.7827 28.4399 42.3043 28.4399ZM39.2492 38.3924L35.0638 34.057L36.9551 31.4112H41.5433L43.4369 34.057L39.2515 38.3924H39.2492Z" fill="#060606"/>
<path d="M17.1314 66.6584C17.3539 66.6584 17.5786 66.6072 17.7922 66.5024C24.0515 63.3773 31.47 61.7234 39.249 61.7234C47.028 61.7234 54.3309 63.3506 60.5634 66.4311C61.2977 66.7966 62.1877 66.4912 62.5504 65.7557C62.9131 65.0201 62.6105 64.1285 61.8762 63.7652C58.7388 62.2138 55.3277 61.0213 51.7475 60.1809C52.9513 58.0411 53.5899 55.6382 53.5899 53.1462C53.5899 47.5068 50.2722 42.3645 45.1411 40.0463C44.3957 39.7098 43.5168 40.0419 43.1786 40.7886C42.8426 41.5375 43.1741 42.4158 43.9218 42.7546C47.9937 44.5957 50.6238 48.6726 50.6238 53.1462C50.6238 55.4488 49.9407 57.6599 48.6546 59.5501C45.6062 59.0263 42.4576 58.7499 39.2512 58.7499C31.0161 58.7499 23.1392 60.5108 16.4705 63.841C15.7384 64.2065 15.438 65.1003 15.8052 65.8337C16.0655 66.3553 16.5884 66.6562 17.1336 66.6562L17.1314 66.6584Z" fill="#060606"/>
<path d="M26.8767 58.157C27.0102 58.157 27.146 58.1392 27.2817 58.0991C28.0694 57.8762 28.5278 57.0537 28.303 56.2646C28.016 55.2549 27.8714 54.2072 27.8714 53.1485C27.8714 48.6124 30.5526 44.511 34.7047 42.6989C35.4568 42.3712 35.7994 41.4952 35.4724 40.7418C35.1453 39.9884 34.2708 39.6451 33.5209 39.9728C28.2874 42.2575 24.9053 47.4288 24.9053 53.1462C24.9053 54.4792 25.0877 55.801 25.4482 57.0737C25.6329 57.7268 26.227 58.1548 26.8745 58.1548L26.8767 58.157Z" fill="#060606"/>
</g>
<defs>
<clipPath id="clip0_115_281">
<rect width="78.4954" height="92" fill="white"/>
</clipPath>
</defs>
</svg>
