<svg width="164" height="69" viewBox="0 0 164 69" fill="none" xmlns="http://www.w3.org/2000/svg">
<path d="M15.327 50.768C15.4195 51.7023 15.5583 52.9419 16.4093 53.5154C17.6211 54.3294 19.2029 52.5718 19.9707 51.7948C22.0335 49.7042 23.5783 47.2991 25.0214 44.7553C25.2711 44.3205 27.0102 42.0542 25.9279 41.8507C25.2249 41.7212 23.5691 44.8015 23.1713 45.3658C22.2185 46.7164 21.238 48.0484 20.1742 49.325C19.2676 50.4073 18.3611 51.6468 17.0753 52.3036C17.0198 52.3313 16.5295 48.8717 16.5203 48.5942C16.474 46.9569 16.6128 45.3288 16.7053 43.7007C16.7978 41.8969 16.8348 40.0561 16.6035 38.2615C16.437 36.985 16.0855 34.7279 14.5222 34.4134C12.2096 33.9509 10.6371 37.2347 9.86928 38.8906C10.8776 34.0711 12.2004 29.2609 13.7822 24.5988C15.2437 20.2696 17.1493 15.9404 20.2482 12.5085C19.3601 15.6352 17.5933 18.5953 16.2798 21.5646C14.846 24.8023 13.3289 28.0029 12.1911 31.3515C12.1079 31.6013 11.8026 32.1285 11.9321 32.4061C12.0246 32.6003 12.3021 32.7113 12.4316 32.4801C12.8849 31.6845 13.3289 30.8797 13.7544 30.0657C14.6147 28.4377 15.4195 26.7818 16.1965 25.1168C17.6118 22.0827 18.9901 19.0485 20.4702 16.0422C21.1362 14.7009 21.7375 13.3041 22.0335 11.8333C22.1445 11.2505 22.4313 10.2792 22.0243 9.76118C21.4785 9.05815 20.8402 9.69643 20.3869 10.1219C18.2224 12.1478 16.5018 14.6084 15.1235 17.2262C12.1911 22.8042 10.5076 29.1129 9.01825 35.2089C9.11075 31.37 9.20326 27.5404 9.28651 23.7015C9.36976 19.8441 9.56402 15.9589 9.09225 12.12C9.0645 11.9258 8.78699 11.935 8.75924 12.12C8.69449 12.5733 8.63898 13.0266 8.59273 13.4891C8.49098 14.4049 8.41698 15.3206 8.36147 16.2364C8.24122 18.2345 8.19497 20.2326 8.13947 22.2307C8.02846 26.1806 7.86195 30.1397 7.71395 34.0989C7.57519 38.0395 7.50119 41.9524 7.08492 45.8746C6.68716 49.658 6.64091 53.4784 7.10342 57.2525C7.17743 57.9 7.25143 60.5271 8.59273 59.5929C9.12925 59.2229 8.94425 58.4458 8.935 57.9C8.90724 56.79 8.88874 55.6892 8.87949 54.5792C8.85174 52.6828 8.84249 50.7865 8.84249 48.8902C8.84249 47.9467 8.84249 46.9939 8.85174 46.0411C8.85174 44.968 9.27726 44.2003 9.62877 43.192C10.2115 41.5269 10.6926 39.8988 11.5621 38.3633C11.9599 37.651 13.0607 35.4587 14.1429 35.7454C14.9015 35.9489 15.1512 37.4012 15.29 38.0303C15.5675 39.3253 15.5583 40.6666 15.4842 41.9894C15.327 44.9218 15.0125 47.8449 15.3177 50.7773L15.327 50.768Z" fill="black"/>
<path d="M31.256 50.1667C32.07 50.1667 32.292 48.9456 31.5797 48.5849C30.4049 47.9836 29.9794 50.1759 31.256 50.1667Z" fill="black"/>
<path d="M64.7606 6.29218C63.003 8.39201 60.2834 9.61306 57.8598 10.7508C56.5185 11.3891 55.1587 12.0181 53.9284 12.8599C53.6231 13.0634 52.7998 13.4612 52.8646 13.9145C52.9571 14.5712 54.1874 13.9607 54.5204 13.859C57.4435 12.9524 60.3296 11.5926 62.929 9.98307C64.6033 8.93778 67.3599 7.01371 67.4987 4.80287C67.6467 2.37928 61.4859 4.05359 60.3759 4.32185C55.3437 5.5614 50.5335 7.55023 45.8806 9.78881C45.9453 9.25229 46.6484 6.14417 46.0933 5.98692C45.4736 5.82041 45.3996 7.93874 45.3348 8.244C45.2146 8.90078 45.085 9.5668 44.974 10.2328C44.3635 10.5288 43.753 10.8341 43.1517 11.1394C41.7642 11.8331 40.3859 12.5639 39.0168 13.3132C36.2787 14.7933 33.4944 16.1901 30.7932 17.7164C28.6564 18.9282 26.3808 20.2232 24.6233 21.9715C23.9572 22.6376 23.319 23.4331 23.1062 24.3766C23.0044 24.8206 23.0137 25.2832 23.1432 25.7179C23.2542 26.0787 23.8185 25.9677 23.8462 25.6162C24.0035 23.5348 26.4733 22.2953 27.9996 21.2778C30.4602 19.6312 33.1336 18.3454 35.7607 16.9856C38.7301 15.4408 41.6624 13.8127 44.6318 12.2772C44.4375 13.4797 44.2433 14.6823 44.0583 15.8848C43.79 15.9773 42.8927 16.2456 42.8465 16.5786C42.7725 17.1243 43.7345 16.7451 43.9288 16.7266C43.013 22.8226 41.9769 28.9093 41.1444 35.0145C40.7374 37.9932 40.4599 40.9995 40.5154 44.0151C40.5431 45.5137 40.6634 47.0215 40.8854 48.5108C41.0149 49.3711 42.1804 49.2786 42.3654 48.5108C43.79 42.5166 45.3718 36.5593 46.5096 30.5096C47.0554 27.5865 47.6104 24.5894 47.7584 21.6108C47.8509 19.7329 47.8694 15.7738 45.1961 15.6998C45.3163 14.6823 45.4273 13.6555 45.5476 12.6379C45.6123 12.0459 45.4921 11.8424 46.0563 11.5556C46.6021 11.2874 47.1479 11.0099 47.7029 10.7416C49.627 9.81656 51.5788 8.95628 53.5769 8.19775C55.6582 7.41147 57.7765 6.7732 59.9226 6.19967C61.7634 5.70941 63.669 5.05263 65.6023 5.19139C65.3803 5.5984 65.0751 5.94066 64.7791 6.29218H64.7606ZM46.3338 19.7052C46.6114 23.5996 45.5568 27.6975 44.789 31.4994C43.9565 35.5881 42.976 39.649 41.9862 43.7006C41.9214 39.2234 42.606 34.774 43.2812 30.3616C43.9658 25.8752 44.53 21.3795 45.048 16.8746C46.0748 17.3464 46.2691 18.7247 46.3431 19.7144L46.3338 19.7052Z" fill="black"/>
<path d="M163.296 29.5292C160.734 28.9279 157.7 31.592 155.581 32.7021C154.351 33.3496 152.64 34.4411 151.169 34.1914C149.883 33.9694 150.235 32.5171 150.41 31.592C150.975 28.6134 148.246 28.0861 146.063 29.3349C144.721 30.1027 143.565 31.1573 142.251 31.9805C140.734 32.9241 139.18 33.8214 137.645 34.7372C138.246 33.3866 139.273 32.3043 139.985 31.0093C140.309 30.4172 140.559 29.779 140.651 29.1037C140.734 28.5117 140.189 27.3461 139.476 28.0676C138.283 29.2702 137.256 30.6207 135.98 31.74C135.452 32.2026 134.851 32.7113 134.194 32.9796C134.093 33.0166 133.075 33.3403 133.075 33.3773C133.112 32.2581 134.481 31.3145 134.416 30.2877C134.305 28.6227 132.243 30.3062 131.725 30.7225C130.689 31.5458 129.763 32.5078 128.783 33.3958C127.923 34.1821 126.628 35.4587 125.388 35.4679C125.388 34.0526 126.84 33.0166 126.868 31.6013C126.887 30.6022 125.851 30.4542 125.074 30.593C122.372 31.0555 120.643 34.0526 118.58 35.5882C119.237 33.1831 122.123 32.0268 122.53 29.4922C122.613 28.9742 122.456 28.3914 121.836 28.3359C121.198 28.2712 120.791 29.1037 120.458 29.5292C119.431 30.8335 118.395 32.1285 117.201 33.2756C116.258 34.1821 111.096 38.3263 111.059 34.9314C111.041 33.3033 112.438 32.1286 113.326 30.8428C114.417 29.2609 115.425 27.6144 116.369 25.9401C118.09 22.8967 119.912 19.4833 120.476 15.9867C120.606 15.1634 120.754 13.4058 119.412 13.8683C118.265 14.2661 117.433 15.4039 116.72 16.3197C114.787 18.8543 113.548 21.8144 112.493 24.8023C111.984 26.2546 111.513 27.7161 111.022 29.1684C110.772 29.89 110.523 30.6207 110.254 31.333C109.903 32.2766 109.847 33.1368 109.2 33.9139C107.803 35.5882 106.212 37.4013 104.288 38.4928C103.881 38.7241 102.919 39.1958 102.771 38.428C102.577 37.4105 103.391 36.3837 103.992 35.6622C104.371 35.2182 105.722 34.1266 105.278 33.4606C104.556 32.3876 103.28 34.4041 102.863 34.8667C101.06 36.8647 99.1911 38.8536 96.9432 40.3521C95.6944 41.1847 93.1876 42.7295 91.8278 41.2124C90.3015 39.5196 92.5215 36.2635 93.5298 34.8667C93.9739 34.2561 95.3244 33.0998 95.3244 32.3228C95.3244 31.9435 95.0191 31.5735 94.6584 31.4718C94.1034 31.3238 93.6963 31.9713 93.3726 32.3043C91.4855 34.2376 89.5152 36.8462 87.0268 38.021C87.1933 36.578 87.7299 35.4124 88.5254 34.1821C88.8584 33.6641 89.6909 32.8778 89.6447 32.2211C89.6077 31.7215 89.0989 31.2498 88.5809 31.444C87.9796 31.6753 87.3968 32.4061 86.9251 32.8316C86.2221 33.4514 85.5283 34.0711 84.8345 34.7001C84.1407 35.3292 83.4377 35.9489 82.7347 36.5687C82.1981 37.0405 81.6246 37.6973 80.9401 37.947C81.8281 36.43 82.4294 34.8389 83.6135 33.5069C84.9548 31.999 86.2406 30.4542 87.5171 28.8817C88.6826 27.4386 89.8297 25.9863 90.986 24.534C91.3005 24.127 91.1617 23.5997 90.727 23.35C89.9684 22.9059 89.4874 23.7477 89.0712 24.2472C86.6568 27.1149 84.002 29.7882 81.8929 32.9056C79.4878 35.5512 76.9347 38.058 74.1226 40.2781C71.5695 42.2947 68.3689 44.8663 64.974 45.0606C62.7909 45.1808 62.8002 42.8035 63.0777 41.2402C63.4662 39.0386 64.3635 36.9572 65.233 34.9129C66.6853 31.4995 68.3319 28.1694 70.1172 24.9133C73.6693 18.4195 77.6655 12.0275 82.1796 6.1628C82.8272 5.31176 87.3413 -0.432709 88.3404 2.07414C89.0157 3.76695 87.9981 6.48656 86.9991 7.86486C86.7493 8.19787 86.4348 8.54014 86.0185 8.66039C85.704 8.7529 85.0565 8.45688 84.9918 8.9564C84.9177 9.52993 86.0648 9.43742 86.3701 9.34492C87.0638 9.12291 87.6004 8.54014 88.0074 7.96662C89.2562 6.2183 90.8565 2.46265 88.9602 0.658833C86.111 -2.07002 81.6061 4.44223 80.1816 6.2923C73.0495 15.4872 66.9906 25.9678 62.6706 36.7815C61.8751 38.7703 61.0796 40.9441 61.2368 43.118C61.4126 45.4676 63.0592 46.9661 65.4273 46.7071C67.9248 46.4296 70.2744 45.0975 72.3095 43.7192C74.6591 42.1189 76.8792 40.3151 78.9513 38.3633C78.831 40.0376 80.8661 39.7878 81.8559 39.3808C83.3914 38.7333 84.5015 37.244 85.7225 36.1525C85.3803 37.1885 84.8715 39.3531 86.4071 39.6861C87.8409 40.0006 89.3209 38.613 90.283 37.7528C89.8297 39.0941 89.5429 40.6019 90.3847 41.8599C91.0692 42.8775 92.281 43.4232 93.4928 43.4047C96.6472 43.34 99.4223 40.4539 101.494 38.3725C101.892 43.4602 108.571 36.689 109.607 35.5604C110.088 39.7786 115.166 37.022 117.035 35.5234C116.887 36.171 116.702 37.8453 117.794 37.8083C118.709 37.7805 119.94 36.504 120.587 35.9304C121.355 35.2459 122.076 34.5151 122.835 33.8214C123.455 33.2478 124.334 32.2303 125.212 32.0823C124.741 33.2756 123.723 34.2839 123.899 35.6714C124.019 36.6612 124.768 37.0775 125.712 36.9387C128.191 36.5872 129.948 34.3671 131.66 32.7668C131.299 34.2561 132.372 35.1812 133.834 34.7927C135.156 34.4504 136.377 33.4698 137.349 32.5448C136.914 33.1646 134.583 36.763 136.396 37.0035C137.256 37.1145 138.69 35.8102 139.412 35.3847C140.503 34.7279 141.595 34.0804 142.686 33.4236C144.074 32.5726 145.397 31.6198 146.756 30.7317C147.755 30.0842 149.245 29.4274 149.124 31.259C149.023 32.8778 148.431 34.6539 150.383 35.4402C152.223 36.1895 154.305 35.0794 155.896 34.2006C157.672 33.2201 159.42 32.1656 161.27 31.333C161.733 31.1203 162.241 30.926 162.769 30.926C163.093 30.926 163.444 31.1018 163.712 30.8335C164.138 30.4172 163.879 29.6587 163.324 29.5199L163.296 29.5292ZM119.394 15.0894C118.783 20.4731 115.462 25.6163 112.336 29.89C113.252 27.1981 113.982 24.4415 115.018 21.7959C115.943 19.4278 117.202 16.5602 119.394 15.0894Z" fill="black"/>
<path d="M50.3214 44.2003C49.7293 44.672 50.1456 46.0966 50.9966 45.8191C52.1067 45.4491 51.3667 43.3585 50.3214 44.2003Z" fill="black"/>
<path d="M155.96 42.9145C124.13 44.5888 92.3547 47.5859 60.9683 53.2471C45.2796 56.0777 29.7575 59.6298 14.3557 63.7C10.6371 64.6805 6.84441 65.5871 3.27377 67.0579C2.44124 67.4002 1.61796 67.7794 0.822428 68.2049C0.248906 68.5102 -0.602127 69.3335 0.637421 68.8525C2.55224 68.1217 4.49482 67.4926 6.46515 66.9284C14.0412 64.7453 21.8022 63.0062 29.48 61.2209C60.8665 53.9131 92.6877 49.5747 124.759 46.6516C130.457 46.1336 136.155 45.6063 141.844 45.0328C144.693 44.746 147.533 44.4593 150.373 44.1725C151.798 44.0337 153.222 43.8857 154.637 43.747C155.026 43.71 155.923 43.7932 156.238 43.5435C156.506 43.3307 156.265 42.9052 155.96 42.9145Z" fill="black"/>
</svg>
