<svg width="100" height="93" viewBox="0 0 100 93" fill="none" xmlns="http://www.w3.org/2000/svg">
<path d="M44.4078 25.2883C44.4078 26.0408 45.0195 26.6523 45.7769 26.6523H77.3587L95.312 44.4007H77.7138C76.9585 44.4007 76.3448 45.0101 76.3448 45.7647C76.3448 46.5193 76.9585 47.1287 77.7138 47.1287H95.4002L57.3612 86.2023L73.4138 46.2719C73.5513 45.9283 73.5431 45.5439 73.3933 45.2064L66.2629 29.3537C65.953 28.6666 65.1443 28.3578 64.4546 28.6666C63.765 28.9754 63.4571 29.7811 63.765 30.4682L70.0313 44.3987H38.8476L45.1139 30.4682C45.4238 29.7811 45.1139 28.9754 44.4243 28.6666C43.7346 28.3578 42.9239 28.6666 42.616 29.3537L35.4856 45.2064C35.3337 45.5439 35.3255 45.9283 35.4651 46.2719L51.5157 86.2023L13.4746 47.1267H31.1158C31.8711 47.1267 32.4848 46.5152 32.4848 45.7627C32.4848 45.0101 31.8732 44.3987 31.1158 44.3987H13.5628L31.9163 26.2556C32.452 25.7259 32.4561 24.8629 31.9245 24.3271C31.3929 23.7934 30.5268 23.7893 29.989 24.319L9.2772 44.7934C8.7456 45.3189 8.73739 46.1737 9.25872 46.7095L53.4532 92.1082C53.7098 92.372 54.0649 92.5213 54.4364 92.5213C54.8079 92.5213 55.1609 92.372 55.4195 92.1082L99.614 46.7095C100.135 46.1737 100.127 45.3189 99.5955 44.7934L78.8837 24.319C78.6272 24.0654 78.2803 23.9243 77.919 23.9243H45.7748C45.0195 23.9243 44.4058 24.5337 44.4058 25.2883H44.4078ZM54.4364 86.1369L38.7552 47.1267H70.1195L54.4384 86.1369H54.4364Z" fill="#272727"/>
<path d="M27.0968 14.9877C32.4128 16.6891 35.3396 20.0838 36.8811 26.3415C37.0309 26.9509 37.5789 27.3803 38.209 27.3803C38.8392 27.3803 39.3872 26.9509 39.537 26.3415C41.0784 20.0838 44.0053 16.6891 49.3213 14.9877C49.8878 14.8057 50.2716 14.2822 50.2716 13.6891C50.2716 13.0961 49.8878 12.5726 49.3213 12.3906C44.0053 10.6891 41.0784 7.29447 39.537 1.03885C39.3872 0.429447 38.8371 0 38.209 0C37.581 0 37.0309 0.429447 36.8811 1.03885C35.3396 7.29651 32.4128 10.6912 27.0968 12.3906C26.5303 12.5726 26.1465 13.0961 26.1465 13.6891C26.1465 14.2822 26.5303 14.8057 27.0968 14.9877ZM38.209 5.74028C39.7751 9.40285 42.0883 11.9754 45.3497 13.6891C42.0883 15.4028 39.7751 17.9775 38.209 21.638C36.643 17.9754 34.3298 15.4028 31.0684 13.6891C34.3298 11.9754 36.6409 9.40285 38.209 5.74028Z" fill="#272727"/>
<path d="M0.950309 25.6094C4.71665 26.8139 6.79379 29.229 7.89188 33.685C8.04171 34.2944 8.59178 34.7239 9.21984 34.7239C9.84791 34.7239 10.398 34.2944 10.5478 33.685C11.6459 29.229 13.721 26.8139 17.4894 25.6094C18.0559 25.4274 18.4397 24.9039 18.4397 24.3108C18.4397 23.7178 18.0559 23.1942 17.4894 23.0122C13.721 21.8057 11.6459 19.3906 10.5478 14.9345C10.398 14.3251 9.84996 13.8957 9.21984 13.8957C8.58973 13.8957 8.04171 14.3251 7.89188 14.9345C6.79379 19.3906 4.71871 21.8057 0.950309 23.0122C0.383818 23.1942 0 23.7178 0 24.3108C0 24.9039 0.383818 25.4274 0.950309 25.6094ZM9.21984 19.3517C10.2871 21.5276 11.7567 23.1493 13.7148 24.3108C11.7567 25.4724 10.2892 27.092 9.21984 29.2699C8.15254 27.092 6.68295 25.4724 4.72486 24.3108C6.68295 23.1493 8.15049 21.5276 9.21984 19.3517Z" fill="#272727"/>
<path d="M15.7431 87.0428C15.8929 87.6523 16.4409 88.0817 17.0711 88.0817C17.7012 88.0817 18.2492 87.6523 18.399 87.0428C19.3617 83.141 21.1761 81.0265 24.4662 79.9733C25.0327 79.7913 25.4165 79.2678 25.4165 78.6748C25.4165 78.0817 25.0327 77.5582 24.4662 77.3762C21.1761 76.323 19.3617 74.2085 18.399 70.3067C18.2492 69.6973 17.7012 69.2678 17.0711 69.2678C16.4409 69.2678 15.8929 69.6973 15.7431 70.3067C14.7825 74.2085 12.9681 76.323 9.67589 77.3741C9.1094 77.5561 8.72559 78.0797 8.72559 78.6727C8.72559 79.2658 9.1094 79.7893 9.67589 79.9713C12.9681 81.0244 14.7805 83.1369 15.7431 87.0408V87.0428ZM17.0731 74.6093C17.9824 76.3557 19.1954 77.6891 20.7738 78.6768C19.1954 79.6625 17.9824 80.9958 17.0731 82.7443C16.1639 80.9979 14.9508 79.6645 13.3725 78.6768C14.9508 77.6911 16.1639 76.3578 17.0731 74.6093Z" fill="#272727"/>
</svg>
