<svg width="92" height="92" viewBox="0 0 92 92" fill="none" xmlns="http://www.w3.org/2000/svg">
<g clip-path="url(#clip0_115_292)">
<path d="M21.4028 69.0219C21.4028 69.8951 22.1099 70.6046 22.9854 70.6046H27.2849C28.1581 70.6046 28.8675 69.8951 28.8675 69.0219C28.8675 68.1488 28.1605 67.4417 27.2849 67.4417H24.5657V64.9526C24.5657 64.0794 23.8586 63.37 22.983 63.37C22.1075 63.37 21.4004 64.0771 21.4004 64.9526V69.0243L21.4028 69.0219Z" fill="#060606"/>
<path d="M27.2845 47.3181H22.985C22.1118 47.3181 21.4023 48.0252 21.4023 48.8984V53.2026C21.4023 54.0758 22.1094 54.7852 22.985 54.7852C23.8606 54.7852 24.5676 54.0781 24.5676 53.2026V50.4786H27.2869C28.16 50.4786 28.8671 49.7715 28.8695 48.8984C28.8695 48.0252 28.1624 47.3157 27.2869 47.3157L27.2845 47.3181Z" fill="#060606"/>
<path d="M44.6867 48.9007C44.6867 48.0275 43.9796 47.3205 43.1064 47.3181H38.3893C37.5161 47.3181 36.8066 48.0252 36.8066 48.9007C36.8066 49.7763 37.5137 50.4834 38.3893 50.4834H41.5237V53.205C41.5237 54.0781 42.2308 54.7876 43.1064 54.7876C43.9819 54.7876 44.689 54.0805 44.689 53.205V48.9007H44.6867Z" fill="#060606"/>
<path d="M43.1068 63.37C42.2336 63.37 41.5242 64.0771 41.5242 64.9526V67.4417H38.3873C37.5141 67.4417 36.8047 68.1488 36.8047 69.0243C36.8047 69.8999 37.5118 70.607 38.3873 70.607H43.1044C43.9776 70.607 44.6871 69.8999 44.6871 69.0243V64.955C44.6871 64.0818 43.9776 63.3723 43.1044 63.3723L43.1068 63.37Z" fill="#060606"/>
<path d="M22.985 60.5416H26.3876C27.2608 60.5416 27.9702 59.8321 27.9702 58.959C27.9702 58.0858 27.2631 57.3763 26.3876 57.3763H22.985C22.1118 57.3763 21.4023 58.0834 21.4023 58.959C21.4023 59.8345 22.1094 60.5416 22.985 60.5416Z" fill="#060606"/>
<path d="M43.1063 57.3787H39.7037C38.8306 57.3787 38.1211 58.0882 38.1211 58.9613C38.1211 59.8345 38.8306 60.544 39.7037 60.544H43.1063C43.9795 60.544 44.689 59.8345 44.689 58.9613C44.689 58.0882 43.9795 57.3787 43.1063 57.3787Z" fill="#060606"/>
<path d="M34.6282 48.9007C34.6282 48.0275 33.9187 47.3181 33.0455 47.3181C32.1724 47.3181 31.4629 48.0275 31.4629 48.9007V52.3033C31.4629 53.1765 32.17 53.886 33.0455 53.886C33.9211 53.886 34.6282 53.1765 34.6282 52.3033V48.9007Z" fill="#060606"/>
<path d="M33.0455 64.0367C32.1724 64.0367 31.4629 64.7438 31.4629 65.617V69.0196C31.4629 69.8928 32.17 70.6022 33.0432 70.6022C33.9163 70.6022 34.6258 69.8951 34.6258 69.0196V65.617C34.6258 64.7438 33.9187 64.0343 33.0455 64.0343V64.0367Z" fill="#060606"/>
<path d="M37.3519 76.2376C50.1341 86.469 61.8201 92 69.833 92C73.079 92 75.7222 91.0936 77.5896 89.2238L89.2519 77.5616C97.2173 69.5938 87.0286 46.9242 66.0531 25.9488C56.2346 16.1302 45.6021 8.26916 36.1157 3.8107C26.1429 -0.875554 18.4456 -1.25283 14.4427 2.75006C14.4427 2.75006 14.4427 2.75243 14.4403 2.75481L2.78046 14.4147C-3.72335 20.9161 1.40424 36.7473 15.8426 54.7497C16.1558 55.1388 16.6138 55.3428 17.0765 55.3428C17.4229 55.3428 17.7741 55.229 18.0659 54.994C18.7469 54.4483 18.8561 53.4517 18.3103 52.7707C5.56611 36.8802 -0.0241737 21.692 5.01562 16.6522L11.733 9.93486C11.4862 18.2396 17.3944 30.7584 28.3377 44.1148C28.893 44.7911 29.8895 44.8907 30.5634 44.3355C31.2396 43.7826 31.3393 42.7861 30.7841 42.1098C17.4205 25.7898 11.4862 10.1793 16.6779 4.9876C19.6249 2.0406 26.2188 2.65752 34.7703 6.67228C43.934 10.9789 54.2509 18.6169 63.818 28.1839C84.8551 49.2211 92.7968 69.5416 87.0167 75.3241C81.8464 80.4944 66.2928 74.6122 50.0368 61.3318C49.3606 60.7789 48.364 60.8786 47.8112 61.5572C47.2583 62.2334 47.358 63.23 48.0366 63.7828C61.0703 74.4295 73.3067 80.2808 81.5807 80.2808C81.7515 80.2808 81.9105 80.269 82.0789 80.2618L75.3568 86.9863C70.3289 92.0119 55.1787 86.4524 39.3332 73.7675C38.6499 73.2218 37.6557 73.3333 37.1099 74.0143C36.5642 74.6953 36.6733 75.6918 37.3567 76.2376H37.3519Z" fill="#060606"/>
<path d="M75.3289 72.453C75.5709 73.0794 76.1688 73.4638 76.8047 73.4638C76.9945 73.4638 77.1891 73.4306 77.3766 73.357C78.1904 73.0415 78.5962 72.1256 78.2806 71.3093C74.3323 61.1253 65.712 48.9268 54.6263 37.8436C43.2488 26.4661 30.7964 17.7484 20.4653 13.9259C19.6467 13.6245 18.7356 14.0422 18.4318 14.8608C18.1281 15.6794 18.5481 16.5905 19.3667 16.8942C29.285 20.5626 41.3197 29.0144 52.3888 40.0811C63.1731 50.8678 71.5348 62.6653 75.3289 72.4554V72.453Z" fill="#060606"/>
</g>
<defs>
<clipPath id="clip0_115_292">
<rect width="91.9573" height="92" fill="white"/>
</clipPath>
</defs>
</svg>
