<svg width="18" height="18" viewBox="0 0 18 18" fill="none" xmlns="http://www.w3.org/2000/svg">
<path d="M12.7974 17.5H5.20259C2.60994 17.5 0.5 15.3901 0.5 12.7974V5.20259C0.5 2.60994 2.60994 0.5 5.20259 0.5H12.7974C15.3901 0.5 17.5 2.60994 17.5 5.20259V12.7974C17.5 15.3901 15.3901 17.5 12.7974 17.5ZM5.20259 1.31117C3.05636 1.31117 1.31117 3.05636 1.31117 5.20259V12.7974C1.31117 14.9436 3.05636 16.6888 5.20259 16.6888H12.7974C14.9436 16.6888 16.6888 14.9436 16.6888 12.7974V5.20259C16.6888 3.05636 14.9436 1.31117 12.7974 1.31117H5.20259Z" fill="white" stroke="white"/>
<path d="M8.5 12.5C6.29476 12.5 4.5 10.7052 4.5 8.5C4.5 6.29476 6.29476 4.5 8.5 4.5C10.7052 4.5 12.5 6.29476 12.5 8.5C12.5 10.7052 10.7052 12.5 8.5 12.5ZM8.5 4.99437C6.56658 4.99437 4.99484 6.56668 4.99484 8.49953C4.99484 10.4324 6.5671 12.0047 8.5 12.0047C10.4329 12.0047 12.0052 10.4324 12.0052 8.49953C12.0052 6.56663 10.4329 4.99437 8.5 4.99437Z" fill="white" stroke="white"/>
<path d="M14.5 4C14.5 4.27614 14.2761 4.5 14 4.5C13.7239 4.5 13.5 4.27614 13.5 4C13.5 3.72386 13.7239 3.5 14 3.5C14.2761 3.5 14.5 3.72386 14.5 4Z" fill="white" stroke="white"/>
</svg>
