<svg width="18" height="18" viewBox="0 0 18 18" fill="none" xmlns="http://www.w3.org/2000/svg">
<path d="M4.58586 16.3078L0.704167 17.3032L1.70542 13.5637L1.75958 13.3614L1.65341 13.1809C0.920306 11.9345 0.5 10.4842 0.5 8.93547C0.5 4.2801 4.30176 0.5 9.00001 0.5C13.6982 0.5 17.5 4.28055 17.5 8.93596C17.5 13.5913 13.6978 17.3714 9.00001 17.3714C7.63699 17.3714 6.35069 17.0536 5.21007 16.4888V16.1477L4.58586 16.3078ZM2.36388 13.2693L1.63414 15.7496L1.38407 16.5995L2.24094 16.3743L4.88038 15.6804C6.08195 16.4061 7.49308 16.8238 9.00049 16.8238C13.383 16.8238 16.9417 13.2958 16.9417 8.93596C16.9417 4.57609 13.383 1.04813 9.00049 1.04813C4.61794 1.04813 1.05931 4.57609 1.05931 8.93596C1.05931 10.536 1.53909 12.0258 2.36388 13.2693Z" fill="white" stroke="white"/>
<path d="M13.4987 11.3102L13.4967 11.2917C13.4925 11.2547 13.4624 11.2016 13.3881 11.1772C13.3881 11.1772 13.388 11.1772 13.388 11.1772C13.388 11.1772 13.388 11.1772 13.388 11.1772L11.5334 10.5688C11.5334 10.5688 11.5333 10.5688 11.5333 10.5688C11.5302 10.5678 11.5263 10.5676 11.5227 10.5684C11.5221 10.5686 11.5216 10.5687 11.5212 10.5688L11.344 10.7464L11.3438 10.7466C10.9189 11.172 10.2824 11.3372 9.69626 11.1712C9.26863 11.0501 8.76266 10.8077 8.21992 10.3478C7.67698 9.88788 7.3643 9.43566 7.18768 9.03892L13.4987 11.3102ZM13.4987 11.3102C13.5161 11.5728 13.3 11.9919 12.7272 12.266C12.4558 12.3958 11.9019 12.5814 11.0873 12.4611C10.2706 12.3406 9.15313 11.9067 7.76722 10.7319C6.37981 9.55584 5.81398 8.562 5.60709 7.82884C5.40159 7.10063 5.53673 6.58234 5.64168 6.32549L5.64169 6.32546C5.86526 5.77824 6.29896 5.50027 6.63593 5.5C6.72079 5.50029 6.77918 5.54643 6.80052 5.58905C6.80053 5.58908 6.80055 5.5891 6.80056 5.58912L7.61739 7.22393L7.47058 7.38372C7.47052 7.38379 7.47045 7.38386 7.47039 7.38393C7.05984 7.83044 6.93597 8.47362 7.18765 9.03886L13.4987 11.3102Z" fill="white" stroke="white"/>
</svg>
